<?xml version="1.0" encoding="utf-8"?>
<!-- Generator: Adobe Illustrator 23.0.1, SVG Export Plug-In . SVG Version: 6.00 Build 0)  -->
<svg version="1.1" id="Layer_1" xmlns="http://www.w3.org/2000/svg" xmlns:xlink="http://www.w3.org/1999/xlink" x="0px" y="0px"
	 viewBox="0 0 1920 1080" style="enable-background:new 0 0 1920 1080;" xml:space="preserve">
<style type="text/css">
	.st0{fill:#8CB4F4;}
	.st1{fill:#233862;}
	.st2{fill:#FFB27D;}
	.st3{fill:#0F2549;}
	.st4{fill:#2B478B;}
	.st5{fill:#ED975D;}
	.st6{fill:#FFFFFF;}
	.st7{fill:#EBF3FF;}
	.st8{fill:#ED7D2B;}
	.st9{fill:#F99746;}
	.st10{fill:#182D4F;}
	.st11{fill:#1B3051;}
	.st12{fill:#73A2E5;}
</style>
<g>
	<g>
		<g>
			<path class="st0" d="M914.04,296.3l0.06,0c0.52-0.01,0.92-0.44,0.87-0.92l-3.47-34.68l-3.03,0.27l4.99,34.87
				C913.5,296.11,913.75,296.31,914.04,296.3z"/>
		</g>
		<g>
			<path class="st0" d="M880.6,296.3l-0.06,0c-0.52-0.01-0.92-0.44-0.87-0.92l3.47-34.68l3.03,0.27l-4.99,34.87
				C881.14,296.11,880.89,296.31,880.6,296.3z"/>
		</g>
		<g>
			<path class="st0" d="M938.54,296.3l0.06,0c0.52-0.01,0.92-0.44,0.87-0.92L936,260.69l-3.03,0.27l4.99,34.87
				C938,296.11,938.25,296.31,938.54,296.3z"/>
		</g>
		<path class="st0" d="M881.63,255.65l-6.16-30.44c-0.79-4.12,2.62-7.89,7.06-7.79l11.89,0.27c4.1,0.09,7.67,2.84,8.81,6.78
			l9.02,31.18H881.63z"/>
		<path class="st0" d="M885.36,255.65l-6.16-30.44c-0.79-4.12,2.62-7.89,7.06-7.79l11.89,0.27c4.1,0.09,7.67,2.84,8.81,6.78
			l9.02,31.18H885.36z"/>
		<path class="st0" d="M884.41,261.2h44.92c1.53,0,2.78-1.25,2.78-2.78l0,0c0-1.53-1.25-2.78-2.78-2.78h-47.7v2.78
			C881.63,259.95,882.88,261.2,884.41,261.2z"/>
		<path class="st0" d="M906.82,261.2h27.2c1.53,0,2.78-1.25,2.78-2.78v0c0-1.53-1.25-2.78-2.78-2.78h-27.2
			c-1.53,0-2.78,1.25-2.78,2.78v0C904.04,259.95,905.29,261.2,906.82,261.2z"/>
	</g>
	<g>
		<g>
			<path class="st1" d="M922.61,249.28c-2.54,4.43-5.75,6.14-5.75,6.14h-13.32C903.55,255.41,924.55,245.9,922.61,249.28z"/>
			<g>
				<path class="st2" d="M939.03,293.28c-0.14,1.4,1.8,1.76,4.05,1.89c2.25,0.14,1.57,0.59,4.65,1.18c3.08,0.59,4.33-0.24,4.56-0.65
					c0.2-0.37-1.23-0.96-2.75-1.63c-0.19-0.08-0.38-0.17-0.58-0.26c-1.72-0.78-2.67-2.33-3.99-3.78c-1.26-1.37-2.42-5.73-2.42-5.73
					l-4.19-0.94c0,0,1.14,3.92,1.53,5.6c0.23,0.98-0.14,2.08-0.46,2.91C939.26,292.32,939.08,292.78,939.03,293.28z"/>
				<path class="st3" d="M943.08,295.17c2.25,0.14,1.57,0.59,4.65,1.18c3.08,0.59,4.33-0.24,4.56-0.65c0.2-0.37-1.23-0.96-2.75-1.63
					l-0.02,0.03c0,0-2.18,0.71-4.68,0.01c-2.04-0.58-4-1.82-5.41-2.23c-0.17,0.45-0.35,0.92-0.4,1.41
					C938.89,294.67,940.83,295.03,943.08,295.17z"/>
				<path class="st1" d="M932.68,244.74c-2.25-1.58-17.17-4.4-24.78-5.22l-8.41-7.3c0,0-7.16,10.6-7.22,18.72
					c-0.03,3.78,1.72,4.16,1.72,4.16c0,0,26.96,0.2,28.15,0.32c1.93,0.2,4.49,5.02,5.12,9.41c0.64,4.39,11.88,22.24,11.88,22.24
					s2.34,0.75,3.43,0.69c1.17-0.07,1.71-0.46,1.71-0.46S937.77,248.31,932.68,244.74z"/>
				<path class="st2" d="M932.06,293.28c-0.14,1.4,1.8,1.76,4.05,1.89c2.25,0.14,1.57,0.59,4.65,1.18c3.08,0.59,4.33-0.24,4.56-0.65
					c0.2-0.37-1.23-0.96-2.75-1.63c-0.19-0.08-0.38-0.17-0.58-0.26c-1.72-0.78-2.67-2.33-3.99-3.78c-1.26-1.37-2.42-5.73-2.42-5.73
					l-4.19-0.94c0,0,1.14,3.92,1.53,5.6c0.23,0.98-0.14,2.08-0.46,2.91C932.28,292.32,932.11,292.78,932.06,293.28z"/>
				<path class="st1" d="M936.11,295.17c2.25,0.14,1.57,0.59,4.65,1.18c3.08,0.59,4.33-0.24,4.56-0.65c0.2-0.37-1.23-0.96-2.75-1.63
					l-0.02,0.03c0,0-2.18,0.71-4.68,0.01c-2.04-0.58-4-1.82-5.41-2.23c-0.17,0.45-0.35,0.92-0.4,1.41
					C931.91,294.67,933.86,295.03,936.11,295.17z"/>
				<path class="st4" d="M925.65,244.74c-1.96-1.38-7.85-2.44-14.35-3.23c-1.8-0.22-3.27-1.53-3.71-3.28l0,0l-15.12-6.01
					c0,0-7.16,10.6-7.22,18.72c-0.03,3.78,1.72,4.16,1.72,4.16c0,0,26.96,0.2,28.15,0.32c1.93,0.2,4.49,5.02,5.12,9.41
					c0.64,4.39,11.88,22.24,11.88,22.24s2.34,0.75,3.43,0.69c1.17-0.07,1.71-0.46,1.71-0.46S930.73,248.31,925.65,244.74z"/>
				<path class="st1" d="M905.41,188.16c-2.08-1.09-5.24-1.24-5.75-1.31c-6.15-0.83-9.85,8.11-10.07,10.81
					c-0.4,4.99-3.04,5.75-6.76,8.87c-7.45,6.27-5.26,13.55-1.19,16.25c2.44,1.62,6.75,0,6.75,0c0.06,0.04,11.78-6.55,17.56-9.73
					C914.61,211.83,910.71,190.94,905.41,188.16z"/>
				<path class="st2" d="M904.13,209.98c0.03,0.01-2.73,1.27-4.72,0.61c-1.87-0.62-3.52-3.44-3.5-3.44
					c0.81-0.12,1.64-0.92,1.87-5.67l0.36,0.09l6.05,1.53c0,0-0.24,1.92-0.34,3.73C903.77,208.35,903.79,209.8,904.13,209.98z"/>
				<path class="st5" d="M904.19,203.1c0,0,0,0.39-0.23,2.18c-3.42-0.86-4.93-2-6-3.3L904.19,203.1z"/>
				<path class="st2" d="M905.48,203.34c0,0-8.01,1.3-8.74-3.69c-0.74-5-2.26-8.2,2.82-9.24c5.08-1.04,6.36,0.72,7.01,2.33
					C907.22,194.34,907.55,202.87,905.48,203.34z"/>
				<path class="st1" d="M905.49,190.2c0,0-3.64,5.74-6.88,7.1c-3.25,1.36-4.84,0.67-4.84,0.67s1.48-2.24,1.86-5.24
					c0.11-0.89,0.69-1.65,1.52-1.98C899.48,189.81,903.99,188.34,905.49,190.2z"/>
				<path class="st1" d="M902.3,190.75c0,0,2.13,1.09,3.01,2.12c0.85,0.99,1.82,3.67,1.76,4.87c0,0,1.05-5.77-1.14-7.75
					C903.6,187.89,902.3,190.75,902.3,190.75z"/>
				<path class="st6" d="M910.53,222.19c-0.24,16.27-0.07,12.87-1.85,14.42c-0.43,0.37-1.63,0.59-3.22,0.7
					c-4.99,0.33-13.76-0.49-14.09-1.41c-1.15-3.19-0.34-4.18-1.3-9.07c-0.1-0.52-0.22-1.08-0.37-1.69c-0.8-3.36-1.58-4.5,1.26-9.89
					c2.58-4.88,5.61-8.85,5.85-8.71c6.8,4.03,7.03,0.65,7.03,0.65S910.65,214.26,910.53,222.19z"/>
				<path class="st6" d="M903.84,207.19c0,0,6.96,1.18,7.78,4.19c0.82,3.01,5.65,20.71,5.65,20.71s-3.55,0.64-5.2-1
					c-1.64-1.64-5.71-15.24-5.71-15.24L903.84,207.19z"/>
				<path class="st7" d="M905.47,237.31c-4.99,0.33-13.76-0.49-14.09-1.41c-1.15-3.19-0.34-4.18-1.3-9.07l2.41-6.78
					c0,0-0.4,7.55,1.83,9.53c2.22,1.98,9.11,3.83,10.19,5.49C905.02,235.87,905.36,236.67,905.47,237.31z"/>
				<path class="st2" d="M899.75,234.13c0,0,4.92-1.1,5.72-0.66c0.79,0.44,2.74,2.03,2.98,2.58c0.24,0.55-1.77-0.42-2.42-0.6
					c-0.42-0.11-1.54,0.27-2.09,0.46c-2.32,0.77-3.75,0.38-3.75,0.38L899.75,234.13z"/>
				<path class="st6" d="M896.81,206.54c0,0-6.97,0.41-9.26,3.6c-3.22,4.49-9.61,23.64-5.95,26.19c4.12,2.88,18.77,0.75,18.77,0.75
					s0.49-2.28-0.19-3.38c-0.68-1.1-11.7-2.88-12.21-3.39c-0.51-0.51,6.36-9.92,6.36-11.44
					C894.33,217.35,896.81,206.54,896.81,206.54z"/>
				<path class="st2" d="M905.7,234.85c0,0,1.03,1.33,1.37,1.49c0.34,0.16,0.56,0.12,0.56,0.12l-0.7-1.25L905.7,234.85z"/>
				<path class="st2" d="M905.47,233.48l3,1.46c0,0-0.13,0.21-0.5,0.19c-0.37-0.02-1.3-0.36-1.3-0.36L905.47,233.48z"/>
			</g>
		</g>
	</g>
	<g>
		<path class="st8" d="M916.51,236.93h-13.93l0,0c0-0.61,0.5-1.11,1.11-1.11h12.82V236.93z"/>
		<polygon class="st8" points="916.47,221.76 938.01,221.76 932.84,236.93 911.17,236.93 		"/>
		<polygon class="st9" points="938.32,221.76 933.16,236.93 911.48,236.93 916.79,221.76 		"/>
		<path class="st6" d="M926.71,229.2c-0.13,0.58-0.71,1.05-1.29,1.05s-0.94-0.47-0.81-1.05c0.13-0.58,0.71-1.05,1.29-1.05
			C926.49,228.15,926.85,228.62,926.71,229.2z"/>
	</g>
	<g>
		<path class="st10" d="M898.76,240.34h92.39c0.94,0,1.71-0.76,1.71-1.71l0,0c0-0.94-0.76-1.71-1.71-1.71h-92.39
			c-0.94,0-1.71,0.76-1.71,1.71l0,0C897.05,239.58,897.82,240.34,898.76,240.34z"/>
		<g>
			<path class="st10" d="M994.45,296.56l0.04,0c0.48-0.06,0.83-0.49,0.76-0.96l-8.41-56.92l-3.08,0.09l9.89,57.23
				C993.72,296.35,994.07,296.6,994.45,296.56z"/>
		</g>
		<g>
			<path class="st10" d="M894.61,296.56l-0.04,0c-0.48-0.06-0.83-0.49-0.76-0.96l8.41-56.92l3.08,0.09l-9.89,57.23
				C895.34,296.35,894.99,296.6,894.61,296.56z"/>
		</g>
		<g>
			<path class="st10" d="M914.08,296.56l-0.04,0c-0.48-0.06-0.83-0.49-0.76-0.96l8.41-56.92l3.08,0.09l-9.89,57.23
				C914.8,296.35,914.46,296.6,914.08,296.56z"/>
		</g>
	</g>
	<g>
		<path class="st1" d="M963.69,296.51h16.69c0.8-0.98,0.51-4.59,0.39-5.77c-0.03-0.24-0.04-0.38-0.04-0.38s-5.7-4.56-6.48-1.07
			c-0.02,0.11-0.05,0.22-0.08,0.32c-0.99,3.26-5.41,4.75-7.96,5.16C964.53,295.04,963.92,295.91,963.69,296.51z"/>
		<path class="st1" d="M1009.22,242.29c-0.6,0-28.58,5.25-33.21,10.98c-2.31,2.86-2.66,35.92-2.66,35.92s2.86,3.55,9.04,1.49
			c0,0,4.53-22.62,4.2-29.48c-0.09-1.9,19.12-0.27,22.63-1.18c3.52-0.91,12.11-8.56,10.21-12.29
			C1017.54,244,1009.22,242.29,1009.22,242.29z"/>
		<path class="st2" d="M976.13,234.19c0,0-5.64,0.08-6.98,0.65c-1.33,0.57-4.04,1.89-3.32,2.09c0.72,0.2,4.18-0.08,4.93,0.03
			c0.75,0.11,1.67-0.03,2.13-0.03s2.59,0,2.59,0L976.13,234.19z"/>
		<path class="st2" d="M969.53,220.65c0,0-1.92-1.38-3.79-1.64c-1.07-0.15-2.1-0.34-2.73-0.56c-1.72-0.61-5.17-3.71-4.91-4.07
			c0.84-1.17,4.86,1.3,5.57,1.04c0.7-0.26-1.35-1.73-0.64-2.24c0.37-0.27,1.25,1.08,1.96,1.21c0.97,0.18,1.72,1.55,2.01,1.62
			c0.57,0.14,3.04,1.98,3.04,1.98L969.53,220.65z"/>
		<path class="st8" d="M1006.44,204.59c0,0-4.3,1.33-8.53,12.99c-4.23,11.66-5.84,12.29-7.38,12.74
			c-1.54,0.46-15.05,3.15-15.05,3.15v3.46h20.81c0,0,7.8-7.42,10.14-12.42C1008.78,219.51,1006.44,204.59,1006.44,204.59z"/>
		<path class="st11" d="M956.31,296.51H973c0.8-0.98,0.51-4.59,0.39-5.77c-0.03-0.24-0.04-0.38-0.04-0.38s-5.7-4.56-6.48-1.07
			c-0.02,0.11-0.05,0.22-0.08,0.32c-0.99,3.26-5.41,4.75-7.96,5.16C957.16,295.04,956.54,295.91,956.31,296.51z"/>
		<path class="st4" d="M1000.98,242.29c-0.6,0-28.58,5.25-33.21,10.98c-2.31,2.86-2.66,35.92-2.66,35.92s2.86,3.55,9.04,1.49
			c0,0,4.53-22.62,4.2-29.48c-0.09-1.9,19.12-0.27,22.63-1.18c3.52-0.91,12.11-8.56,10.21-12.29
			C1009.3,244,1000.98,242.29,1000.98,242.29z"/>
		<path class="st2" d="M1002.73,208.28c2.01-0.17,4.12-0.7,5.95-1.29c2.28-0.74,4.12-1.82,2.93-3.91c-1.09-1.92-2.86-6.21-2.74-9.77
			l-4.24,3.42l-2.88,2.32c0,0,0.01,1.37,0.33,3.77c0.06,0.44,0.12,0.91,0.2,1.41c0.06,0.41-0.12,0.81-0.47,1.03
			c-0.02,0.01-0.04,0.03-0.07,0.04C1000.31,206.21,1001.04,208.42,1002.73,208.28z"/>
		<path class="st5" d="M1001.75,198.49c0,0-0.15,0.5,0.11,2.33c2.57-0.42,4.97-2.47,4.97-2.47c-1.31-0.36-1.78-1.77-2.76-1.64
			L1001.75,198.49z"/>
		<path class="st2" d="M999.37,198.91c0,0,9.88,1.64,10.81-4.53c0.93-6.17,2.83-10.12-3.44-11.42c-6.27-1.31-7.85,0.86-8.67,2.85
			C997.26,187.79,996.82,198.33,999.37,198.91z"/>
		<path class="st4" d="M996.62,183.07c-0.42,1.49,0.71,3.3,2.62,3.89c2.83,0.88,2.2,4.36,3.48,4.31c1.27-0.05,1.79-2,2.93-0.44
			c0.97,1.33-0.81,2.9-0.69,3.63c0.21,1.25,2.17,3.81,3.93,3.68c1.76-0.13,5.07-8.51,4.41-11.11c-0.66-2.59-3.3-5.33-5.8-5.71
			c-2.5-0.38-5.97,0.7-6.77,0.7C999.92,182.03,996.85,182.27,996.62,183.07z"/>
		<path class="st9" d="M1019.57,213.15c-1.43-5.75-5.38-11.78-8.05-11.78c-4.55,0.01-11.09,1.21-13.73,7.72
			c-1.94,4.8-4.54,32.39-1.61,34.36c6.7,4.49,22.24,13.65,25,4.31C1023.71,239.2,1022.05,223.13,1019.57,213.15z"/>
		<path class="st9" d="M1008.52,207.43c-1.3-3.38-5.48-4.54-8.34-2.32c-1.54,1.2-3.43,2.91-5.72,5.34
			c-8.49,9.04-10.22,8.98-11.81,8.8c-1.59-0.19-15.07-3.05-15.07-3.05s-0.69,0.51-1.1,1.33c-0.54,1.1-0.27,1.85-0.27,1.85
			c-0.53-0.34,4.78,3.31,7.41,4.77c3.49,1.92,8.74,3.73,10.83,4.41c0.59,0.19,1.23,0.18,1.82-0.03c3.11-1.12,13.53-5.2,22.02-12.27
			C1010.54,214.4,1009.72,210.56,1008.52,207.43z"/>
		<path class="st6" d="M1011.98,201.43l-1.03-2.32c0,0-9.22,0.75-10.77,6C1000.18,205.11,1007.33,201.54,1011.98,201.43z"/>
	</g>
	<g>
		<g>
			<path class="st0" d="M1034.36,296.3l0.06,0c0.52-0.01,0.92-0.44,0.87-0.92l-3.47-34.68l-3.03,0.27l4.99,34.87
				C1033.82,296.11,1034.07,296.31,1034.36,296.3z"/>
		</g>
		<g>
			<path class="st0" d="M1016.49,296.3l0.06,0c0.52-0.01,0.92-0.44,0.87-0.92l-3.47-34.68l-3.03,0.27l4.99,34.87
				C1015.95,296.11,1016.2,296.31,1016.49,296.3z"/>
		</g>
		<g>
			<path class="st12" d="M982.93,296.3l-0.06,0c-0.52-0.01-0.92-0.44-0.87-0.92l3.47-34.68l3.03,0.27l-4.99,34.87
				C983.47,296.11,983.22,296.31,982.93,296.3z"/>
		</g>
		<path class="st0" d="M1033.38,255.78l3.3-28.97c0.43-4.17-0.96-8.26-6.99-8.58l-10.6-0.65c-6.28-0.26-9.12,4.97-9.91,8.99
			l-6.29,31.84L1033.38,255.78z"/>
		<path class="st12" d="M1030.55,261.2h-44.92c-1.53,0-2.78-1.25-2.78-2.78l0,0c0-1.53,1.25-2.78,2.78-2.78h47.7v2.78
			C1033.33,259.95,1032.08,261.2,1030.55,261.2z"/>
		<path class="st0" d="M1030.55,261.2h-24.89c-1.53,0-2.78-1.25-2.78-2.78v0c0-1.53,1.25-2.78,2.78-2.78h27.67v2.78
			C1033.33,259.95,1032.08,261.2,1030.55,261.2z"/>
	</g>
</g>
</svg>
