<?xml version="1.0" encoding="utf-8"?>
<!-- Generator: Adobe Illustrator 23.0.1, SVG Export Plug-In . SVG Version: 6.00 Build 0)  -->
<svg version="1.1" id="Layer_1" xmlns="http://www.w3.org/2000/svg" xmlns:xlink="http://www.w3.org/1999/xlink" x="0px" y="0px"
	 viewBox="0 0 1920 1080" style="enable-background:new 0 0 1920 1080;" xml:space="preserve">
<style type="text/css">
	.st0{fill:#44403E;}
	.st1{fill:#F47747;}
	.st2{fill:#F6B968;}
	.st3{fill:#EEAA59;}
	.st4{fill:#33302F;}
	.st5{fill:#22201F;}
	.st6{fill:#FFCC90;}
	.st7{fill:#FFE0BC;}
	.st8{fill:#C1E4EA;}
	.st9{fill:#2A7B6D;}
	.st10{fill:#F2EBEC;}
	.st11{fill:#A83A48;}
	.st12{fill:#702730;}
</style>
<g>
	<path class="st0" d="M1283.79,533.04l28.02,0.82c-2.69-14.39-9.33-27.3-19.07-37.45h-8.96V533.04z"/>
	<path class="st1" d="M1207.15,566.21l-41.1-9.2c1.73,13.44,7.2,25.71,15.15,35.88l18.37,6.52L1207.15,566.21z"/>
	<path class="st2" d="M1236.81,530.35c-0.13,1.32,1.07,2.51,2.68,2.67l0,0c1.61,0.16,3.02-0.78,3.15-2.09l2.07-20.89
		c0.13-1.32-1.07-2.51-2.68-2.67l0,0c-1.61-0.16-3.02,0.78-3.15,2.09L1236.81,530.35z"/>
	<path class="st3" d="M1236.89,530.42l-0.01-21.78c0.07-0.71,2.59-1.54,3.23-1.91l-1.96,24.03c-0.03,0.29-0.38,1.37-0.32,1.64
		C1237.19,531.89,1236.81,531.18,1236.89,530.42z"/>
	<path class="st2" d="M1231.29,533.64c-0.08,1.32,1.17,2.47,2.79,2.56l0,0c1.62,0.09,2.99-0.9,3.07-2.22l1.35-21.27
		c0.08-1.32-1.29-2.16-2.91-2.25l0,0c-1.62-0.09-2.99,0.9-3.06,2.22L1231.29,533.64z"/>
	<path class="st3" d="M1231.3,533.55l1.18-21.48c0.07-0.7,1.41-0.7,2.05-1.08l-2.35,23.69c-0.03,0.29,0,0.57,0.06,0.85
		C1231.6,535.02,1231.22,534.31,1231.3,533.55z"/>
	<path class="st2" d="M1225.39,534.13c-0.08,1.32,1.17,2.47,2.78,2.56l0,0c1.62,0.09,2.99-0.9,3.07-2.22l1.23-20.96
		c0.08-1.32-1.17-2.47-2.78-2.56l0,0c-1.61-0.09-2.99,0.9-3.07,2.22L1225.39,534.13z"/>
	<path class="st4" d="M1294.76,528.08c0.21-0.2,0.46-0.33,0.72-0.41l0.1-1.73c0.02-0.36,0.32-0.63,0.68-0.61
		c0.35,0.02,0.63,0.33,0.61,0.68l-0.1,1.73c0.23,0.1,0.44,0.24,0.62,0.44c0.7,0.76,0.66,1.93-0.1,2.63c-0.76,0.7-1.93,0.66-2.63-0.1
		C1293.96,529.96,1294.01,528.78,1294.76,528.08z"/>
	<path class="st4" d="M1301,527.59l0.1-1.73c0.02-0.36,0.33-0.63,0.68-0.61c0.36,0.02,0.63,0.33,0.61,0.68l-0.1,1.73
		c0.23,0.1,0.44,0.24,0.62,0.44c0.7,0.75,0.65,1.93-0.1,2.63c-0.76,0.7-1.93,0.65-2.63-0.1c-0.7-0.75-0.66-1.93,0.1-2.63
		C1300.49,527.8,1300.74,527.67,1301,527.59z"/>
	<path class="st4" d="M1306.59,527.48l0.1-1.73c0.02-0.36,0.32-0.63,0.68-0.61c0.36,0.02,0.63,0.33,0.61,0.68l-0.1,1.73
		c0.23,0.1,0.44,0.24,0.62,0.44c0.7,0.75,0.65,1.93-0.1,2.63c-0.75,0.7-1.93,0.66-2.63-0.1c-0.7-0.76-0.66-1.93,0.1-2.63
		C1306.08,527.69,1306.33,527.56,1306.59,527.48z"/>
	<path class="st5" d="M1302.68,528.29c0.69,0.75,0.65,1.91-0.1,2.6c-0.75,0.69-1.91,0.65-2.6-0.1c-0.69-0.75-0.65-1.91,0.1-2.6
		C1300.83,527.51,1301.99,527.55,1302.68,528.29z"/>
	<path class="st5" d="M1308.23,528.23c0.69,0.75,0.65,1.91-0.1,2.6c-0.74,0.69-1.91,0.65-2.6-0.1c-0.69-0.75-0.65-1.91,0.1-2.6
		C1306.37,527.44,1307.54,527.48,1308.23,528.23z"/>
	<path class="st5" d="M1297.18,528.36c0.69,0.75,0.65,1.91-0.1,2.6c-0.74,0.69-1.91,0.65-2.6-0.09c-0.69-0.75-0.65-1.91,0.1-2.6
		C1295.33,527.58,1296.49,527.62,1297.18,528.36z"/>
	<path class="st6" d="M1245.15,500.77c-1.63,0.58-20.8,10.91-21.33,13.67c-0.45,2.35-0.28,16.94-0.16,20.95c0,0.13,0,0.5,0,0.5
		c0,1.59,1.46,2.88,3.27,2.88c1.8,0,3.27-1.29,3.27-2.88v-16.76c0.19-0.55,0.37-0.93,0.55-1.07c1.11-0.96,10.43-5.33,14.9-5.62
		l5.56-6.19l-5.85-5.52C1245.26,500.74,1245.19,500.76,1245.15,500.77z"/>
	<path class="st7" d="M1225.87,536.24c0,0-0.43,0.22-1,0.22l0,0c0,0,0,0,0,0c0,0,0,0-0.01,0l0,0c-0.57,0-1.02-0.2-1.02-0.2
		c-0.06-1.36-0.17-3.39,0.18-4.18c0.16-0.35,0.39-0.46,0.61-0.45l0,0c0,0,0,0,0,0c0,0,0.01,0,0.01,0v0
		c0.22-0.01,0.46,0.09,0.65,0.44C1225.73,532.85,1225.81,534.88,1225.87,536.24z"/>
	<path class="st7" d="M1224.38,513.82c-0.06,0.1-0.03,0.24,0.07,0.3l1.16,0.8c0.1,0.07,0.23,0.04,0.3-0.06l0,0
		c0.06-0.1,0.03-0.24-0.07-0.3l-1.16-0.8C1224.58,513.69,1224.45,513.72,1224.38,513.82L1224.38,513.82z"/>
	<path class="st7" d="M1223.91,514.56c-0.06,0.1-0.03,0.24,0.07,0.31l1.16,0.79c0.1,0.07,0.23,0.04,0.3-0.06l0,0
		c0.06-0.1,0.03-0.24-0.07-0.3l-1.16-0.8C1224.1,514.44,1223.97,514.46,1223.91,514.56L1223.91,514.56z"/>
	
		<rect x="1220.78" y="506.2" transform="matrix(0.1783 -0.984 0.984 0.1783 486.1683 1656.4999)" class="st8" width="28.22" height="61.94"/>
	<path class="st9" d="M1260.64,554l-55.77-10.1l4.27-23.58l55.77,10.1L1260.64,554z M1207.37,542.17l51.53,9.34l3.51-19.34
		l-51.53-9.34L1207.37,542.17z"/>
	<path class="st9" d="M1220.9,534.63c-0.35,1.97-2.24,3.27-4.21,2.92c-1.97-0.36-3.27-2.24-2.92-4.21c0.36-1.97,2.24-3.27,4.21-2.92
		C1219.95,530.78,1221.26,532.66,1220.9,534.63z"/>
	<path class="st9" d="M1256.01,540.99c-0.36,1.97-2.24,3.27-4.21,2.92c-1.97-0.36-3.28-2.24-2.92-4.21
		c0.36-1.97,2.24-3.27,4.21-2.92C1255.06,537.14,1256.37,539.02,1256.01,540.99z"/>
	<path class="st9" d="M1243.21,538.67c-0.83,4.59-5.23,7.64-9.82,6.81c-4.59-0.83-7.64-5.23-6.81-9.82
		c0.83-4.59,5.23-7.64,9.82-6.81C1240.99,529.68,1244.04,534.08,1243.21,538.67z"/>
	<path class="st6" d="M1245.35,500.73l0.29,11.71c0.93-0.06,1.65,0.05,2.04,0.4c2.99,2.71,2.67,4.93,0.51,8.39
		c-1.26,2.02-2.96,4.02-5,7.83c-4.49,8.41-1.44,8.73,0.13,9.72c2.82,1.79,7.52-8.65,11.4-11.53c5.26-3.89,12.23-8.71,12.23-8.71
		h16.83v-17.78C1283.79,500.77,1248.67,500.22,1245.35,500.73z"/>
	<path class="st7" d="M1245.35,537.16c0,0-0.84-0.37-1.74-1.06l0,0c0,0,0,0-0.01-0.01c0,0-0.01,0-0.01-0.01l0,0
		c-0.9-0.69-1.48-1.4-1.48-1.4c0.83-1.08,2.04-2.71,3.15-2.86c0.49-0.07,0.94,0.14,1.28,0.42h0c0,0,0,0,0.01,0.01
		c0,0,0.01,0.01,0.01,0.01l0,0c0.35,0.25,0.67,0.64,0.74,1.13C1247.44,534.49,1246.18,536.08,1245.35,537.16z"/>
	<path class="st7" d="M1248.54,525.6c-0.06,0.1,0.05,0.28,0.26,0.42l2.37,1.54c0.21,0.13,0.42,0.16,0.49,0.06l0,0
		c0.07-0.1-0.05-0.29-0.26-0.42l-2.37-1.54C1248.83,525.53,1248.61,525.5,1248.54,525.6L1248.54,525.6z"/>
	<path class="st7" d="M1248.06,526.34c-0.06,0.1,0.05,0.29,0.25,0.42l2.37,1.54c0.21,0.13,0.43,0.16,0.49,0.07l0,0
		c0.06-0.1-0.05-0.29-0.26-0.42l-2.37-1.54C1248.34,526.27,1248.12,526.24,1248.06,526.34L1248.06,526.34z"/>
	<rect x="1274.57" y="497.39" class="st10" width="9.22" height="28.1"/>
	<path class="st2" d="M1245.89,579.76c-0.7,1.15-2.19,1.51-3.34,0.82l0,0c-1.15-0.7-1.51-2.19-0.82-3.34l4.79-7.9
		c0.7-1.15,2.19-1.52,3.34-0.82l0,0c1.15,0.7,1.51,2.19,0.82,3.34L1245.89,579.76z"/>
	<path class="st2" d="M1235.94,584.59c-1.24,0.52-5.79,1.25-6.31,0.01l-1.08-1.15c-0.52-1.24-2.21-5.24-1.11-4.47
		c5.61,3.89,15.12-2.47,15.12-2.47c1.24-0.52,2.66,0.06,3.18,1.29l0,0c0.52,1.24-0.05,2.66-1.29,3.18L1235.94,584.59z"/>
	<path class="st3" d="M1238.66,582.44l8-4.43c0.27-0.15,0.5-0.35,0.69-0.57c0.25-0.21,0.46-0.47,0.6-0.78l2.81-7.13
		c0.19-0.4-3.98,6.48-3.98,6.48l-12.32,7.58C1236.01,583.44,1237.94,582.83,1238.66,582.44z"/>
	<path class="st2" d="M1251.88,578.84c-0.56,1.22-2,1.76-3.22,1.21l0,0c-1.22-0.56-1.76-2-1.21-3.22l3.82-8.41
		c0.56-1.22,2-1.76,3.22-1.21l0,0c1.22,0.55,1.76,2,1.21,3.22L1251.88,578.84z"/>
	<path class="st2" d="M1242.56,584.82c-1.17,0.67-5.6,1.92-6.27,0.76l-1.21-1.01c-0.66-1.17,0.5-1.47,1.67-2.14l11.42-6.41
		c1.17-0.67,2.65-0.26,3.32,0.91l0,0c0.67,1.17,0.26,2.65-0.91,3.32L1242.56,584.82z"/>
	<path class="st3" d="M1242.64,582.7l8.01-4.42c0.27-0.15,0.5-0.35,0.69-0.57c0.25-0.21,0.45-0.47,0.6-0.78l3.84-8.07
		c0.19-0.4,0.25-0.83,0.2-1.24l-5.2,8.67l-12.32,7.58C1239.99,583.7,1241.92,583.09,1242.64,582.7z"/>
	<path class="st2" d="M1256.08,578.88c-0.56,1.22-2,1.76-3.22,1.21l0,0c-1.22-0.55-1.76-2-1.21-3.22l3.82-8.41
		c0.56-1.22,2-1.76,3.22-1.21l0,0c1.22,0.55,1.76,2,1.21,3.22L1256.08,578.88z"/>
	<path class="st2" d="M1246.77,584.86c-1.17,0.67-5.6,1.92-6.27,0.76l-1.2-1.01c-0.67-1.16,0.5-1.47,1.67-2.14l11.42-6.41
		c1.16-0.67,2.65-0.26,3.31,0.91l0,0c0.67,1.16,0.26,2.65-0.9,3.32L1246.77,584.86z"/>
	<path class="st6" d="M1253.81,585.56c-1.28,1.05-3.33,0.68-4.58-0.84l0,0c-1.25-1.52-0.95-3.42,0.33-4.47l10.65-8.17
		c1.59-1.06,3.75-1.79,4.83-0.38c1.4,1.81-0.2,3.76-2.01,5.45L1253.81,585.56z"/>
	<path class="st6" d="M1249.55,580.24c-1.37,0.69-13.87,3.07-15.36,0.85c-1.96-2.91-1.22-4.71,1.32-7.17
		c1.48-1.44,3.33-2.76,5.85-5.55c5.54-6.14,3.18-7.23,1.92-8.21c-2.28-1.78-8.14,5.72-12.02,7.33c-5.24,2.17-12.13,4.78-12.13,4.78
		l-12-2.83l-3.24,14.98c0,0,28.39,7.52,29.89,7.38c1.35-0.13,16.1-3.5,19.97-6.19l-3.88-5.66
		C1249.76,580.09,1249.65,580.19,1249.55,580.24z"/>
	
		<rect x="1195.15" y="576.51" transform="matrix(0.223 -0.9748 0.9748 0.223 372.6334 1629.0751)" class="st10" width="26.12" height="8.57"/>
	<path class="st11" d="M1195.02,592.29c-0.14-0.23-0.32-0.42-0.53-0.56l0.38-1.57c0.08-0.32-0.12-0.65-0.44-0.73
		c-0.32-0.08-0.65,0.12-0.73,0.45l-0.38,1.56c-0.23,0.03-0.46,0.1-0.67,0.22c-0.83,0.48-1.11,1.54-0.63,2.37
		c0.48,0.83,1.54,1.11,2.37,0.63C1195.22,594.17,1195.5,593.11,1195.02,592.29z"/>
	<path class="st11" d="M1189.61,590.15l0.38-1.57c0.08-0.32-0.12-0.65-0.44-0.72c-0.32-0.08-0.65,0.12-0.73,0.44l-0.38,1.56
		c-0.23,0.03-0.46,0.1-0.67,0.22c-0.83,0.48-1.11,1.54-0.63,2.37c0.48,0.83,1.54,1.11,2.37,0.62c0.83-0.48,1.11-1.54,0.63-2.36
		C1190,590.48,1189.82,590.3,1189.61,590.15z"/>
	<path class="st11" d="M1184.66,588.54l0.38-1.57c0.08-0.32-0.12-0.65-0.44-0.73c-0.32-0.08-0.65,0.12-0.72,0.44l-0.38,1.56
		c-0.23,0.03-0.46,0.1-0.67,0.22c-0.83,0.48-1.11,1.54-0.62,2.37c0.48,0.83,1.54,1.11,2.37,0.62c0.83-0.48,1.11-1.54,0.63-2.37
		C1185.06,588.87,1184.88,588.68,1184.66,588.54z"/>
	<path class="st12" d="M1187.92,590.33c-0.82,0.48-1.09,1.52-0.62,2.34c0.48,0.82,1.52,1.09,2.34,0.62c0.82-0.48,1.1-1.52,0.62-2.34
		C1189.78,590.13,1188.74,589.85,1187.92,590.33z"/>
	<path class="st12" d="M1183.01,588.76c-0.82,0.48-1.1,1.52-0.62,2.34c0.47,0.82,1.52,1.09,2.34,0.62c0.82-0.48,1.09-1.53,0.62-2.34
		C1184.87,588.56,1183.82,588.29,1183.01,588.76z"/>
	<path class="st12" d="M1192.79,591.88c-0.82,0.48-1.09,1.53-0.62,2.34c0.47,0.82,1.52,1.1,2.34,0.62c0.82-0.48,1.09-1.53,0.62-2.34
		C1194.65,591.68,1193.61,591.41,1192.79,591.88z"/>
	<path class="st7" d="M1243.55,563.26c0,0-0.39-0.59-1.03-1.2l0,0c0,0,0,0,0,0c0,0,0,0-0.01-0.01l0,0c-0.64-0.6-1.25-0.96-1.25-0.96
		c-0.72,0.76-1.82,1.9-1.8,2.76c0.01,0.38,0.23,0.71,0.48,0.93v0c0,0,0,0,0,0.01c0,0,0,0.01,0.01,0.01l0,0
		c0.24,0.24,0.57,0.43,0.96,0.42C1241.76,565.19,1242.82,564.03,1243.55,563.26z"/>
	<path class="st7" d="M1264.79,574.74c0,0-0.2-0.41-0.61-0.78l0,0c0,0,0,0,0,0c0,0,0,0-0.01,0l0,0c-0.4-0.37-0.84-0.54-0.84-0.54
		c-0.73,0.76-1.83,1.89-1.98,2.58c-0.06,0.31,0.05,0.53,0.21,0.67h0c0,0,0,0,0,0c0,0,0,0,0,0l0,0c0.15,0.15,0.38,0.25,0.7,0.16
		C1262.98,576.65,1264.06,575.5,1264.79,574.74z"/>
	<path class="st7" d="M1234.7,567.39c0.08-0.07,0.27,0,0.42,0.17l1.76,1.95c0.15,0.17,0.21,0.37,0.13,0.44l0,0
		c-0.08,0.07-0.27,0-0.42-0.18l-1.76-1.95C1234.68,567.67,1234.62,567.47,1234.7,567.39L1234.7,567.39z"/>
	<path class="st7" d="M1235.31,566.85c0.08-0.07,0.27,0,0.42,0.17l1.76,1.95c0.15,0.17,0.21,0.37,0.13,0.44l0,0
		c-0.08,0.07-0.27-0.01-0.43-0.17l-1.76-1.95C1235.29,567.11,1235.23,566.91,1235.31,566.85L1235.31,566.85z"/>
	<path class="st7" d="M1251.42,583.6c0.09-0.06,0.24,0.01,0.33,0.15l1.07,1.64c0.09,0.14,0.09,0.31,0,0.36l0,0
		c-0.09,0.06-0.24-0.01-0.33-0.15l-1.07-1.64C1251.32,583.82,1251.33,583.65,1251.42,583.6L1251.42,583.6z"/>
	<path class="st7" d="M1252.11,583.16c0.09-0.06,0.24,0.01,0.34,0.15l1.07,1.64c0.09,0.14,0.09,0.31,0,0.36l0,0
		c-0.09,0.06-0.24-0.01-0.33-0.15l-1.07-1.64C1252.02,583.38,1252.02,583.22,1252.11,583.16L1252.11,583.16z"/>
</g>
</svg>
