<svg id="Layer_1" data-name="Layer 1" xmlns="http://www.w3.org/2000/svg" viewBox="0 0 132.92 296.12"><defs><style>.cls-1{fill:#1a2e35;}.cls-2{fill:#375a64;}.cls-3{fill:#a26760;}.cls-4{fill:#7b4b45;}.cls-5{fill:#ff735d;}.cls-6{opacity:0.3;}.cls-7{fill:none;stroke:#44555b;stroke-miterlimit:10;stroke-width:0.05px;}.cls-8{fill:#e1e1e1;}</style></defs><title>howto-1</title><path class="cls-1" d="M1300.84,726.39s8.37,13.89,9.61,27.11-7.59,120-7.59,120H1198.8s27.87-131.9,37-140.36l.62-8.78Z" transform="translate(-1190.93 -577.41)"/><path class="cls-2" d="M1305.28,737a16.28,16.28,0,0,1,0,1.86,22.45,22.45,0,0,1-1,5.24,24.07,24.07,0,0,1-3.89,7.49,22.63,22.63,0,0,1-3.69,3.79,37.3,37.3,0,0,1-4.92,3.3c-1.8,1-3.71,2.06-5.63,3.24a24.3,24.3,0,0,0-5.44,4.37,20,20,0,0,0-3.71,6.43,41.05,41.05,0,0,0-1.69,7.77c-.37,2.71-.61,5.51-1,8.36a39.41,39.41,0,0,1-2,8.58,19.38,19.38,0,0,1-5,7.57,29.64,29.64,0,0,1-7.93,5c-5.76,2.64-11.77,4.32-16.86,7.4a22.3,22.3,0,0,0-6.44,5.76,26.29,26.29,0,0,0-3.65,7.47c-1.67,5.2-2.37,10.39-3.74,15.09-.18.58-.36,1.16-.53,1.73l-.6,1.69a33.88,33.88,0,0,1-1.43,3.17c-.48,1-1.1,2-1.65,2.9l-.92,1.32-.45.66-.5.61a35.32,35.32,0,0,1-15.75,11.38,32.33,32.33,0,0,1-5.16,1.38l-1.37.2c-.31,0-.47.06-.47.06l.46-.1,1.37-.25a35.25,35.25,0,0,0,5.12-1.44,35.61,35.61,0,0,0,15.57-11.42l.48-.61.45-.64.9-1.32c.55-.94,1.15-1.86,1.63-2.88a34.35,34.35,0,0,0,1.4-3.14c.19-.55.39-1.11.59-1.67s.34-1.15.52-1.73c1.34-4.67,2-9.86,3.71-15.11a26.53,26.53,0,0,1,3.69-7.59,22.84,22.84,0,0,1,6.55-5.88c5.16-3.12,11.18-4.81,16.9-7.43a29.47,29.47,0,0,0,7.82-4.94,19,19,0,0,0,4.94-7.41,38.68,38.68,0,0,0,2-8.48c.38-2.84.62-5.64,1-8.36a40.45,40.45,0,0,1,1.73-7.84,20.35,20.35,0,0,1,3.79-6.55,24.59,24.59,0,0,1,5.54-4.41c1.93-1.18,3.86-2.19,5.65-3.23a37.16,37.16,0,0,0,4.9-3.24,22.21,22.21,0,0,0,3.67-3.73,23.94,23.94,0,0,0,3.92-7.39,23.71,23.71,0,0,0,1.07-5.2c.07-.6.07-1.07.09-1.38S1305.28,737,1305.28,737Z" transform="translate(-1190.93 -577.41)"/><path class="cls-2" d="M1308.2,746.69s.06.14.16.41a9.75,9.75,0,0,1,.35,1.25,12.15,12.15,0,0,1-.09,5,17.72,17.72,0,0,1-3.4,7.09,45.38,45.38,0,0,1-7.55,7.24c-3,2.45-6.36,5.09-9,8.81a17.13,17.13,0,0,0-2.77,6.36,50.18,50.18,0,0,0-.8,7.4,38.74,38.74,0,0,1-1.09,7.81,34.09,34.09,0,0,1-3,7.67,35,35,0,0,1-11.54,12.7c-5,3.27-10.66,4.85-15.62,7.33a26,26,0,0,0-6.71,4.53,21.28,21.28,0,0,0-4.39,6.38c-2.11,4.64-3,9.47-4.16,13.86a58.12,58.12,0,0,1-2,6.3,27,27,0,0,1-2.87,5.38,22.48,22.48,0,0,1-3.7,4.12c-.64.61-1.34,1.1-2,1.61s-1.34.92-2,1.29a25.08,25.08,0,0,1-7.35,2.86,24.26,24.26,0,0,1-5,.52l-1.3-.06-.44,0h.44l1.3,0a26.94,26.94,0,0,0,4.93-.6,25.11,25.11,0,0,0,7.26-2.91c.67-.36,1.31-.84,2-1.29s1.33-1,2-1.6a21.94,21.94,0,0,0,3.64-4.09,27.16,27.16,0,0,0,2.81-5.33,57.39,57.39,0,0,0,2-6.26c1.16-4.39,2-9.24,4.14-13.95a21.61,21.61,0,0,1,4.46-6.5,26.45,26.45,0,0,1,6.82-4.62c5-2.5,10.63-4.08,15.57-7.3a34.89,34.89,0,0,0,11.41-12.55,34.15,34.15,0,0,0,3-7.57,38.41,38.41,0,0,0,1.1-7.73,51.44,51.44,0,0,1,.82-7.46,17.65,17.65,0,0,1,2.84-6.48c2.66-3.77,6.09-6.41,9.07-8.84a46,46,0,0,0,7.55-7.15,17.84,17.84,0,0,0,3.43-7,12.54,12.54,0,0,0,.17-4.92C1308.41,747.25,1308.17,746.7,1308.2,746.69Z" transform="translate(-1190.93 -577.41)"/><path class="cls-3" d="M1202.58,672.41s6.75,46.54,17.13,51.07c5.23,2.28,9.43.31,12.3-5s10.17-43.32,10.17-43.32l-20.19-.47-.76,7.57-7.78-14.49Z" transform="translate(-1190.93 -577.41)"/><path class="cls-4" d="M1232.36,702.8a1.71,1.71,0,0,0-.18-.37c-.14-.27-.33-.61-.55-1-.52-.93-1.21-2.19-2.06-3.73-1.74-3.15-4.13-7.51-6.74-12.34l-6.62-12.41c-.82-1.55-1.5-2.82-2-3.76l-.56-1a1.67,1.67,0,0,0-.21-.34,2.19,2.19,0,0,0,.14.37c.13.28.3.63.49,1.06.43.91,1.08,2.21,1.89,3.82,1.62,3.22,3.91,7.63,6.52,12.46s5,9.18,6.84,12.3c.9,1.56,1.64,2.81,2.17,3.67l.62,1C1232.26,702.69,1232.34,702.81,1232.36,702.8Z" transform="translate(-1190.93 -577.41)"/><polygon class="cls-5" points="111.81 105.88 106.05 131.67 108.77 148.97 45.41 148.97 49.56 68.18 65.35 66.83 103.95 73.35 111.81 105.88"/><path class="cls-5" d="M1286.62,650.3s16.51-1.52,24.37,9.71c4.81,6.87,11.56,22.65,11.56,22.65l-22,3.79Z" transform="translate(-1190.93 -577.41)"/><g class="cls-6"><path d="M1296.63,683.6a13.38,13.38,0,0,0-12.22-7.52,3.44,3.44,0,0,0-2.92,1.22c-.62,1-.26,2.26.16,3.33a6.31,6.31,0,0,0,2.63,3.56,20.1,20.1,0,0,0,3.19.79,10,10,0,0,1,3.41,2.15,9.3,9.3,0,0,1,2.23,2.37A9.17,9.17,0,0,1,1294,692c1.08,4.22,1.93,12.91,3,17.13l1.18-3.63c0-3.47,0-6.94.08-10.4C1298.28,691.16,1298.28,687.12,1296.63,683.6Z" transform="translate(-1190.93 -577.41)"/></g><path class="cls-7" d="M1276.93,705.09" transform="translate(-1190.93 -577.41)"/><path class="cls-7" d="M1292,703.13" transform="translate(-1190.93 -577.41)"/><path class="cls-1" d="M1276.93,705.09c0-.06.86.09,2.25.2a25.9,25.9,0,0,0,10.67-1.4c1.31-.45,2.1-.82,2.13-.76s-.18.14-.52.33a14.79,14.79,0,0,1-1.51.69,22.12,22.12,0,0,1-5.31,1.38,21.89,21.89,0,0,1-5.49,0,13.83,13.83,0,0,1-1.64-.29C1277.13,705.18,1276.92,705.12,1276.93,705.09Z" transform="translate(-1190.93 -577.41)"/><path class="cls-1" d="M1249.29,706.23c0-.11,9,2.45,20,5.7s19.94,6,19.91,6.08-9-2.45-20-5.71S1249.26,706.33,1249.29,706.23Z" transform="translate(-1190.93 -577.41)"/><g class="cls-6"><path d="M1277.39,705.2a7.94,7.94,0,0,0,7.43,3.46,7.18,7.18,0,0,0,6-4.9A26.33,26.33,0,0,1,1277.39,705.2Z" transform="translate(-1190.93 -577.41)"/></g><g class="cls-6"><path d="M1286.81,717.22l-.23.09c-5.65,1-11,0-16.38-1.93a98.26,98.26,0,0,1-15.48-7.52Z" transform="translate(-1190.93 -577.41)"/></g><path class="cls-5" d="M1240.49,645.59s-10.45,1.28-14.5,10.2a155.76,155.76,0,0,0-7,19.59l21.3,4.79s3.35-18,3.61-24.38C1244.16,648.83,1244.43,645.39,1240.49,645.59Z" transform="translate(-1190.93 -577.41)"/><path class="cls-1" d="M1238.48,683a45,45,0,0,1-.18-6,46.9,46.9,0,0,1,.2-6,45,45,0,0,1,.18,6A46.9,46.9,0,0,1,1238.48,683Z" transform="translate(-1190.93 -577.41)"/><path class="cls-1" d="M1250.05,588.43a28.54,28.54,0,0,1,22.11-11c5-.08,7.11,1,10.73,1.94a15.83,15.83,0,0,1,9,6c2.56,3.64,4.71,7.71,5.2,12.13a74.63,74.63,0,0,1,.65,13.68,25,25,0,0,1-4.26,12.86l-11.6,2c-6.41.22-12.91.43-19.15-1s-12.3-4.82-15.65-10.29C1242.48,607.1,1244.41,595.32,1250.05,588.43Z" transform="translate(-1190.93 -577.41)"/><path class="cls-8" d="M1290,630.54s.18.28.69.61a5.62,5.62,0,0,0,2.39.8,6.24,6.24,0,0,0,3.69-.74A6.19,6.19,0,0,0,1299,623a6.16,6.16,0,0,0-2.81-2.5,5.55,5.55,0,0,0-2.47-.51,1.88,1.88,0,0,0-.91.17,8.84,8.84,0,0,1,3.17.78,5.91,5.91,0,0,1,2.46,2.37,5.51,5.51,0,0,1,.43,4.09,5.58,5.58,0,0,1-2.43,3.31,5.89,5.89,0,0,1-3.32.8A8.68,8.68,0,0,1,1290,630.54Z" transform="translate(-1190.93 -577.41)"/><path class="cls-1" d="M1238.8,622.11a8.66,8.66,0,0,1,3.93-6.53,6.24,6.24,0,0,1,7.32.63l1.83,2.17a7.49,7.49,0,0,1,4.3,7.55,8.21,8.21,0,0,1-5.69,6.72,9.08,9.08,0,0,1-8.64-2.09A10.16,10.16,0,0,1,1238.8,622.11Z" transform="translate(-1190.93 -577.41)"/><path class="cls-2" d="M1241.1,629.93a4,4,0,0,1-.62-2.31c.1-1.48,1.17-3.43,2.65-5.21a15.65,15.65,0,0,1,4.65-3.73c1.36-.73,2.3-1,2.27-1.09a6.16,6.16,0,0,0-2.45.73,13.9,13.9,0,0,0-4.9,3.72,13.35,13.35,0,0,0-1.88,2.85,6.29,6.29,0,0,0-.74,2.72,3.22,3.22,0,0,0,.52,1.84C1240.86,629.82,1241.08,630,1241.1,629.93Z" transform="translate(-1190.93 -577.41)"/><path class="cls-2" d="M1246.71,633.35c.19,0-.59-3.51.52-7.66s3.46-6.83,3.3-6.93a6.53,6.53,0,0,0-1.53,1.72,16.16,16.16,0,0,0-2.78,10.62A6.32,6.32,0,0,0,1246.71,633.35Z" transform="translate(-1190.93 -577.41)"/><path class="cls-3" d="M1281.92,644.84c-.08-4.07-.17-7.4-.17-7.38s9.46-1,12.07-13.17c1.3-6,1.54-16,1.47-24.2-.06-7.36-6.33-17.38-15.42-17.42l-4-.47-15.46,6.15a4.31,4.31,0,0,0-4.09,4.15l-.46,51.79,15,36.29L1281.49,666Z" transform="translate(-1190.93 -577.41)"/><path class="cls-4" d="M1275.63,621.46a2.61,2.61,0,0,1,.9-1.6,2.65,2.65,0,0,1,3.2-.18,3.54,3.54,0,0,1,1.34,3.32h0a3.22,3.22,0,0,1-2.3,1.33,3.09,3.09,0,0,1-.43,0,2.85,2.85,0,0,1-1.95-.77A2.58,2.58,0,0,1,1275.63,621.46Z" transform="translate(-1190.93 -577.41)"/><path class="cls-1" d="M1289.28,608.47a1.57,1.57,0,0,1-1.6,1.5,1.51,1.51,0,0,1-1.54-1.5,1.58,1.58,0,0,1,1.6-1.5A1.49,1.49,0,0,1,1289.28,608.47Z" transform="translate(-1190.93 -577.41)"/><path class="cls-1" d="M1292.28,604.63c-.2.2-1.34-.75-3-.83s-3,.68-3.14.47.13-.46.69-.82a4.34,4.34,0,0,1,2.53-.63,4.12,4.12,0,0,1,2.4.92C1292.23,604.17,1292.38,604.55,1292.28,604.63Z" transform="translate(-1190.93 -577.41)"/><path class="cls-1" d="M1281.68,617.42a10.71,10.71,0,0,1,2.76-.34c.44,0,.85-.09.94-.38a2.2,2.2,0,0,0-.22-1.29l-1.09-3.35c-1.52-4.77-2.59-8.68-2.39-8.74s1.57,3.75,3.09,8.52c.36,1.18.71,2.3,1,3.37a2.58,2.58,0,0,1,.13,1.71,1.12,1.12,0,0,1-.75.59,2.79,2.79,0,0,1-.73.06A10.62,10.62,0,0,1,1281.68,617.42Z" transform="translate(-1190.93 -577.41)"/><path class="cls-4" d="M1281.75,637.46a31.14,31.14,0,0,1-16.14-5.27s3.89,8.72,16.2,8.24Z" transform="translate(-1190.93 -577.41)"/><path class="cls-1" d="M1276.65,618.32c.27,0,.17,1.83,1.67,3.21s3.46,1.3,3.46,1.55-.46.33-1.28.31a4.56,4.56,0,0,1-2.89-1.19,3.94,3.94,0,0,1-1.29-2.69C1276.29,618.74,1276.52,618.3,1276.65,618.32Z" transform="translate(-1190.93 -577.41)"/><path class="cls-1" d="M1292,598.27c-.31.4-1.59.05-3.1.1s-2.79.37-3.1,0c-.14-.19,0-.58.59-1a4.82,4.82,0,0,1,5-.06C1291.89,597.69,1292.08,598.08,1292,598.27Z" transform="translate(-1190.93 -577.41)"/><path class="cls-1" d="M1269.64,608a1.57,1.57,0,0,0,1.49,1.61,1.49,1.49,0,0,0,1.64-1.38,1.56,1.56,0,0,0-1.48-1.61A1.5,1.5,0,0,0,1269.64,608Z" transform="translate(-1190.93 -577.41)"/><path class="cls-1" d="M1269.15,604c.2.21,1.4-.65,3.09-.62s2.91.9,3.1.7-.1-.46-.63-.87a4.39,4.39,0,0,0-2.48-.81,4.13,4.13,0,0,0-2.46.75C1269.24,603.57,1269.06,603.94,1269.15,604Z" transform="translate(-1190.93 -577.41)"/><path class="cls-1" d="M1268.18,600.4c.33.39,1.64,0,3.21,0s2.89.31,3.2-.08c.14-.2-.06-.58-.64-1a5.14,5.14,0,0,0-5.16,0C1268.23,599.82,1268,600.21,1268.18,600.4Z" transform="translate(-1190.93 -577.41)"/><path class="cls-3" d="M1258.38,613.06c0-.92-.89-3.12-1.78-3.31-2.38-.51-6.72-.55-7.09,5.55-.52,8.33,8,7.13,8,6.89S1258.22,616.2,1258.38,613.06Z" transform="translate(-1190.93 -577.41)"/><path class="cls-4" d="M1255.39,619s-.16.1-.41.19a1.43,1.43,0,0,1-1.09,0c-.86-.38-1.51-1.82-1.46-3.33a4.93,4.93,0,0,1,.53-2.05,1.69,1.69,0,0,1,1.17-1,.75.75,0,0,1,.83.45c.1.24,0,.41.08.42s.18-.13.14-.47a1,1,0,0,0-.3-.55,1.14,1.14,0,0,0-.79-.26,2.07,2.07,0,0,0-1.6,1.2,5,5,0,0,0-.64,2.29c0,1.69.71,3.31,1.9,3.73a1.56,1.56,0,0,0,1.34-.14C1255.36,619.2,1255.41,619,1255.39,619Z" transform="translate(-1190.93 -577.41)"/><path class="cls-1" d="M1256.26,609.77l2.12,2.2c9.15-8.75,27-30.67,26-29.37a26.63,26.63,0,0,0-13.06-1.41c-6.8,1.15-19.7,4.56-19.51,12.58S1256.26,609.77,1256.26,609.77Z" transform="translate(-1190.93 -577.41)"/><path class="cls-8" d="M1256.46,630.54s-.19.28-.69.61a5.67,5.67,0,0,1-2.39.8,6.21,6.21,0,0,1-3.69-.74,6.21,6.21,0,0,1-2.24-8.26,6.21,6.21,0,0,1,2.81-2.5,5.57,5.57,0,0,1,2.47-.51,1.83,1.83,0,0,1,.91.17,8.86,8.86,0,0,0-3.16.78,6,6,0,0,0-2.47,2.37,5.7,5.7,0,0,0,2,7.4,5.92,5.92,0,0,0,3.33.8A8.68,8.68,0,0,0,1256.46,630.54Z" transform="translate(-1190.93 -577.41)"/><path class="cls-2" d="M1244.15,607.93a2.48,2.48,0,0,1,.13-.48,8.48,8.48,0,0,1,.57-1.31,12,12,0,0,1,3.48-3.92,22.66,22.66,0,0,1,7-3.38c2.79-.91,5.94-1.61,9-2.93a40.66,40.66,0,0,0,8.24-4.62,42.72,42.72,0,0,0,5.81-5.08,43.7,43.7,0,0,0,3.36-4l.84-1.15a2,2,0,0,1,.31-.38,2.91,2.91,0,0,1-.24.43c-.18.28-.42.69-.77,1.2a39.29,39.29,0,0,1-3.28,4.1,41,41,0,0,1-5.8,5.19,40.12,40.12,0,0,1-8.3,4.69,92.32,92.32,0,0,1-9.07,2.92,22.92,22.92,0,0,0-7,3.24,12.59,12.59,0,0,0-3.52,3.76C1244.38,607.28,1244.19,608,1244.15,607.93Z" transform="translate(-1190.93 -577.41)"/><path class="cls-2" d="M1246.58,609.25a4.32,4.32,0,0,1,.32-1.83,8.56,8.56,0,0,1,3.13-3.92,19,19,0,0,1,7-2.73,41,41,0,0,0,8.64-2.74,36.52,36.52,0,0,0,7.71-4.76,37.81,37.81,0,0,0,5.28-5.19,39.35,39.35,0,0,0,3-4.05l.7-1.17a2.56,2.56,0,0,1,.27-.39s0,.16-.19.44-.38.72-.64,1.21a33.76,33.76,0,0,1-2.86,4.15,35.69,35.69,0,0,1-13,10.15,40.82,40.82,0,0,1-8.73,2.74,19,19,0,0,0-6.87,2.59,8.55,8.55,0,0,0-3.15,3.73A8.85,8.85,0,0,0,1246.58,609.25Z" transform="translate(-1190.93 -577.41)"/><path class="cls-3" d="M1203.42,677c-.47-.17-1.08-6.81-1.08-6.81s-6.63-5.3-7.54-7.46-.77-7.3-.77-7.3L1204.9,648s6.42,5.75,8.1,8c.94,1.26,1.67,4.75,2.13,7.57a29.83,29.83,0,0,1,.28,7.25l-.17,1.87S1210.87,679.72,1203.42,677Z" transform="translate(-1190.93 -577.41)"/><path class="cls-3" d="M1195.3,664a28.59,28.59,0,0,1-2.22-2.2c-1.41-1.52-3-2.95-1.65-4.56a2.31,2.31,0,0,1,1.7-.94s-.8-1.42-.1-2.31a2.07,2.07,0,0,1,1.72-.8s-1.06-2-.08-3.41a3.36,3.36,0,0,1,3.28-1.29s-4.41-9-4.67-9.43c-1-1.7-.9-3.55,1.07-3.76.73-.07,1.35.5,3.22,3.26s5,7.5,5,7.5,3.42,2.9,5.13,4.52,5.3,5.43,5.9,6.56c1.53,2.94,1.2,7.69,1.2,7.69l-12.46,5.33S1196.11,664.7,1195.3,664Z" transform="translate(-1190.93 -577.41)"/><path class="cls-4" d="M1193.53,656.59a11.4,11.4,0,0,1,1.48,1l1.56,1.17a6.1,6.1,0,0,1,.89.76,2,2,0,0,1,.59,1.16,1.28,1.28,0,0,1-.46,1.23,1.7,1.7,0,0,1-1.19.27,5.15,5.15,0,0,1-1-.22l-.87-.26c-.53-.18-1-.34-1.24-.46s-.44-.2-.43-.22.66.19,1.72.48a10.94,10.94,0,0,0,1.88.42,1.47,1.47,0,0,0,1-.23,1,1,0,0,0,.35-1,1.79,1.79,0,0,0-.51-1,6.53,6.53,0,0,0-.85-.74l-1.52-1.22A12.08,12.08,0,0,1,1193.53,656.59Z" transform="translate(-1190.93 -577.41)"/><path class="cls-4" d="M1204.37,653.93a4.55,4.55,0,0,1-.59-2,4.61,4.61,0,0,1,.13-2.12c.08,0,0,1,.15,2.09S1204.45,653.91,1204.37,653.93Z" transform="translate(-1190.93 -577.41)"/><path class="cls-3" d="M1210.4,654.84a9,9,0,0,0-5.06-.68,17,17,0,0,0-4.91,1.56c-1.26.59-2.61,1.46-2.79,2.83a3,3,0,0,0,2.51,3,6.84,6.84,0,0,0,4.11-.81,17.19,17.19,0,0,1,3.94-1.61" transform="translate(-1190.93 -577.41)"/><path class="cls-4" d="M1208.2,659.08s-.37.1-1,.34a25.93,25.93,0,0,0-2.63,1.24,12.38,12.38,0,0,1-1.89.77,5.57,5.57,0,0,1-2.33.24,3.51,3.51,0,0,1-2.27-1.28,2.69,2.69,0,0,1-.56-1.29,2.36,2.36,0,0,1,.27-1.43,4.84,4.84,0,0,1,2.11-1.84,24.74,24.74,0,0,1,2.36-1,12.83,12.83,0,0,1,4.27-.84,8.44,8.44,0,0,1,2.9.43,5.75,5.75,0,0,1,.74.3l.24.14s-.35-.15-1-.34a9.35,9.35,0,0,0-2.87-.33,13.1,13.1,0,0,0-4.18.89,21.9,21.9,0,0,0-2.32,1,4.62,4.62,0,0,0-2,1.72,2.15,2.15,0,0,0-.24,1.26,2.47,2.47,0,0,0,.5,1.16,3.32,3.32,0,0,0,2.08,1.19,5.36,5.36,0,0,0,2.24-.21,11.82,11.82,0,0,0,1.86-.72,24.71,24.71,0,0,1,2.68-1.17,6.92,6.92,0,0,1,.78-.2Z" transform="translate(-1190.93 -577.41)"/><path class="cls-3" d="M1193.68,656.7c2.07,1.55,4.06,3.36,6,5.11a4.19,4.19,0,0,0,1.87,1.2c.59.13,1.6-.85,2.07-1.22l-6.7-7" transform="translate(-1190.93 -577.41)"/><path class="cls-4" d="M1196.89,654.75a3.82,3.82,0,0,1,.55.5l1.45,1.46c1.22,1.25,2.9,3,4.8,5l.1.11-.11.1c-.35.28-.71.61-1.13.9a2.69,2.69,0,0,1-.53.28,1.09,1.09,0,0,1-.31.08.7.7,0,0,1-.33,0,3,3,0,0,1-1-.52c-.59-.46-1.07-1-1.57-1.4-1-.91-1.87-1.71-2.63-2.37s-1.38-1.19-1.81-1.55a4.08,4.08,0,0,1-.66-.58,5.83,5.83,0,0,1,.72.49c.46.34,1.11.84,1.88,1.48s1.69,1.44,2.68,2.33c.5.44,1,1,1.56,1.38a2.91,2.91,0,0,0,.93.47c.3.11.63-.09.94-.29s.75-.59,1.11-.88v.2c-1.89-2-3.55-3.76-4.74-5l-1.38-1.52A5.27,5.27,0,0,1,1196.89,654.75Z" transform="translate(-1190.93 -577.41)"/><path class="cls-3" d="M1195,652.62l6.76,7.61a6.58,6.58,0,0,0,1.59,1.44,2.18,2.18,0,0,0,2.07.13,2.23,2.23,0,0,0,.83-2.61,6.92,6.92,0,0,0-1.63-2.46,58.88,58.88,0,0,1-5.55-7.41" transform="translate(-1190.93 -577.41)"/><path class="cls-4" d="M1199.07,649.32a1.86,1.86,0,0,1,.19.24l.49.71c.43.62,1,1.51,1.86,2.58s1.81,2.31,3,3.65a8.87,8.87,0,0,1,1.66,2.27,3,3,0,0,1,.24,1.51,2.14,2.14,0,0,1-.69,1.43,1.91,1.91,0,0,1-1.53.42,3,3,0,0,1-1.4-.61,17.55,17.55,0,0,1-1.95-2l-3.11-3.55c-.85-1-1.56-1.81-2.08-2.41l-.55-.67c-.12-.15-.19-.23-.18-.24s.09.06.22.21l.6.63,2.14,2.35c.91,1,2,2.19,3.16,3.51a17.84,17.84,0,0,0,1.92,2,2.69,2.69,0,0,0,1.27.55,1.67,1.67,0,0,0,1.31-.35,1.94,1.94,0,0,0,.59-1.25,2.68,2.68,0,0,0-.21-1.37,9.16,9.16,0,0,0-1.61-2.21c-1.16-1.35-2.15-2.62-2.94-3.7s-1.39-2-1.79-2.64l-.45-.74A1,1,0,0,1,1199.07,649.32Z" transform="translate(-1190.93 -577.41)"/><path class="cls-4" d="M1209.38,666.79a1.76,1.76,0,0,1-.8.18,4.56,4.56,0,0,1-1.95-.35,4.43,4.43,0,0,1-1.62-1.14c-.34-.39-.47-.68-.44-.7a5.78,5.78,0,0,0,4.81,2Z" transform="translate(-1190.93 -577.41)"/><path class="cls-2" d="M1295.31,645.33l-2.36,29.8a2,2,0,0,1-2.07,1.79l-16.61-1.08a2,2,0,0,1-1.81-2.12l2.71-29.78a2,2,0,0,1,2.07-1.77l16.25,1.06A2,2,0,0,1,1295.31,645.33Z" transform="translate(-1190.93 -577.41)"/><path class="cls-3" d="M1319.08,683.26s5,33.53,4.77,38-5.29,14.5-12.15,15.48-13.32-5.29-13.51-13.52S1297,689,1297,689l5.11-2.82Z" transform="translate(-1190.93 -577.41)"/><path class="cls-3" d="M1290.83,655.56s5.14,3.16,6.65,4,1.33,6.94,1.33,6.94l8.64,20.09L1297,690.32s-3.71-7-4.78-7.92a7,7,0,0,0-2.49-1.24s-.53,2-2.13,1.06a15.62,15.62,0,0,1-3.38-3s-1.42.89-2-.18-1.42-3.37-1.42-3.37,3-3.91,4.26-3.91,7.65.35,7.65.35a5,5,0,0,0-2.14-1.24c-1.77-.71-12.36-3.83-12.86-4-.74-.29-1.58-2.23.73-2.41s15.33,2.15,15.33,2.15.71-3.37.18-4.08S1288.88,658.76,1290.83,655.56Z" transform="translate(-1190.93 -577.41)"/><path class="cls-4" d="M1284.24,679a3.41,3.41,0,0,1,0-1.46,2.64,2.64,0,0,1,.79-1.44,3,3,0,0,1,1.91-.58,17.07,17.07,0,0,1,3.5.13,4.35,4.35,0,0,1,1.41.33c0,.12-2.2-.25-4.89-.07a2.78,2.78,0,0,0-1.7.46,2.48,2.48,0,0,0-.75,1.24C1284.33,678.48,1284.31,679.05,1284.24,679Z" transform="translate(-1190.93 -577.41)"/><path class="cls-4" d="M1286.3,679.68a21.23,21.23,0,0,1,2,.94,20.12,20.12,0,0,1,2,.83,4,4,0,0,1-2.21-.47A3.92,3.92,0,0,1,1286.3,679.68Z" transform="translate(-1190.93 -577.41)"/><path class="cls-4" d="M1293.26,666.49a2.64,2.64,0,0,1,1.83.91,2.59,2.59,0,0,1,1,1.81c-.1,0-.46-.79-1.24-1.53S1293.22,666.6,1293.26,666.49Z" transform="translate(-1190.93 -577.41)"/><path class="cls-2" d="M1204.52,845.9c-.11,0,4.37-18.86,10-42s10.31-42,10.42-42-4.36,18.86-10,42.06S1204.64,845.93,1204.52,845.9Z" transform="translate(-1190.93 -577.41)"/></svg>