<svg id="Layer_1" data-name="Layer 1" xmlns="http://www.w3.org/2000/svg" viewBox="0 0 383 292"><defs><style>.cls-1{fill:none;}.cls-2{fill:#514d57;}.cls-3{fill:#3e3b42;}.cls-4{fill:#eea987;}.cls-5{fill:#5c63a1;}.cls-6{fill:#464b7a;}.cls-7{fill:#4a3e46;}.cls-8{fill:#a87860;}.cls-9{fill:#505154;}.cls-10{fill:#333759;}</style></defs><title>howto-2</title><path class="cls-1" d="M1018.21,676.19a51.34,51.34,0,0,0,.38-6.81,15,15,0,0,1-2.86-.58c-3.47-1-7.51-3-9.45-7.7a91,91,0,0,1-4.39-13.42c-4,2.67-9.08,5.93-9.08,5.93a114,114,0,0,1-8.84,7.65l1.36,1.17-23,39.37h0c.8-.54,5.6-2.45,12-4.91l.15-.06h0c11.36-4.33,27.7-10.33,36.09-13.39l6.35-2.86A11.85,11.85,0,0,0,1018.21,676.19Z" transform="translate(-826 -554)"/><path class="cls-1" d="M1090.9,818.22c-4-11.94-8.37-47.38-8.37-47.38s-12.84,35.59-14.54,52.71c-.63,6.31-2,14.56-3.42,22.45h43.32c-4.39-6.38-8.32-12.34-11.32-17.21S1091.58,820.28,1090.9,818.22Z" transform="translate(-826 -554)"/><path class="cls-1" d="M1000,640.24l.42-.19a1.23,1.23,0,0,0,0-.19Z" transform="translate(-826 -554)"/><path class="cls-1" d="M826,554V846H956.64c1.91-15.31,4-36.42,1.75-49.24-.39-2.2-.68-4.61-.89-7.13-21.38,10.78-41.42,25.38-49.17,35L894,843.51V822.4s4.47-25.87,63-42.21c-.34-14.75,1-29.72,1-29.72s-42.68,12.8-47.66,14.2S892.4,758.3,889,750.34s77.64-103.93,77.64-103.93l3.25,2.79c1.23-1.24,2.22-3.35,1.37-6.82-1.74-7.06,1-8.68,1-8.68l11.84,11.48v0l-13.23-12.88,4.59-5c-.33-1.61-.34-3.65,1.4-4.37a1.54,1.54,0,0,1,2.09.52l1-1.1c0-1,0-5.56,2.91-5.7a1.47,1.47,0,0,1,1.52.83l.94-1c0-1.38.21-5.29,2.91-5.42a1.31,1.31,0,0,1,1.32.77l15.71-17.28c-2-3.37-6.12-10.92-6.45-17.52-.44-8.71.56-11.1.56-11.1s14.47,4.46,21.9,3.93,36.25-1.51,40.09,3.66c0,0,10.48-1.57,11.93,15.72,2.29,27.44-19.55,51.92-19.55,51.92h0c-.61,1.14-1.22,2.25-1.81,3.3a3.67,3.67,0,0,1-.17.87c-2.55,8.57,1.42,27.85,2.82,34l11.13,6.4-.13.12c11.84,5.61,29.72,14.75,33.27,17.75,4.64,3.93,16.68,77.26,21.11,96.47a28,28,0,0,0,1.18,4.26c1.32,2.83,12.71,22.15,24.35,41.72H1209V554Z" transform="translate(-826 -554)"/><path class="cls-2" d="M987.13,643.19l-12.67-12.34,1.56-1.71a12.2,12.2,0,0,1-.54-1.9l-4.59,5,13.23,12.88A6.42,6.42,0,0,1,987.13,643.19Z" transform="translate(-826 -554)"/><path class="cls-2" d="M984.6,619.7l.94-1a9.41,9.41,0,0,1-.18-1.8s0-.19,0-.49l-.94,1A4.15,4.15,0,0,1,984.6,619.7Z" transform="translate(-826 -554)"/><path class="cls-2" d="M980.49,624.23a6.73,6.73,0,0,1-.51-1.73s0-.08,0-.21l-1,1.1a4,4,0,0,1,.54,1.91Z" transform="translate(-826 -554)"/><path class="cls-2" d="M1000.06,637.35,996,641.19a21.56,21.56,0,0,0,3.23-.64l.78-.31.4-.38C1000.26,639,1000.15,638.18,1000.06,637.35Z" transform="translate(-826 -554)"/><path class="cls-2" d="M989.88,613.89,1005,597.23l.62.55c.46-1,.76-1.55.76-1.55s-.45-.66-1.12-1.78l-15.71,17.28A4.28,4.28,0,0,1,989.88,613.89Z" transform="translate(-826 -554)"/><path class="cls-3" d="M1005.64,597.78l-.62-.55-15.14,16.66c-.14,2.47-1.37,5.7-2.35,6.3-1.22.75-1.76-.38-2-1.52l-.94,1a9.37,9.37,0,0,1-2.21,4.92c-.94.87-1.54.35-1.9-.39l-1,1.07a7.74,7.74,0,0,1-.69,3.8,1.47,1.47,0,0,1-2.69.31l-.11-.27-1.56,1.71,12.67,12.34a47.43,47.43,0,0,1,8.85-2l4.08-3.84C997.76,617.21,1003.51,602.41,1005.64,597.78Z" transform="translate(-826 -554)"/><path class="cls-4" d="M992.81,653.61s-10.89-5.19-8.7-8.43h0L972.27,633.7s-2.72,1.62-1,8.68c.85,3.47-.14,5.58-1.37,6.82L984,661.26A114,114,0,0,0,992.81,653.61Z" transform="translate(-826 -554)"/><path class="cls-4" d="M992.81,653.61s5.09-3.26,9.08-5.93c-.64-2.61-1.11-5.15-1.48-7.63l-.42.19-.78.31a21.56,21.56,0,0,1-3.23.64,47.43,47.43,0,0,0-8.85,2,6.42,6.42,0,0,0-3,2v0h0C981.92,648.42,992.81,653.61,992.81,653.61Z" transform="translate(-826 -554)"/><path class="cls-4" d="M976.13,629.41a1.47,1.47,0,0,0,2.69-.31,7.74,7.74,0,0,0,.69-3.8,4,4,0,0,0-.54-1.91,1.54,1.54,0,0,0-2.09-.52c-1.74.72-1.73,2.76-1.4,4.37a12.2,12.2,0,0,0,.54,1.9Z" transform="translate(-826 -554)"/><path class="cls-4" d="M980.49,624.23c.36.74,1,1.26,1.9.39a9.37,9.37,0,0,0,2.21-4.92,4.15,4.15,0,0,0-.2-2.28,1.47,1.47,0,0,0-1.52-.83c-2.91.14-2.94,4.68-2.91,5.7,0,.13,0,.21,0,.21A6.73,6.73,0,0,0,980.49,624.23Z" transform="translate(-826 -554)"/><path class="cls-4" d="M985.54,618.67c.23,1.14.77,2.27,2,1.52,1-.6,2.21-3.83,2.35-6.3a4.28,4.28,0,0,0-.31-2.16,1.31,1.31,0,0,0-1.32-.77c-2.7.13-2.92,4-2.91,5.42,0,.3,0,.49,0,.49A9.41,9.41,0,0,0,985.54,618.67Z" transform="translate(-826 -554)"/><path class="cls-5" d="M962.34,701.79l12-4.91C967.94,699.34,963.14,701.25,962.34,701.79Z" transform="translate(-826 -554)"/><path class="cls-5" d="M1120,800c-4.43-19.21-16.47-92.54-21.11-96.47-3.55-3-21.43-12.14-33.27-17.75L1025,724.32l-.43-1.26h0a10.43,10.43,0,0,1-1.81.89v0s-1.73,31.41-19,46.34a46.53,46.53,0,0,0,.12,6.48c1.33,14.92.85,24.22-2.8,41.26-1.7,7.88-2.33,19.58-2.62,28h66.14c1.45-7.89,2.79-16.14,3.42-22.45,1.7-17.12,14.54-52.71,14.54-52.71s4.39,35.44,8.37,47.38c.68,2.06,2.73,5.79,5.67,10.57s6.93,10.83,11.32,17.21h37.62c-11.64-19.57-23-38.89-24.35-41.72A28,28,0,0,1,1120,800Z" transform="translate(-826 -554)"/><path class="cls-5" d="M1013.17,735.79c-3.35,7.42-7.07,17.25-8.68,27.24C1008.47,757.48,1012,748.94,1013.17,735.79Z" transform="translate(-826 -554)"/><path class="cls-5" d="M1000.4,777.13c-.13-1.37-.17-2.77-.17-4.17a30.63,30.63,0,0,1-10.07,4.25c-10.24,2.31-21.63,6.85-32.66,12.42.21,2.52.5,4.93.89,7.13,2.25,12.82.16,33.93-1.75,49.24h38.23c.37-8.79,1.17-21.26,3-29.64C1001.45,799.5,1001.7,791.66,1000.4,777.13Z" transform="translate(-826 -554)"/><path class="cls-5" d="M1000.51,767.55c1.52-14.92,8.62-30.21,13-38.6.06-1.89.07-3.84,0-5.89h0a10.78,10.78,0,0,1-1.27-.87l-.66.87-4.16-38.23,3.11-1.4c-8.39,3.06-24.73,9.06-36.09,13.39l-32.14,36.89,19.94-31.91h0l23-39.37L984,661.26,969.92,649.2l-3.25-2.79s-81,96-77.64,103.93,16.32,15.72,21.3,14.33S958,750.47,958,750.47s-1.32,15-1,29.72a294.18,294.18,0,0,1,32-6.89S994.62,773,1000.51,767.55Z" transform="translate(-826 -554)"/><path class="cls-4" d="M1045.7,655.13a19.26,19.26,0,0,1-3.76,4.31c-4.9,5.25-14,13.8-23.73,16.75a11.85,11.85,0,0,1-1.25,4.38h0l3.64,30.75,34-32h0c-1.4-6.2-5.37-25.48-2.82-34a3.67,3.67,0,0,0,.17-.87c-2.94,5.26-5.45,9.26-6.25,10.77Z" transform="translate(-826 -554)"/><path class="cls-6" d="M1020.62,711.31,1017,680.56h0l-6.35,2.86-3.11,1.4,4.16,38.23.66-.87h0C1011.59,720.13,1019.13,710.92,1020.62,711.31Z" transform="translate(-826 -554)"/><path class="cls-6" d="M1020.62,711.31c1.49.4,3.95,11.7,4,11.75l.43,1.26,40.59-38.52.13-.12-11.13-6.4h0Z" transform="translate(-826 -554)"/><path class="cls-6" d="M1003.85,776.79a46.53,46.53,0,0,1-.12-6.48,34.94,34.94,0,0,1-3.5,2.65c0,1.4,0,2.8.17,4.17,1.3,14.53,1.05,22.37-2.56,39.23-1.8,8.38-2.6,20.85-3,29.64h3.56c.29-8.37.92-20.07,2.62-28C1004.7,801,1005.18,791.71,1003.85,776.79Z" transform="translate(-826 -554)"/><path class="cls-6" d="M1004.49,763c1.61-10,5.33-19.82,8.68-27.24q.3-3.22.39-6.84c-4.43,8.39-11.53,23.68-13,38.6A28.79,28.79,0,0,0,1004.49,763Z" transform="translate(-826 -554)"/><path class="cls-7" d="M1000.23,773a34.94,34.94,0,0,0,3.5-2.65c17.32-14.93,19-46.34,19-46.34v0a10.43,10.43,0,0,1-9.18-.89h0c0,2.05,0,4,0,5.89q-.09,3.62-.39,6.84c-1.2,13.15-4.7,21.69-8.68,27.24a28.79,28.79,0,0,1-4,4.52C994.62,773,989,773.3,989,773.3a294.18,294.18,0,0,0-32,6.89c-58.54,16.34-63,42.21-63,42.21v21.11l14.33-18.92c7.75-9.58,27.79-24.18,49.17-35,11-5.57,22.42-10.11,32.66-12.42A30.63,30.63,0,0,0,1000.23,773Z" transform="translate(-826 -554)"/><path class="cls-8" d="M1041.94,659.44c-5.19,4.78-14.63,10.87-23.35,9.94a51.34,51.34,0,0,1-.38,6.81C1027.93,673.24,1037,664.69,1041.94,659.44Z" transform="translate(-826 -554)"/><path class="cls-4" d="M1053.71,625.62c-2.52,2.86-5.28,4.63-6.9,4.36-1.94-.32-2.56-3-2.52-6.38l0,0-8.1.79s14.21-25.21-.26-27.34-21.29,1.31-29.49-.87c0,0-.3.54-.76,1.55-2.13,4.63-7.88,19.43-5.58,39.57.09.83.2,1.67.33,2.51a1.23,1.23,0,0,1,0,.19c.37,2.48.84,5,1.48,7.63a91,91,0,0,0,4.39,13.42c1.94,4.68,6,6.65,9.45,7.7a15,15,0,0,0,2.86.58c8.72.93,18.16-5.16,23.35-9.94a19.26,19.26,0,0,0,3.76-4.31h0c.8-1.51,3.31-5.51,6.25-10.77.59-1.05,1.2-2.16,1.81-3.3C1053.77,641,1054.69,631.63,1053.71,625.62Z" transform="translate(-826 -554)"/><path class="cls-9" d="M1035.89,597.1c14.47,2.13.26,27.34.26,27.34l8.1-.79,0,0a44.07,44.07,0,0,1,.74-7c1.38-7.73,15.71-9.59,14.12-1.5a23.36,23.36,0,0,1-5.44,10.51c1,6,.06,15.36,0,15.44h0s21.84-24.48,19.55-51.92c-1.45-17.29-11.93-15.72-11.93-15.72-3.84-5.17-32.66-4.19-40.09-3.66s-21.9-3.93-21.9-3.93-1,2.39-.56,11.1c.33,6.6,4.42,14.15,6.45,17.52.67,1.12,1.12,1.78,1.12,1.78C1014.6,598.41,1021.42,595,1035.89,597.1Z" transform="translate(-826 -554)"/><path class="cls-4" d="M1046.81,630c1.62.27,4.38-1.5,6.9-4.36a23.36,23.36,0,0,0,5.44-10.51c1.59-8.09-12.74-6.23-14.12,1.5a44.07,44.07,0,0,0-.74,7C1044.25,627,1044.87,629.66,1046.81,630Z" transform="translate(-826 -554)"/><path class="cls-7" d="M1020.62,711.31c-1.49-.39-9,8.82-8.3,10.88h0a10.78,10.78,0,0,0,1.27.87,10.45,10.45,0,0,0,11,0h0S1022.11,711.71,1020.62,711.31Z" transform="translate(-826 -554)"/><polygon class="cls-10" points="148.37 142.88 136.34 147.79 136.32 147.8 136.32 147.8 116.38 179.71 148.52 142.82 148.52 142.82 148.37 142.88"/></svg>