<svg id="Layer_1" data-name="Layer 1" xmlns="http://www.w3.org/2000/svg" viewBox="0 0 334 307"><defs><style>.cls-1{fill:none;}.cls-2{fill:#00273d;}.cls-3{fill:#2d6088;}.cls-4{fill:#ce6f5d;}.cls-5{fill:#9579d8;}.cls-6{fill:#806ac6;}.cls-7{fill:#1b506d;}.cls-8{fill:#ffbb59;}.cls-9{fill:#bf5c4f;}</style></defs><title>howto-4</title><path class="cls-1" d="M1254.83,686.52c0-1.16-.13-2.33-.27-3.52a24.59,24.59,0,0,1-3.28-.11c-10.14-50.39-48.49-74.87-69.47-84.71L1164.13,676l.1.12h0l.07.09.07.08a.86.86,0,0,1,.07.1l.1.13.09.12.13.18.11.15.16.22a1.88,1.88,0,0,0,.12.18l.18.27.13.2.21.32.14.22.24.38.15.25.26.43.15.27.05.07.51-.06a.19.19,0,0,1,.23.17.2.2,0,0,1-.17.23l-.35,0,0,0a2.54,2.54,0,0,0,.16.28l.31.58.15.28c.12.21.23.43.35.65l.15.29.38.76c0,.09.08.17.13.26l.44.92.09.18c.72,1.56,1.49,3.34,2.27,5.38a1.8,1.8,0,0,0,.08.21c.16.44.33.88.5,1.34l.12.36q.23.63.45,1.29c.06.15.11.31.16.46.14.42.28.84.42,1.28.06.17.12.35.17.53l.24.76h74.91l1.32-1.74A40.55,40.55,0,0,1,1254.83,686.52Z" transform="translate(-970 -389)"/><path class="cls-1" d="M1112.42,493.11c.22.11.73-.07,1.4-.58l.56-8.22c-.19.34-.38.68-.57,1.06C1111.6,489.84,1111.83,492.82,1112.42,493.11Z" transform="translate(-970 -389)"/><path class="cls-1" d="M1178.43,434l-.08-.1Z" transform="translate(-970 -389)"/><path class="cls-1" d="M970,389V696h111.5l0-.07c.55-.77,1.1-1.54,1.62-2.31a.57.57,0,0,0,.08-.13c.49-.71,1-1.42,1.42-2.13l.33-.51c.46-.72.9-1.44,1.34-2.16l.07-.12c.46-.76.89-1.52,1.31-2.28l.29-.52q.51-.93,1-1.86l.24-.49q.57-1.12,1.08-2.25c.07-.14.13-.29.19-.43s.24-.57.37-.86h0v0c.14-.33.29-.65.42-1s.17-.42.25-.62c.3-.76.58-1.51.83-2.26h0c1.11-11.43,5.9-39.94,5.21-55.57l-1.27-7.91a6.07,6.07,0,0,0-.85-1.61c-7.13-9.25-6.72-18-3.9-25.26-61.38-25.67-88.93-129.07-88.93-129.07a15.74,15.74,0,0,1,2-4.72c-.24-.58-.49-1.19-.78-1.86-2.89-6.69-10-25.29-8.87-28.33a3.62,3.62,0,0,1,4.27-2.26c2.56-4.16,5.76-2.74,5.76-2.74,2.89-4.2,6.6-1.79,6.6-1.79.26-2.41,5.65-3.87,6.73-.31s5.35,16.95,5.35,16.95c12.72-8.45,20.15.74,19.31,2.2a1.77,1.77,0,0,1-2.23.87c-7-3.86-19.76,10.56-19,13,.07.25.17.52.26.81a21.42,21.42,0,0,1,2.28.94c18.84,62.26,86.43,88.46,86.43,88.46v0l10.13-2.56,3.38-1.27a93.48,93.48,0,0,0,3.27-17,22.12,22.12,0,0,1-13.85-22.16,2.52,2.52,0,0,1-2.1,0c-2.43-1.2-1.59-6.11.5-10.34a21,21,0,0,1,2.57-4l.47-6.95h0c-2.28-21.52,1.67-32.67,13.75-40.55a37.2,37.2,0,0,1,6.37-3.53l0,0,.06,0,.1-.05a23.25,23.25,0,0,1,3.89-1.45,61.21,61.21,0,0,1,18.7-2.64c8.57,0,15.31,3.15,20.06,8.25l-.24-.26c3.87-4.07,8.52-1.09,8.52-1.09l.24.39c6-1.16,13.37-.16,17.85,9.35,8.49,18-19.68,41.45-13.72,71,2.93,14.54,8.49,27.59,10.15,38.74,48,31.7,73.19,117.49,73.19,117.49a18.21,18.21,0,0,1-2.89,6.34c.37,2.61.56,4.83.65,6.63l1.18,4.47a3.06,3.06,0,0,1,.37.69l2.13,8.73H1304V389Z" transform="translate(-970 -389)"/><path class="cls-2" d="M1186,451.21a.64.64,0,0,0,0-.07,48.21,48.21,0,0,1-5,27.76c2.08,2.68,1.73,7.74-1.11,12.3a16.84,16.84,0,0,1-3.38,3.94l.13-.11a21.41,21.41,0,0,1,.39,4.15c0,4.72-1.42,9.5-4.13,9.5-2.22,0-3.57-3.23-4-7a13.93,13.93,0,0,1-3.12,2.53,22.94,22.94,0,0,1-8.07,9.28l-.18,5.73-.33,10.2a14.28,14.28,0,0,1,2.44,1.39c4.76,3.6,10.35,6.94,15.83,10.27v0a68.55,68.55,0,0,1,25.42,10.61c-1.66-11.15-7.22-24.2-10.15-38.74-6-29.54,22.21-53,13.72-71-4.48-9.51-11.87-10.51-17.85-9.35a48.11,48.11,0,0,1,6.19,17.58A5.27,5.27,0,0,1,1186,451.21Z" transform="translate(-970 -389)"/><path class="cls-2" d="M1175.05,496.18l-.19.13h0Z" transform="translate(-970 -389)"/><path class="cls-2" d="M1134.69,525.17l.21-6.71-1.49-.12h-.54a20.43,20.43,0,0,1-5.36-1.32,93.48,93.48,0,0,1-3.27,17c3.54-1.34,7-2.71,10.3-4.21Z" transform="translate(-970 -389)"/><path class="cls-2" d="M1172.87,506.73c.65,0,2.18-2.57,2.18-7.55a20.29,20.29,0,0,0-.2-2.87,10.15,10.15,0,0,1-2.76,1.2c-.44.69-.91,1.37-1.39,2C1170.77,504.27,1172.24,506.73,1172.87,506.73Z" transform="translate(-970 -389)"/><polygon class="cls-3" points="122.39 286.99 122.38 287 122.39 286.99 122.39 286.99"/><path class="cls-3" d="M1091.3,678.88c.09-.21.17-.42.25-.62C1091.47,678.46,1091.39,678.67,1091.3,678.88Z" transform="translate(-970 -389)"/><path class="cls-3" d="M1164.23,676.11l.07.09Z" transform="translate(-970 -389)"/><path class="cls-3" d="M1090.32,681.17c.07-.14.13-.29.19-.43C1090.45,680.88,1090.39,681,1090.32,681.17Z" transform="translate(-970 -389)"/><path class="cls-3" d="M1164.37,676.28a.86.86,0,0,1,.07.1A.86.86,0,0,0,1164.37,676.28Z" transform="translate(-970 -389)"/><path class="cls-3" d="M1086.34,688.69l.07-.12Z" transform="translate(-970 -389)"/><path class="cls-3" d="M1081.5,696h0l0-.07Z" transform="translate(-970 -389)"/><path class="cls-3" d="M1089,683.91l.24-.49Z" transform="translate(-970 -389)"/><path class="cls-3" d="M1083.17,693.62a.57.57,0,0,0,.08-.13A.57.57,0,0,1,1083.17,693.62Z" transform="translate(-970 -389)"/><path class="cls-3" d="M1087.72,686.29l.29-.52Z" transform="translate(-970 -389)"/><path class="cls-3" d="M1084.67,691.36l.33-.51Z" transform="translate(-970 -389)"/><path class="cls-3" d="M1173.06,694.71c.06.17.12.35.17.53C1173.18,695.06,1173.12,694.88,1173.06,694.71Z" transform="translate(-970 -389)"/><path class="cls-3" d="M1168.4,683c0,.09.08.17.13.26C1168.48,683.2,1168.44,683.12,1168.4,683Z" transform="translate(-970 -389)"/><path class="cls-3" d="M1167.37,681.05l.15.28Z" transform="translate(-970 -389)"/><path class="cls-3" d="M1171.33,689.77a1.8,1.8,0,0,0,.08.21A1.8,1.8,0,0,1,1171.33,689.77Z" transform="translate(-970 -389)"/><path class="cls-3" d="M1167.87,682l.15.29Z" transform="translate(-970 -389)"/><path class="cls-3" d="M1169,684.21l.09.18Z" transform="translate(-970 -389)"/><path class="cls-3" d="M1164.13,676l.1.12-.1-.12Z" transform="translate(-970 -389)"/><path class="cls-3" d="M1164.54,676.51l.09.12Z" transform="translate(-970 -389)"/><path class="cls-3" d="M1172.48,693c.06.15.11.31.16.46C1172.59,693.28,1172.54,693.12,1172.48,693Z" transform="translate(-970 -389)"/><path class="cls-3" d="M1171.91,691.32l.12.36Z" transform="translate(-970 -389)"/><path class="cls-3" d="M1166.05,678.75l.15.25Z" transform="translate(-970 -389)"/><path class="cls-3" d="M1165,677.18a1.88,1.88,0,0,0,.12.18A1.88,1.88,0,0,1,1165,677.18Z" transform="translate(-970 -389)"/><path class="cls-3" d="M1166.9,680.19a2.54,2.54,0,0,0,.16.28A2.54,2.54,0,0,1,1166.9,680.19Z" transform="translate(-970 -389)"/><path class="cls-3" d="M1164.76,676.81l.11.15Z" transform="translate(-970 -389)"/><path class="cls-3" d="M1165.33,677.63l.13.2Z" transform="translate(-970 -389)"/><path class="cls-3" d="M1165.67,678.15l.14.22Z" transform="translate(-970 -389)"/><path class="cls-3" d="M1166.46,679.43l.15.27Z" transform="translate(-970 -389)"/><path class="cls-4" d="M1022,448.41c-.09-.29-.19-.56-.26-.81-.76-2.46,12-16.88,19-13a1.77,1.77,0,0,0,2.23-.87c.84-1.46-6.59-10.65-19.31-2.2,0,0-4.27-13.39-5.35-16.95s-6.47-2.1-6.73.31c0,0-3.71-2.41-6.6,1.79,0,0-3.2-1.42-5.76,2.74a3.62,3.62,0,0,0-4.27,2.26c-1.15,3,6,21.64,8.87,28.33.29.67.54,1.28.78,1.86C1009.1,444.85,1017.87,446.91,1022,448.41Z" transform="translate(-970 -389)"/><path class="cls-3" d="M1173.06,694.71c-.14-.44-.28-.86-.42-1.28-.05-.15-.1-.31-.16-.46q-.23-.66-.45-1.29l-.12-.36c-.17-.46-.34-.9-.5-1.34a1.8,1.8,0,0,1-.08-.21c-.78-2-1.55-3.82-2.27-5.38l-.09-.18-.44-.92c0-.09-.09-.17-.13-.26l-.38-.76-.15-.29c-.12-.22-.23-.44-.35-.65l-.15-.28-.31-.58a2.54,2.54,0,0,1-.16-.28l0,0c-1.58.21-8.43,1.06-18.29,1.68a111.58,111.58,0,0,0,3.65,14.17h21.23l-.24-.76C1173.18,695.06,1173.12,694.88,1173.06,694.71Z" transform="translate(-970 -389)"/><path class="cls-3" d="M1091.11,679.71c34,5.08,70.78.68,75.55.06l-.05-.07-.15-.27-.26-.43-.15-.25-.24-.38-.14-.22-.21-.32-.13-.2-.18-.27a1.88,1.88,0,0,1-.12-.18l-.16-.22-.11-.15-.13-.18-.09-.12-.1-.13a.86.86,0,0,0-.07-.1l-.07-.08-.07-.09h0l-.1-.12c-9.1,1.4-53,7.58-71.74,0h0c-.25.75-.53,1.5-.83,2.26-.08.2-.16.41-.25.62s-.28.65-.42,1A.2.2,0,0,1,1091.11,679.71Z" transform="translate(-970 -389)"/><path class="cls-3" d="M1149.39,686.67c-.37-1.6-.7-3.21-1-4.82-6.16.38-13.46.68-21.38.68a246.69,246.69,0,0,1-36-2.42.2.2,0,0,1-.17-.23c-.13.29-.24.57-.37.86s-.12.29-.19.43q-.51,1.13-1.08,2.25l-.24.49q-.48.93-1,1.86l-.29.52c-.42.76-.85,1.52-1.31,2.28l-.07.12c-.44.72-.88,1.44-1.34,2.16l-.33.51c-.46.71-.93,1.42-1.42,2.13a.57.57,0,0,1-.08.13c-.52.77-1.07,1.54-1.62,2.31l0,.07h21.29c2-3.93,2.91-8.46,4-12.78l.3-1.2a.1.1,0,0,1,0-.07.11.11,0,0,1,.15.12c-.23.88-.44,1.76-.66,2.65-.65,2.66-1.3,5.32-2.14,7.92a21.75,21.75,0,0,1-1.39,3.36h20.54a10.54,10.54,0,0,1-.51-1.2,25.2,25.2,0,0,1-1.14-5.73c-.2-2-.29-4-.47-5.85,0-.13.19-.13.2,0,.33,3.47.4,7.14,1.3,10.52a11.93,11.93,0,0,0,.86,2.26H1131c.07-4.37,0-8.74-.1-13.11a.09.09,0,0,1,0-.07s0,0,.07,0a.09.09,0,0,1,.1.09c.15,4.37.17,8.74.1,13.11H1152C1151,692.94,1150.11,689.82,1149.39,686.67Z" transform="translate(-970 -389)"/><path class="cls-4" d="M1137.25,555.21c13.79,1.78,38-13.37,38.35-13.61l-.15-.52c-5.48-3.33-11.07-6.67-15.83-10.27a14.28,14.28,0,0,0-2.44-1.39l-.11,3.38A10.51,10.51,0,0,1,1146.23,543l-1.6-.05a10.52,10.52,0,0,1-10.17-10.85l.08-2.28c-3.27,1.5-6.76,2.87-10.3,4.21l-3.38,1.27h0S1123.34,553.41,1137.25,555.21Z" transform="translate(-970 -389)"/><polygon class="cls-4" points="140.74 150.42 140.74 150.43 140.74 150.43 140.74 150.42"/><path class="cls-5" d="M1164.13,676h0c-4.75,0-8.44,0-8.44,0,1.57-8.74,1.29-42.42,4.34-50.87.21-.59.41-1.19.61-1.79-4.42.24-17.54.21-26.47-7.64,0,0,20.36,6.94,32.63-1,3.15-6.08,4.4-13.13,5.39-20.55-2.73-1-4.31-1.47-4.31-1.47l1.1-3.87,7.77-43.25-1.13-3.88c1.17,17.9-31.31,38.73-48.23,38.73-13.61,0-16.11-27.46-16.56-38.26l1.05,33.35-8.71,14a75.54,75.54,0,0,1-11.59-3.8c-2.82,7.22-3.23,16,3.9,25.26a6.07,6.07,0,0,1,.85,1.61v0s7.38,7.36,23.83,4.49c0,0-11.12,6.68-22.56,3.45h0c.69,15.63-4.1,44.14-5.21,55.57h0C1111.11,683.57,1155,677.39,1164.13,676Z" transform="translate(-970 -389)"/><polygon class="cls-5" points="140.74 150.43 140.74 150.43 140.74 150.43 140.74 150.43 140.74 150.43"/><path class="cls-6" d="M1120.16,617c-16.45,2.87-23.83-4.49-23.83-4.49v0l1.27,7.91h0C1109,623.66,1120.16,617,1120.16,617Z" transform="translate(-970 -389)"/><path class="cls-6" d="M1166.8,614.68c-12.27,8-32.63,1-32.63,1,8.93,7.85,22,7.88,26.47,7.64l.27-.77A29.26,29.26,0,0,0,1166.8,614.68Z" transform="translate(-970 -389)"/><path class="cls-6" d="M1172.19,594.13c-1,7.42-2.24,14.47-5.39,20.55a29.26,29.26,0,0,1-5.89,7.88l-.27.77c-.2.6-.4,1.2-.61,1.79-3,8.45-2.77,42.13-4.34,50.87,0,0,3.69,0,8.44,0h0l17.68-77.81C1177.9,596.34,1174.6,595,1172.19,594.13Z" transform="translate(-970 -389)"/><path class="cls-5" d="M1110.74,539.42h0l.09,2.7c.45,10.8,3,38.26,16.56,38.26,16.92,0,49.4-20.83,48.23-38.73l0-.06c-.39.24-24.56,15.39-38.35,13.61s-16.38-19.94-16.38-19.94h0l-10.13,2.56Z" transform="translate(-970 -389)"/><path class="cls-7" d="M1091.05,680.11a246.69,246.69,0,0,0,36,2.42c7.92,0,15.22-.3,21.38-.68h0c0-.13.18-.18.2-.05v0c9.86-.62,16.71-1.47,18.29-1.68l.35,0a.2.2,0,0,0,.17-.23.19.19,0,0,0-.23-.17l-.51.06c-4.77.62-41.56,5-75.55-.06a.2.2,0,0,0-.23.15v0h0A.2.2,0,0,0,1091.05,680.11Z" transform="translate(-970 -389)"/><path class="cls-7" d="M1104.45,692.64c.84-2.6,1.49-5.26,2.14-7.92.22-.89.43-1.77.66-2.65a.11.11,0,0,0-.15-.12.1.1,0,0,0,0,.07l-.3,1.2c-1,4.32-1.94,8.85-4,12.78h.27A21.75,21.75,0,0,0,1104.45,692.64Z" transform="translate(-970 -389)"/><path class="cls-7" d="M1148.59,681.83v0c0-.13-.22-.08-.2.05h0c.3,1.61.63,3.22,1,4.82.72,3.15,1.58,6.27,2.59,9.33h.26A111.58,111.58,0,0,1,1148.59,681.83Z" transform="translate(-970 -389)"/><path class="cls-7" d="M1123,693.74c-.9-3.38-1-7-1.3-10.52,0-.13-.22-.13-.2,0,.18,1.9.27,3.89.47,5.85a25.2,25.2,0,0,0,1.14,5.73,10.54,10.54,0,0,0,.51,1.2h.24A11.93,11.93,0,0,1,1123,693.74Z" transform="translate(-970 -389)"/><path class="cls-7" d="M1131.06,682.89a.09.09,0,0,0-.1-.09s-.06,0-.07,0a.09.09,0,0,0,0,.07c.15,4.37.17,8.74.1,13.11h.2C1131.23,691.63,1131.21,687.26,1131.06,682.89Z" transform="translate(-970 -389)"/><path class="cls-4" d="M1273,686.58l-1.18-4.47c-.09-1.8-.28-4-.65-6.63-4.54,6.23-12.23,7.39-16.6,7.52.14,1.19.23,2.36.27,3.52a40.55,40.55,0,0,0-5.13,7.74l-1.32,1.74h27.11l-2.13-8.73A3.06,3.06,0,0,0,1273,686.58Z" transform="translate(-970 -389)"/><path class="cls-5" d="M1175.45,541.08l.15.52,0,.06,1.13,3.88L1169,588.79l-1.1,3.87s1.58.46,4.31,1.47c2.41.89,5.71,2.21,9.62,4,21,9.84,59.33,34.32,69.47,84.71a24.59,24.59,0,0,0,3.28.11c4.37-.13,12.06-1.29,16.6-7.52a18.21,18.21,0,0,0,2.89-6.34s-25.22-85.79-73.19-117.49A68.55,68.55,0,0,0,1175.44,541Z" transform="translate(-970 -389)"/><path class="cls-5" d="M1111.88,575.48l-1.05-33.35-.09-2.7h0v-1.61s-67.59-26.2-86.43-88.46a21.42,21.42,0,0,0-2.28-.94c-4.15-1.5-12.92-3.56-17.4,3.44a15.74,15.74,0,0,0-2,4.72s27.55,103.4,88.93,129.07a75.54,75.54,0,0,0,11.59,3.8Z" transform="translate(-970 -389)"/><path class="cls-2" d="M1135.31,429.42l.1-.05Z" transform="translate(-970 -389)"/><path class="cls-2" d="M1128.85,433a54.24,54.24,0,0,1,6.37-3.53A37.2,37.2,0,0,0,1128.85,433Z" transform="translate(-970 -389)"/><path class="cls-2" d="M1174.15,432.35c14.95,6.44,9.11,27.64,5.07,37.51,1.45,4.82,1.85,8.14-.09,7.59h0a3.55,3.55,0,0,1,.61.32,4.77,4.77,0,0,1,1.24,1.13,48.21,48.21,0,0,0,5-27.76,36.44,36.44,0,0,0-7.52-17.19l-.08-.1-.29-.32c-4.75-5.1-11.49-8.25-20.06-8.25a61.21,61.21,0,0,0-18.7,2.64,13.44,13.44,0,0,1,2.52-.43C1152.26,425.57,1164.83,428.33,1174.15,432.35Z" transform="translate(-970 -389)"/><path class="cls-2" d="M1170.7,499.52c.48-.64,1-1.32,1.39-2a7,7,0,0,1-1.35.2c0,.46,0,1,0,1.47Z" transform="translate(-970 -389)"/><path class="cls-2" d="M1168.82,497.47a3.91,3.91,0,0,1-.67-.27l-1.34,4.17a19.31,19.31,0,0,1-1,2.84,13.93,13.93,0,0,0,3.12-2.53,23,23,0,0,1-.13-2.5C1168.75,498.6,1168.77,498,1168.82,497.47Z" transform="translate(-970 -389)"/><path class="cls-8" d="M1113.82,492.53c-.67.51-1.18.69-1.4.58-.59-.29-.82-3.27,1.39-7.74.19-.38.38-.72.57-1.06l.25-3.82a21,21,0,0,0-2.57,4c-2.09,4.23-2.93,9.14-.5,10.34a2.52,2.52,0,0,0,2.1,0c0-.16,0-.31,0-.47Z" transform="translate(-970 -389)"/><path class="cls-4" d="M1134.69,525.17l-.15,4.62-.08,2.28a10.52,10.52,0,0,0,10.17,10.85l1.6.05a10.51,10.51,0,0,0,10.84-10.17l.11-3.38.33-10.2A45,45,0,0,1,1134.69,525.17Z" transform="translate(-970 -389)"/><path class="cls-9" d="M1157.51,519.22l.18-5.73c-5.14,3.46-12.5,5.68-22.5,5h-.29l-.21,6.71A45,45,0,0,0,1157.51,519.22Z" transform="translate(-970 -389)"/><path class="cls-9" d="M1157.69,513.49a22.94,22.94,0,0,0,8.07-9.28,19.31,19.31,0,0,0,1-2.84l1.34-4.17c-.14-.07-.27-.13-.4-.21a4.5,4.5,0,0,1-.9-.73c-2.46-2.55-2.21-7.91.77-12.7a18.56,18.56,0,0,1,1.24-1.73,23.83,23.83,0,0,1-2.06-4.64l-2.44,14.33c-1.66,15.52-13.88,27.61-29.17,27C1145.19,519.17,1152.55,517,1157.69,513.49Z" transform="translate(-970 -389)"/><path class="cls-4" d="M1133.41,518.34l1.49.12h.29c15.29.66,27.51-11.43,29.17-27l2.44-14.33a37.42,37.42,0,0,1-1.62-13.16h0c-.09,0-8,1.84-20.94-5.55s-21.85-.2-27.34,9.22a19.4,19.4,0,0,0-1.79,5.85l-.47,6.95-.25,3.82-.56,8.22-.12,1.85c0,.16,0,.31,0,.47A22.12,22.12,0,0,0,1127.51,517a20.43,20.43,0,0,0,5.36,1.32Zm-4.18-30.62c-.11.5,1.46,1.34,2.82,1.66l-.48,2c-.51-.13-5-1.28-4.38-4.15.44-2,2.66-2.57,3.93-2.74l1.21-6.65,2.06.37-1.51,8.3H1132C1131.22,486.57,1129.42,486.88,1129.23,487.72ZM1152,470.6c5.85,1.59,2.16,11.68,2.16,11.68s.65-8.1-3-9.09-7.05,5.57-7.05,5.57S1146.17,469,1152,470.6ZM1125,465.45c4.36.55,2.47,10.08,2.47,10.08s-.16-7.3-2.9-7.65-4.66,6-4.66,6S1120.61,464.9,1125,465.45Zm5.71,39.07c-3.69-.58-3.55-5.19-3.55-5.19l10.08,1.5S1134.37,505.11,1130.68,504.52Z" transform="translate(-970 -389)"/><path class="cls-9" d="M1166.85,496.26a4.5,4.5,0,0,0,.9.73c.13.08.26.14.4.21a3.91,3.91,0,0,0,.67.27,18.81,18.81,0,0,1,.58-3.6,1.48,1.48,0,0,1,1.13-.2,1.28,1.28,0,0,1,.75.71,16.76,16.76,0,0,0-.54,3.33,7,7,0,0,0,1.35-.2,10.15,10.15,0,0,0,2.76-1.2h0l.19-.13c.29-.19.87-.6,1.43-1a16.84,16.84,0,0,0,3.38-3.94c2.84-4.56,3.19-9.62,1.11-12.3a4.77,4.77,0,0,0-1.24-1.13,3.55,3.55,0,0,0-.61-.32c-6.16-1.75-8.94,6.38-8.94,6.38a18.67,18.67,0,0,1-1.32-2,18.56,18.56,0,0,0-1.24,1.73C1164.64,488.35,1164.39,493.71,1166.85,496.26Z" transform="translate(-970 -389)"/><path class="cls-8" d="M1174.86,496.31h0a20.29,20.29,0,0,1,.2,2.87c0,5-1.53,7.55-2.18,7.55s-2.1-2.46-2.17-7.21v-.34c0-.52,0-1,0-1.47a16.76,16.76,0,0,1,.54-3.33,1.28,1.28,0,0,0-.75-.71,1.48,1.48,0,0,0-1.13.2,18.81,18.81,0,0,0-.58,3.6c0,.57-.07,1.13-.07,1.71a23,23,0,0,0,.13,2.5c.42,3.77,1.77,7,4,7,2.71,0,4.13-4.78,4.13-9.5a21.41,21.41,0,0,0-.39-4.15l-.13.11c-.56.44-1.14.85-1.43,1Z" transform="translate(-970 -389)"/><path class="cls-2" d="M1174.15,432.35c-9.32-4-21.89-6.78-32.33-4.86,9.77-.59,7.9,13.45,7.9,13.45l18.08.69s8.25,17.7,11.42,28.23C1183.26,460,1189.1,438.79,1174.15,432.35Z" transform="translate(-970 -389)"/><polygon class="cls-2" points="195.17 75.02 195.18 75.03 195.18 75.02 195.17 75.02"/><path class="cls-2" d="M1124.54,467.88c2.74.35,2.9,7.65,2.9,7.65s1.89-9.53-2.47-10.08-5.09,8.42-5.09,8.42S1121.79,467.53,1124.54,467.88Z" transform="translate(-970 -389)"/><path class="cls-2" d="M1151.15,473.19c3.69,1,3,9.09,3,9.09s3.69-10.09-2.16-11.68-7.93,8.16-7.93,8.16S1147.46,472.19,1151.15,473.19Z" transform="translate(-970 -389)"/><path class="cls-2" d="M1137.21,500.83l-10.08-1.5s-.14,4.61,3.55,5.19S1137.21,500.83,1137.21,500.83Z" transform="translate(-970 -389)"/><path class="cls-9" d="M1132.88,486.55l1.51-8.3-2.06-.37-1.21,6.65c-1.27.17-3.49.74-3.93,2.74-.63,2.87,3.87,4,4.38,4.15l.48-2c-1.36-.32-2.93-1.16-2.82-1.66.19-.84,2-1.15,2.79-1.16Z" transform="translate(-970 -389)"/><path class="cls-2" d="M1144.23,458.47c12.9,7.39,20.85,5.57,20.94,5.55h0a37.42,37.42,0,0,0,1.62,13.16,23.83,23.83,0,0,0,2.06,4.64,18.67,18.67,0,0,0,1.32,2s2.78-8.13,8.94-6.38h0c1.94.55,1.54-2.77.09-7.59-3.17-10.53-11.42-28.23-11.42-28.23l-18.08-.69s1.87-14-7.9-13.45a13.44,13.44,0,0,0-2.52.43,23.25,23.25,0,0,0-3.89,1.45l-.1.05-.06,0,0,0a54.24,54.24,0,0,0-6.37,3.53c-12.08,7.88-16,19-13.75,40.55h0a19.4,19.4,0,0,1,1.79-5.85C1122.38,458.27,1131.25,451,1144.23,458.47Z" transform="translate(-970 -389)"/><path class="cls-5" d="M1178.43,434a36.44,36.44,0,0,1,7.52,17.19.64.64,0,0,1,0,.07,5.27,5.27,0,0,0,6.8-1.06,48.11,48.11,0,0,0-6.19-17.58l-.24-.39s-4.65-3-8.52,1.09l.24.26.29.32Z" transform="translate(-970 -389)"/></svg>