<svg id="Layer_1" data-name="Layer 1" xmlns="http://www.w3.org/2000/svg" viewBox="0 0 613 627.98"><defs><style>.cls-1{opacity:0.2;}.cls-2{fill:#c5e6f9;}</style></defs><title>bg-element4</title><g class="cls-1"><ellipse class="cls-2" cx="24.65" cy="21.73" rx="24.65" ry="21.73"/><ellipse class="cls-2" cx="105.18" cy="21.73" rx="24.65" ry="21.73"/><ellipse class="cls-2" cx="185.71" cy="21.73" rx="24.65" ry="21.73"/><ellipse class="cls-2" cx="266.24" cy="21.73" rx="24.65" ry="21.73"/><ellipse class="cls-2" cx="346.76" cy="21.73" rx="24.65" ry="21.73"/><ellipse class="cls-2" cx="427.29" cy="21.73" rx="24.65" ry="21.73"/><ellipse class="cls-2" cx="507.82" cy="21.73" rx="24.65" ry="21.73"/><ellipse class="cls-2" cx="588.35" cy="21.73" rx="24.65" ry="21.73"/><ellipse class="cls-2" cx="24.65" cy="94.79" rx="24.65" ry="21.73"/><ellipse class="cls-2" cx="105.18" cy="94.79" rx="24.65" ry="21.73"/><ellipse class="cls-2" cx="185.71" cy="94.79" rx="24.65" ry="21.73"/><ellipse class="cls-2" cx="266.24" cy="94.79" rx="24.65" ry="21.73"/><ellipse class="cls-2" cx="346.76" cy="94.79" rx="24.65" ry="21.73"/><ellipse class="cls-2" cx="427.29" cy="94.79" rx="24.65" ry="21.73"/><ellipse class="cls-2" cx="507.82" cy="94.79" rx="24.65" ry="21.73"/><ellipse class="cls-2" cx="588.35" cy="94.79" rx="24.65" ry="21.73"/><ellipse class="cls-2" cx="24.65" cy="167.86" rx="24.65" ry="21.73"/><ellipse class="cls-2" cx="105.18" cy="167.86" rx="24.65" ry="21.73"/><ellipse class="cls-2" cx="185.71" cy="167.86" rx="24.65" ry="21.73"/><ellipse class="cls-2" cx="266.24" cy="167.86" rx="24.65" ry="21.73"/><ellipse class="cls-2" cx="346.76" cy="167.86" rx="24.65" ry="21.73"/><ellipse class="cls-2" cx="427.29" cy="167.86" rx="24.65" ry="21.73"/><ellipse class="cls-2" cx="507.82" cy="167.86" rx="24.65" ry="21.73"/><ellipse class="cls-2" cx="588.35" cy="167.86" rx="24.65" ry="21.73"/><ellipse class="cls-2" cx="24.65" cy="240.92" rx="24.65" ry="21.73"/><ellipse class="cls-2" cx="105.18" cy="240.92" rx="24.65" ry="21.73"/><ellipse class="cls-2" cx="185.71" cy="240.92" rx="24.65" ry="21.73"/><ellipse class="cls-2" cx="266.24" cy="240.92" rx="24.65" ry="21.73"/><ellipse class="cls-2" cx="346.76" cy="240.92" rx="24.65" ry="21.73"/><ellipse class="cls-2" cx="427.29" cy="240.92" rx="24.65" ry="21.73"/><ellipse class="cls-2" cx="507.82" cy="240.92" rx="24.65" ry="21.73"/><ellipse class="cls-2" cx="588.35" cy="240.92" rx="24.65" ry="21.73"/><ellipse class="cls-2" cx="24.65" cy="313.99" rx="24.65" ry="21.73"/><ellipse class="cls-2" cx="105.18" cy="313.99" rx="24.65" ry="21.73"/><ellipse class="cls-2" cx="185.71" cy="313.99" rx="24.65" ry="21.73"/><ellipse class="cls-2" cx="266.24" cy="313.99" rx="24.65" ry="21.73"/><ellipse class="cls-2" cx="346.76" cy="313.99" rx="24.65" ry="21.73"/><ellipse class="cls-2" cx="427.29" cy="313.99" rx="24.65" ry="21.73"/><ellipse class="cls-2" cx="507.82" cy="313.99" rx="24.65" ry="21.73"/><ellipse class="cls-2" cx="588.35" cy="313.99" rx="24.65" ry="21.73"/><ellipse class="cls-2" cx="24.65" cy="387.06" rx="24.65" ry="21.73"/><ellipse class="cls-2" cx="105.18" cy="387.06" rx="24.65" ry="21.73"/><ellipse class="cls-2" cx="185.71" cy="387.06" rx="24.65" ry="21.73"/><ellipse class="cls-2" cx="266.24" cy="387.06" rx="24.65" ry="21.73"/><ellipse class="cls-2" cx="346.76" cy="387.06" rx="24.65" ry="21.73"/><ellipse class="cls-2" cx="427.29" cy="387.06" rx="24.65" ry="21.73"/><ellipse class="cls-2" cx="507.82" cy="387.06" rx="24.65" ry="21.73"/><ellipse class="cls-2" cx="588.35" cy="387.06" rx="24.65" ry="21.73"/><ellipse class="cls-2" cx="24.65" cy="460.12" rx="24.65" ry="21.73"/><ellipse class="cls-2" cx="105.18" cy="460.12" rx="24.65" ry="21.73"/><ellipse class="cls-2" cx="185.71" cy="460.12" rx="24.65" ry="21.73"/><ellipse class="cls-2" cx="266.24" cy="460.12" rx="24.65" ry="21.73"/><ellipse class="cls-2" cx="346.76" cy="460.12" rx="24.65" ry="21.73"/><ellipse class="cls-2" cx="427.29" cy="460.12" rx="24.65" ry="21.73"/><ellipse class="cls-2" cx="507.82" cy="460.12" rx="24.65" ry="21.73"/><ellipse class="cls-2" cx="588.35" cy="460.12" rx="24.65" ry="21.73"/><ellipse class="cls-2" cx="24.65" cy="533.19" rx="24.65" ry="21.73"/><ellipse class="cls-2" cx="105.18" cy="533.19" rx="24.65" ry="21.73"/><ellipse class="cls-2" cx="185.71" cy="533.19" rx="24.65" ry="21.73"/><ellipse class="cls-2" cx="266.24" cy="533.19" rx="24.65" ry="21.73"/><ellipse class="cls-2" cx="346.76" cy="533.19" rx="24.65" ry="21.73"/><ellipse class="cls-2" cx="427.29" cy="533.19" rx="24.65" ry="21.73"/><ellipse class="cls-2" cx="507.82" cy="533.19" rx="24.65" ry="21.73"/><ellipse class="cls-2" cx="588.35" cy="533.19" rx="24.65" ry="21.73"/><ellipse class="cls-2" cx="24.65" cy="606.25" rx="24.65" ry="21.73"/><ellipse class="cls-2" cx="105.18" cy="606.25" rx="24.65" ry="21.73"/><ellipse class="cls-2" cx="185.71" cy="606.25" rx="24.65" ry="21.73"/><ellipse class="cls-2" cx="266.24" cy="606.25" rx="24.65" ry="21.73"/><ellipse class="cls-2" cx="346.76" cy="606.25" rx="24.65" ry="21.73"/><ellipse class="cls-2" cx="427.29" cy="606.25" rx="24.65" ry="21.73"/><ellipse class="cls-2" cx="507.82" cy="606.25" rx="24.65" ry="21.73"/><ellipse class="cls-2" cx="588.35" cy="606.25" rx="24.65" ry="21.73"/></g></svg>