<svg id="Layer_1" data-name="Layer 1" xmlns="http://www.w3.org/2000/svg" xmlns:xlink="http://www.w3.org/1999/xlink" viewBox="0 0 649.27 945.17"><defs><style>.cls-1{fill:none;}.cls-2{clip-path:url(#clip-path);}.cls-3{fill:#dcf6ff;}.cls-4{fill:#2b2b2b;}</style><clipPath id="clip-path" transform="translate(-438.06 13.08)"><ellipse class="cls-1" cx="794.26" cy="448.06" rx="253.39" ry="223.31"/></clipPath></defs><title>bg-element2</title><g class="cls-2"><polygon class="cls-3" points="546.22 257.84 567.36 252.82 649.27 520.92 628.12 525.94 546.22 257.84"/><polygon class="cls-4" points="45.31 376.7 66.45 371.69 148.36 639.78 127.22 644.8 45.31 376.7"/><polygon class="cls-3" points="481.1 220.56 502.25 215.54 614.2 581.98 593.06 586.99 481.1 220.56"/><polygon class="cls-3" points="425.84 215.51 446.98 210.49 569.28 610.8 548.14 615.82 425.84 215.51"/><polygon class="cls-3" points="353.31 153.97 374.46 148.95 541.63 696.11 520.48 701.12 353.31 153.97"/><polygon class="cls-3" points="287.05 112.91 308.19 107.89 507.71 760.94 486.57 765.96 287.05 112.91"/><polygon class="cls-3" points="200.36 5.02 221.51 0 494.22 892.61 473.07 897.62 200.36 5.02"/><polygon class="cls-3" points="186.87 136.68 208.01 131.66 407.53 784.72 386.39 789.73 186.87 136.68"/><polygon class="cls-3" points="100.18 28.79 121.33 23.77 394.04 916.38 372.89 921.4 100.18 28.79"/><polygon class="cls-3" points="86.69 160.45 107.83 155.44 307.35 808.49 286.21 813.5 86.69 160.45"/><polygon class="cls-3" points="0 52.56 21.14 47.55 293.86 940.15 272.71 945.17 0 52.56"/></g></svg>