<?xml version="1.0" encoding="utf-8"?>
<!-- Generator: Adobe Illustrator 23.0.1, SVG Export Plug-In . SVG Version: 6.00 Build 0)  -->
<svg version="1.1" id="Layer_1" xmlns="http://www.w3.org/2000/svg" xmlns:xlink="http://www.w3.org/1999/xlink" x="0px" y="0px"
	 viewBox="0 0 1920 1080" style="enable-background:new 0 0 1920 1080;" xml:space="preserve">
<style type="text/css">
	.st0{fill:#AFCDFB;}
	.st1{fill:#9ABCEF;}
	.st2{fill:#E9F3FE;}
	.st3{fill:#D8E8FD;}
	.st4{fill:#BBD5FC;}
	.st5{fill:#D2E4FD;}
	.st6{fill:#C65447;}
	.st7{fill:#FFB27D;}
	.st8{fill:#E58638;}
	.st9{fill:#233862;}
	.st10{fill:#2B478B;}
	.st11{fill:#EE9849;}
	.st12{fill:#ED985F;}
	.st13{fill:#2C3A64;}
</style>
<g>
	<g>
		<path class="st0" d="M632.28,478.54c0,0-11.5-0.56-5.4,34.49c0,0,4.1,11.9-1.08,19.57h76.28v-54.06H632.28z"/>
		<rect x="637.12" y="499.29" class="st1" width="79.63" height="103.85"/>
		<rect x="639.72" y="499.29" class="st2" width="78.3" height="103.85"/>
		<path class="st2" d="M718.02,499.29C718.02,499.29,718.02,499.29,718.02,499.29l-78.3,0c0.43-5.92-0.22-10.22-1.27-13.31
			c-2.01-5.94-5.47-7.44-5.47-7.44h73.84c6.3,0,11.19,3.8,12.52,8.84c0.05,0.19,0.1,0.38,0.14,0.57
			C720.75,493.71,718.07,499.18,718.02,499.29z"/>
		<path class="st3" d="M718.02,499.29C718.02,499.29,718.02,499.29,718.02,499.29l-78.3,0c0.43-5.92-0.22-10.22-1.27-13.31
			c8,1.47,27.82,4.59,49.03,4.06c13.72-0.34,24.57-1.26,32-2.09C720.75,493.71,718.07,499.18,718.02,499.29z"/>
		<g>
			<path class="st4" d="M697.14,523.24h-41.12c-0.54,0-0.97-0.44-0.97-0.97v0c0-0.54,0.44-0.97,0.97-0.97h41.12
				c0.54,0,0.97,0.44,0.97,0.97l0,0C698.11,522.8,697.68,523.24,697.14,523.24z"/>
			<path class="st4" d="M680.91,526.51h-24.89c-0.54,0-0.97-0.44-0.97-0.97l0,0c0-0.54,0.44-0.97,0.97-0.97h24.89
				c0.54,0,0.97,0.44,0.97,0.97l0,0C681.88,526.07,681.44,526.51,680.91,526.51z"/>
			<g>
				<path class="st4" d="M651.04,526.2v-3.98h-0.53c-0.32,0-0.48-0.13-0.48-0.4c0-0.19,0.12-0.33,0.37-0.41
					c0.13-0.04,0.33-0.07,0.61-0.1c0.28-0.02,0.5-0.03,0.67-0.03c0.16,0,0.27,0.03,0.31,0.1c0.04,0.07,0.06,0.23,0.06,0.51v4.3h0.54
					c0.35,0,0.53,0.15,0.53,0.45c0,0.32-0.17,0.48-0.53,0.48h-2.18c-0.15,0-0.28-0.04-0.39-0.12c-0.1-0.08-0.16-0.2-0.16-0.35
					c0-0.31,0.18-0.46,0.53-0.46H651.04z"/>
			</g>
		</g>
		<g>
			<path class="st5" d="M697.14,543.75h-41.12c-0.54,0-0.97-0.44-0.97-0.97l0,0c0-0.54,0.44-0.97,0.97-0.97h41.12
				c0.54,0,0.97,0.44,0.97,0.97l0,0C698.11,543.31,697.68,543.75,697.14,543.75z"/>
			<path class="st5" d="M680.91,547.02h-24.89c-0.54,0-0.97-0.44-0.97-0.97l0,0c0-0.54,0.44-0.97,0.97-0.97h24.89
				c0.54,0,0.97,0.44,0.97,0.97l0,0C681.88,546.59,681.44,547.02,680.91,547.02z"/>
			<g>
				<path class="st5" d="M653.22,546.63c0,0.27-0.19,0.4-0.56,0.4h-2.31c-0.33,0-0.5-0.13-0.5-0.4c0-0.08,0.04-0.18,0.13-0.3
					c0.13-0.15,0.32-0.38,0.58-0.67c0.38-0.48,0.71-0.9,0.96-1.25c0.09-0.12,0.22-0.3,0.38-0.53c0.14-0.24,0.2-0.44,0.2-0.6
					c0-0.18-0.06-0.33-0.18-0.45c-0.12-0.12-0.27-0.18-0.45-0.18c-0.18,0-0.33,0.06-0.46,0.17c-0.09,0.08-0.16,0.22-0.21,0.42
					c-0.07,0.27-0.11,0.42-0.13,0.46c-0.07,0.15-0.19,0.23-0.34,0.23c-0.14,0-0.25-0.05-0.33-0.15c-0.08-0.09-0.11-0.21-0.11-0.35
					c0-0.16,0.03-0.33,0.08-0.5c0.11-0.36,0.31-0.64,0.6-0.83c0.27-0.18,0.6-0.27,0.99-0.27c0.43,0,0.78,0.13,1.07,0.39
					c0.3,0.27,0.44,0.62,0.44,1.04c0,0.31-0.11,0.64-0.32,0.97c-0.12,0.18-0.36,0.51-0.72,0.97c-0.19,0.24-0.48,0.59-0.89,1.04h1.52
					C653.03,546.21,653.22,546.35,653.22,546.63z"/>
			</g>
		</g>
		<g>
			<path class="st5" d="M697.14,560.86h-41.12c-0.54,0-0.97-0.44-0.97-0.97l0,0c0-0.54,0.44-0.97,0.97-0.97h41.12
				c0.54,0,0.97,0.44,0.97,0.97l0,0C698.11,560.42,697.68,560.86,697.14,560.86z"/>
			<path class="st5" d="M680.91,564.13h-24.89c-0.54,0-0.97-0.44-0.97-0.97v0c0-0.54,0.44-0.97,0.97-0.97h24.89
				c0.54,0,0.97,0.44,0.97,0.97l0,0C681.88,563.7,681.44,564.13,680.91,564.13z"/>
			<g>
				<path class="st5" d="M653.22,562.5c0,0.5-0.18,0.9-0.52,1.2c-0.33,0.29-0.75,0.43-1.26,0.43c-0.39,0-0.73-0.09-1.01-0.28
					c-0.44-0.3-0.66-0.65-0.66-1.07c0-0.12,0.04-0.22,0.12-0.31c0.08-0.09,0.17-0.13,0.29-0.13c0.12,0,0.24,0.08,0.35,0.25
					c0.18,0.28,0.28,0.43,0.31,0.46c0.16,0.17,0.36,0.25,0.61,0.25c0.34,0,0.58-0.12,0.72-0.37c0.07-0.12,0.1-0.28,0.1-0.47
					c0-0.47-0.28-0.73-0.83-0.78c-0.31-0.03-0.47-0.16-0.47-0.4c0-0.17,0.09-0.29,0.27-0.37c0.34-0.12,0.51-0.19,0.51-0.19
					c0.18-0.12,0.27-0.33,0.27-0.63c0-0.18-0.05-0.32-0.16-0.42c-0.11-0.1-0.25-0.15-0.42-0.15c-0.22,0-0.39,0.05-0.52,0.16
					c-0.11,0.09-0.19,0.25-0.27,0.47c-0.06,0.17-0.17,0.25-0.33,0.25c-0.11,0-0.21-0.05-0.28-0.15c-0.07-0.1-0.11-0.21-0.11-0.33
					c0-0.15,0.04-0.3,0.12-0.45c0.13-0.25,0.34-0.44,0.62-0.58c0.25-0.13,0.53-0.19,0.83-0.19c0.41,0,0.75,0.12,1.02,0.37
					c0.27,0.25,0.41,0.57,0.41,0.97c0,0.48-0.2,0.87-0.6,1.15C652.93,561.42,653.22,561.86,653.22,562.5z"/>
			</g>
		</g>
		<g>
			<path class="st4" d="M692.18,506.19h-25.21c-0.62,0-1.13-0.51-1.13-1.13v0c0-0.62,0.51-1.13,1.13-1.13h25.21
				c0.62,0,1.13,0.51,1.13,1.13l0,0C693.31,505.68,692.8,506.19,692.18,506.19z"/>
			<path class="st4" d="M699.1,509.67h-39.07c-0.62,0-1.13-0.51-1.13-1.13l0,0c0-0.62,0.51-1.13,1.13-1.13h39.07
				c0.62,0,1.13,0.51,1.13,1.13l0,0C700.23,509.17,699.73,509.67,699.1,509.67z"/>
		</g>
		<g>
			<path class="st6" d="M676.54,533.74c-8.53,0-16.62-1.07-22.66-2.6c-6.1-1.55-9.38-4.07-9.38-6.31c0-2.03,2.68-3.9,7.74-5.4l0,0
				c-4.85,1.44-7.45,3.55-7.45,5.4c0,2.05,3.36,4.08,9.23,5.56c6.01,1.52,14.01,2.36,22.52,2.36c8.51,0,16.5-0.84,22.52-2.36
				c5.86-1.49,9.23-3.51,9.23-5.56c0-2.17-3.54-4.87-9.24-7.04c-6.48-2.47-14.47-3.38-22.5-3.38c-15.07,0-21.28,1.76-26.66,3.96l0,0
				c5.41-2.21,11.53-4.72,26.66-4.72c8.06,0,16.09,1.37,22.6,3.85c5.82,2.22,9.44,5.03,9.44,7.34c0,2.24-3.36,4.33-9.45,5.87
				C693.08,532.23,685.06,533.74,676.54,533.74z"/>
		</g>
		<g>
			<path class="st7" d="M728.33,553.73c0,0-0.28,2.73-0.59,3.25c-0.31,0.52-1.62,2.17-2.18,2.49c-0.56,0.32,0.34-2.17,0.23-2.66
				c-0.11-0.49-0.46,0.89-0.71,0.92c-0.25,0.03-0.18-1.2-0.19-1.65c-0.01-0.45,1.2-1.56,1.62-2.52
				C726.94,552.6,728.33,553.73,728.33,553.73z"/>
			<path class="st7" d="M694.78,528.55l-0.63-1.18c0,0,0.31-2.11-2.33-3.44c0,0-0.97-0.39-1.51,0.39c-0.5,0.73,0.96,0.59,0.88,1.84
				c-0.08,1.24,0.51,1.97,1.33,2.37l0.68,0.79L694.78,528.55z"/>
			<path class="st8" d="M719.77,525.72c0,0-2.27,11.14-14.76,14.78c-3.9,1.14-12.76-11.7-12.76-11.7s0.31-1.18,2.26-0.91
				c0,0,8.63,5.71,9.71,6.33c0.96,0.55,7.3-7.08,10.19-8.31C717.3,524.68,719.77,525.72,719.77,525.72z"/>
			<g>
				
					<rect x="690.98" y="519.7" transform="matrix(0.1518 -0.9884 0.9884 0.1518 67.5934 1129.9093)" class="st6" width="2.33" height="11.74"/>
				<polygon class="st7" points="683.65,524.27 686.17,525.83 686.52,523.53 				"/>
				<path class="st7" d="M699.36,526.28l-0.11,0.73c-0.07,0.45-0.49,0.76-0.94,0.69l-0.54-0.08l0.35-2.31l0.58,0.09
					C699.13,525.46,699.42,525.86,699.36,526.28z"/>
			</g>
			<g>
				<path class="st9" d="M734.68,595.77c0,0,1.55,1.41,1.25,2.42c-0.3,1-1.7,1.67-1.89,2.9c-0.19,1.23-0.95,1.9-1.63,1.9
					s-3.24,0-3.24,0s-0.5-0.86,0.71-1.12c1.21-0.26,1.67-1.7,1.59-3.04c-0.08-1.34,0.11-3.13,0.11-3.13l2.57-0.6L734.68,595.77z"/>
				<path class="st9" d="M715.67,599.43c0,0,0.28,3.22-0.4,3.55l-8.71-0.02c0,0,0-1.01,1.4-1.23c1.4-0.22,3.86-1.04,4.27-2.87
					C712.65,597.04,715.67,599.43,715.67,599.43z"/>
				<path class="st10" d="M708.32,553.95c0,0,0.46,5.64,1,12.43c0.73,9.21,1.62,20.53,1.7,22.68c0.15,3.72,0.76,9.68,0.76,9.68
					s1.44,1.41,4.31,0.82c0,0,2.56-8.5,3.29-17.5c0.01-0.15,0.02-0.3,0.03-0.44c0.68-9.16,1.74-28.44,1.74-28.44L708.32,553.95z"/>
				<path class="st9" d="M708.32,553.95c0,0,0.46,5.64,1,12.43l10.06,15.68c0.01-0.15,0.02-0.3,0.03-0.44
					c0.68-9.16,1.74-28.44,1.74-28.44L708.32,553.95z"/>
				<path class="st10" d="M710.41,554.62c0,0,8.28,20.44,13.72,30.04c5.44,9.6,7.14,12.28,7.14,12.28s3.12-1.23,3.4-2.07
					c0,0-2.08-18.54-5.73-23.06c-2.06-2.55-4.48-10.22-4.59-12.9c-0.11-2.68-0.74-7.98-0.74-7.98L710.41,554.62z"/>
			</g>
			<path class="st7" d="M721.31,523.13c0,0-5.6,2.7-8.83,1.7c0,0,0.79-1,2.19-1.75c-0.11-0.65-0.2-1.21-0.25-1.69
				c-0.14-1.1-0.14-1.72-0.14-1.72l2.16-1.7l2.05-1.63C718.33,520.92,721.31,523.13,721.31,523.13z"/>
			<path class="st11" d="M724.26,551.99c0.01,0.34-0.72,0.73-1.04,0.88c-2.4,1.05-4.63,1.79-7.17,2.03
				c-2.99,0.31-6.53-0.37-7.75-0.34c-0.12,0-0.24-0.05-0.34-0.13c-0.09-0.06-0.15-3.67-0.09-8.21c0-0.18,0-0.37,0.01-0.55v-0.06
				c0.02-1.77,0.09-3.63,0.17-5.49c0.17-4.08,0.5-8.02,1.04-10.2c0.66-2.57,2.15-4.27,3.5-5.5l1.12-0.98
				c1.12,0.22,2.3,0.16,3.48-0.42c1.29-0.62,2.68-1.3,2.91-1.13c1.69,1.24,2.83,4.01,3.44,7.56c0.35,2.04,0.52,4.33,0.51,6.73
				c0,0.88-0.02,1.79-0.07,2.68c-0.3,4.84,0,9.05,0.17,11.48C724.21,551.04,724.25,551.59,724.26,551.99z"/>
			<path class="st8" d="M724.16,551.76c-19.62-0.04-3.62-21.28-3.62-21.28l3.18-1.03c0.25,2.18,0.38,4.63,0.37,7.19
				c0,0.94-0.02,1.91-0.05,2.86C723.82,544.67,724.03,549.16,724.16,551.76z"/>
			<path class="st12" d="M718.53,518.09c0,0-1.42,2.58-4.11,3.3c-0.14-1.1-0.14-1.72-0.14-1.72l2.16-1.7L718.53,518.09z"/>
			<path class="st7" d="M713.29,519.6c0,0,5.34,0.87,5.85-2.41c0.5-3.29,1.53-5.38-1.86-6.08c-3.39-0.7-4.25,0.46-4.68,1.51
				C712.15,513.67,711.91,519.28,713.29,519.6z"/>
			<path class="st13" d="M721.08,510.71c0.05-0.06,0.16-0.1,0.41-0.11c0,0-0.2-0.12-0.47-0.13c-0.05-0.35-0.24-0.96-0.83-1.11
				c0,0,0.32,0.17,0.36,0.54c-0.69-0.71-2.17-1.22-6.26-0.9c-5.4,0.43-3.62,3.88-2.92,4.29c0.7,0.41,2.46-0.72,3.76-0.61
				c1.3,0.1,1.55,1.98,1.99,2.24c0.44,0.26,0.27-0.2,0.87-0.47c0.6-0.27,0.65,0.72,0.48,1.36c-0.17,0.64,0.65,1.49,0.65,1.49
				s0,0,0.83-0.89c0.83-0.89,1.61-4.68,1.23-5.49C721.15,510.85,721.11,510.78,721.08,510.71z"/>
			<path class="st11" d="M720.11,521.86c0,0,3.38,1.6,5,4.06c2.51,3.82,5.43,17.73,5.48,19.02c0.05,1.29-2.13,10.39-2.13,10.39
				s-2.21-0.15-2.78-1.26c0,0,0.44-9.35,0.16-9.95c-0.28-0.6-9.22-12.54-8.22-15.08C718.63,526.49,720.11,521.86,720.11,521.86z"/>
			<path class="st7" d="M694.14,527.31c0,0,0.18-0.73-0.32-1.05c-0.5-0.33-0.97-1.21-1.18-1.09c-0.44,0.25,0.24,1.02,0.12,1.99
				C692.72,527.49,693.51,528.38,694.14,527.31z"/>
		</g>
		<path class="st5" d="M700.27,580.56h-48.15c-0.32,0-0.59-0.26-0.59-0.59l0,0c0-0.32,0.26-0.59,0.59-0.59h48.15
			c0.32,0,0.59,0.26,0.59,0.59l0,0C700.85,580.29,700.59,580.56,700.27,580.56z"/>
		<path class="st5" d="M700.27,582.9h-48.15c-0.32,0-0.59-0.26-0.59-0.59l0,0c0-0.32,0.26-0.59,0.59-0.59h48.15
			c0.32,0,0.59,0.26,0.59,0.59l0,0C700.85,582.64,700.59,582.9,700.27,582.9z"/>
		<path class="st5" d="M700.27,585.5h-48.15c-0.32,0-0.59-0.26-0.59-0.59l0,0c0-0.32,0.26-0.59,0.59-0.59h48.15
			c0.32,0,0.59,0.26,0.59,0.59l0,0C700.85,585.24,700.59,585.5,700.27,585.5z"/>
		<path class="st5" d="M693.91,588.1h-41.79c-0.32,0-0.59-0.26-0.59-0.59l0,0c0-0.32,0.26-0.59,0.59-0.59h41.79
			c0.32,0,0.59,0.26,0.59,0.59l0,0C694.49,587.84,694.23,588.1,693.91,588.1z"/>
	</g>
</g>
</svg>
