<?xml version="1.0" encoding="utf-8"?>
<!-- Generator: Adobe Illustrator 23.0.1, SVG Export Plug-In . SVG Version: 6.00 Build 0)  -->
<svg version="1.1" id="Layer_1" xmlns="http://www.w3.org/2000/svg" xmlns:xlink="http://www.w3.org/1999/xlink" x="0px" y="0px"
	 viewBox="0 0 1920 1080" style="enable-background:new 0 0 1920 1080;" xml:space="preserve">
<style type="text/css">
	.st0{fill:#FAB29A;}
	.st1{opacity:0.5;fill:#CC8A79;}
	.st2{fill:#875C50;}
	.st3{opacity:0.5;fill:#875C50;}
	.st4{fill:#FFFFFF;}
	.st5{fill:#B3B3B3;}
	.st6{fill:#333333;}
</style>
<g>
	<path class="st0" d="M394.16,314.48c0,0,3.29,1.94,5.94,0.4c2.65-1.54,4.51-2.71,4.51-2.71l-5.83-3.42L394.16,314.48z"/>
	<path class="st1" d="M394.16,314.48c0,0,3.29,1.94,5.94,0.4c2.65-1.54,4.51-2.71,4.51-2.71l-5.83-3.42L394.16,314.48z"/>
	<path class="st2" d="M438.47,293.49c-1.22,1.8-3.75,3.69-8.89,0.81c0,0,0,0,0.01,0.01c0.12,0.19,1.68,2.68,0.95,5.61
		c-0.08,0.32-0.19,0.65-0.33,0.98c-0.01,0.02-0.02,0.05-0.03,0.07c-1.53,3.49-6.23,3.75-7.53,3.32v0c0.03,0.07,0.87,1.85-0.47,4.02
		c-0.16,0.26-0.35,0.52-0.57,0.78c-2.16,2.55-5.14,1.95-6.04,1.66c-0.91-0.28-1.93-1.09-1.93-1.09s-0.17,1.48-1.09,2.71
		c-0.64,0.86-1.64,1.6-3.2,1.61c-2.5,0.02-4.47-0.69-6.73-1.91c-0.51-0.28-1.04-0.58-1.59-0.9c-0.71-0.42-1.46-0.88-2.27-1.38
		c-4.24-2.59-20.73-10.73-20.73-10.73s-3.05-2.52-6.53-5.34c-3-2.43-6.32-5.09-8.28-6.53l-3.28-1.57l-9.59-4.59l-4.5-2.16
		l-12.92-6.18l17.76-25.38l8.76,3.83l10.98,4.8l6.53,2.85l14.88-3.45l3.56-0.84l11.93,7.56l29.53,18.72l1.18,4.73l1.16,2.61
		c0,0,0,0,0,0c0.13,0.29,0.2,0.6,0.22,0.92c0,0.02,0,0.04,0,0.06C439.44,290.09,439.37,292.16,438.47,293.49z"/>
	<path class="st3" d="M401.03,311.18c-0.71-0.42-1.46-0.88-2.27-1.38c-4.24-2.59-20.73-10.73-20.73-10.73s-3.05-2.52-6.53-5.34
		c-3-2.43-6.33-5.08-8.28-6.53l-3.28-1.57l-9.59-4.59l2.03-3.55l14.5,6.84c0,0,18,15.16,23.2,18.43c5.2,3.27,10.76,7.53,10.76,7.53
		L401.03,311.18z"/>
	<polygon class="st3" points="370.42,255.94 359.93,285.63 345.85,278.88 359.44,251.14 	"/>
	<path class="st3" d="M439.19,288.13C439.19,288.13,439.19,288.13,439.19,288.13l-1.16-2.61l-1.18-4.73l-29.53-18.72l0,0
		l-11.93-7.56l-3.56,0.84l-2.25,3.23l-10.02,13.74c0,0,1.71,4.31,7.21,3.85c5.49-0.46,10.13-8.08,12.07-8.99
		c0.77-0.36,5.07,1.17,10.4,3.42c7.88,4.36,23.24,12.92,26.52,15.12c1.78,1.2,2.92,2.37,3.65,3.34
		C439.39,288.73,439.32,288.42,439.19,288.13z"/>
	<path class="st3" d="M430.53,299.93c-3.1-2.18-8.31-5.72-10.97-7.55c-4.36-2.99-3.82-6.75-3.82-6.75l13.82,8.68c0,0,0,0,0.01,0.01
		C429.7,294.5,431.26,296.99,430.53,299.93z"/>
	<path class="st3" d="M422.18,308.32c-2.2-1.49-5.82-3.93-8.02-5.42c-3.33-2.26-3.48-6.62-3.48-6.62l11.97,8.02l0,0
		C422.68,304.37,423.52,306.15,422.18,308.32z"/>
	<path class="st3" d="M413.63,309.67c0,0-0.18,1.48-1.09,2.71c-1.91-1.14-4.68-2.85-6.44-4.22c-2.9-2.25-2.75-4.6-2.75-4.6
		L413.63,309.67z"/>
	<path class="st0" d="M481.22,266.05l-24.83,9.09l-10.09,3.69c-0.07,0.08-0.14,0.17-0.22,0.25c-1.89,2.15-4.2,3.92-5.87,5.06
		c-1.29,0.88-2.18,1.39-2.18,1.39l-0.7-0.9c-0.71-0.9-1.57-1.67-2.56-2.26l-4.21-2.52l-7.98-4.78l-1.48-0.89l-0.95-0.57
		l-16.91-10.14c-0.62-0.37-1.36-0.49-2.06-0.35c-0.12,0.02-0.23,0.06-0.35,0.1l-4.87,1.68l-0.28,0.1c-0.09,0.03-0.19,0.07-0.28,0.11
		c-0.31,0.14-0.59,0.34-0.83,0.58c-0.14,0.14-0.27,0.3-0.38,0.48c-3.72,5.88-7.6,7.72-10.51,8.07c-0.37,0.05-0.72,0.07-1.05,0.07
		c-0.76,0-1.43-0.09-1.99-0.22c-1.2-0.28-1.86-1.56-1.4-2.7l5.29-11.57c0.46-1.16,1.32-2.11,2.41-2.71l14.34-7.76
		c0.94-0.51,2.01-0.72,3.07-0.62l24.79,2.5l7.7-2.85l10.04-3.71l23.12-8.54l9.43,25.16L481.22,266.05z"/>
	<polygon class="st4" points="368.77,253.41 353.61,286.47 343.11,281.7 332.45,276.86 350.31,244.51 357.73,248.09 	"/>
	<path class="st3" d="M402.61,312.08c-1.17-0.63-2.42-1.4-3.86-2.28c-4.24-2.59-20.73-10.73-20.73-10.73s-3.05-2.52-6.53-5.34
		c1.57,0.05,4.71,0.61,7.94,3.88l4.3-2.04c0,0,4.69,0.39,6.48,6.57l4.42-1.97c0,0,3.16,1.52,3.64,5.58c0,0,3.56,1.27,4.15,3.5
		C402.73,310.42,402.71,311.41,402.61,312.08z"/>
	<path class="st0" d="M374.84,301.32c-0.67,0.09-1.44-0.01-2.26-0.39c-2.64-1.22-5.12-6.02-3.14-7.42c0,0,1.06-1.06,3.81,0.59
		c1.61,0.97,2.66,1.9,3.28,2.83c0.44,0.65,0.66,1.3,0.72,1.95C377.35,299.96,376.34,301.11,374.84,301.32z"/>
	<path class="st1" d="M374.84,301.32c0.42-1.69,1.22-3.43,1.69-4.39c0.44,0.65,0.66,1.3,0.72,1.95
		C377.35,299.96,376.34,301.11,374.84,301.32z"/>
	<path class="st0" d="M379.28,307.64c-2.37-0.5-3.83-2.9-3.27-5.25c0.36-1.51,1.02-3.56,2.2-5.4c2.34-3.65,9.19-2.1,8.51,4.01
		l-2.64,5.93C384.08,306.93,381.69,308.15,379.28,307.64z"/>
	<path class="st0" d="M395.31,304.96l-3.18,6.61c-0.18,0.08-3.3,1.15-5.94-0.72c-0.17-0.12-0.33-0.25-0.48-0.37
		c-2.06-1.75-1.64-3.56-1.64-3.56l2.64-5.93c0,0,1.89-3.62,5.18-2.78c0.07,0.02,0.14,0.03,0.2,0.06
		C395.51,299.31,396.16,302.46,395.31,304.96z"/>
	<path class="st0" d="M401.2,308.56c-0.34,1.73-1.79,6.15-1.79,6.15c-0.6,0.57-1.6,1.2-4.31,0.21c-0.54-0.19-0.98-0.44-1.34-0.72
		c-1.46-1.11-1.62-2.62-1.62-2.62l2.6-5.42c1.16-1,2.27-1.22,3.23-1.03C399.99,305.53,401.35,307.79,401.2,308.56z"/>
	<path class="st1" d="M391.89,298.21c-0.93,0.69-2.67,2.32-3.85,5.46c-0.88,2.35-1.72,4.91-2.32,6.81
		c-2.06-1.75-1.64-3.56-1.64-3.56l2.64-5.93C386.72,301,388.61,297.37,391.89,298.21z"/>
	<path class="st1" d="M397.97,305.13c-0.62,0.54-1.55,1.67-2.42,3.96c-0.73,1.92-1.35,3.75-1.8,5.11c-1.46-1.11-1.62-2.62-1.62-2.62
		l2.6-5.42C395.9,305.16,397.01,304.93,397.97,305.13z"/>
	<path class="st1" d="M479.44,261.29c-18.27,6.17-39.39,13.41-41.28,14.56c-1.63,0.99-3.29,1.53-4.58,1.82
		c-1.98-1.26-4.5-2.85-7.27-4.58c4.61-3.64,4.2-9.53,4.2-9.53c-1.42,4.51-3.75,7.02-5.98,8.42c-9.76-6.08-21.48-13.2-22.34-13.23
		c-1.43-0.04-7.6,1.97-7.6,1.97s-0.38,6.21-5.44,10.08c-2.14,1.64-4.01,2.71-5.47,3.42c2.91-0.35,6.79-2.19,10.51-8.07
		c0.11-0.17,0.24-0.33,0.38-0.48c0.05-0.05,0.11-0.11,0.17-0.16c0.01-0.01,0.02-0.02,0.04-0.03c0.06-0.05,0.12-0.1,0.18-0.14
		c0.01,0,0.01-0.01,0.02-0.01c0.06-0.04,0.12-0.08,0.18-0.12c0.01-0.01,0.02-0.01,0.03-0.02c0.07-0.04,0.14-0.08,0.21-0.11
		c0.04-0.02,0.09-0.04,0.13-0.06c0.05-0.02,0.1-0.04,0.15-0.06l0.28-0.1l4.87-1.68c0.05-0.02,0.11-0.04,0.16-0.05
		c0.01,0,0.03-0.01,0.04-0.01c0.04-0.01,0.08-0.02,0.12-0.03c0.71-0.15,1.45-0.04,2.08,0.34l16.91,10.14l2.44,1.46l7.98,4.78l0,0
		l4.21,2.52c0.98,0.59,1.85,1.36,2.56,2.26l0.7,0.9c0,0,0.9-0.5,2.18-1.39c1.73-1.18,4.16-3.05,6.08-5.31l34.92-12.78L479.44,261.29
		z"/>
	<path class="st1" d="M456.38,275.14l-10.09,3.69c-0.07,0.08-0.14,0.17-0.22,0.25l-9.23-30.7l10.04-3.71L456.38,275.14z"/>
	<polygon class="st4" points="473.07,273.14 462.75,276.67 451.08,280.65 439.2,246.27 450.83,242.01 458.44,239.21 	"/>
	<polygon class="st5" points="473.07,273.14 462.75,276.67 450.83,242.01 458.44,239.21 	"/>
	<polygon points="500.43,219.25 500.43,272.96 471.75,286.17 467.21,275.14 465.8,271.69 463.72,266.63 460.38,258.52 
		459.54,256.46 453.66,242.17 453.23,241.13 452.63,239.66 474.96,231.44 	"/>
	<polygon class="st5" points="357.73,248.09 343.11,281.7 332.45,276.86 350.31,244.51 	"/>
	<polygon points="356.05,245.52 355.31,246.92 354.27,248.88 347.54,261.57 346.5,263.54 339.88,276.02 338.08,279.41 332.5,289.95 
		313.57,278.9 309.1,276.29 306.56,274.8 306.56,218.21 334.62,235.17 	"/>
	<path class="st6" d="M316.84,275.17c-0.11,2.19-1.97,3.89-4.17,3.78c-2.19-0.11-3.89-1.97-3.78-4.17c0.11-2.19,1.97-3.89,4.17-3.78
		C315.25,271.11,316.94,272.98,316.84,275.17z"/>
</g>
</svg>
