<svg id="Layer_1" data-name="Layer 1" xmlns="http://www.w3.org/2000/svg" viewBox="0 0 310.17 241.24"><defs><style>.cls-1{fill:#1a2e35;}.cls-2{fill:#375a64;}.cls-3{fill:#ff735d;}.cls-4{fill:#e1e1e1;}.cls-5{fill:#ffbe9d;}.cls-6{fill:#eb996e;}.cls-7{fill:#fff;}.cls-8{opacity:0.3;}</style></defs><title>howto-3</title><path class="cls-1" d="M1057.61,533.38s.55.23,1.6.46a6.74,6.74,0,0,0,4.38-.43,5.25,5.25,0,0,0,2.2-2,3.94,3.94,0,0,0,.36-3.33,3.56,3.56,0,0,0-2.69-2.4,3.13,3.13,0,0,0-3.23,1.88,2.38,2.38,0,0,0,.08,1.94,3.17,3.17,0,0,0,1.37,1.39,3.63,3.63,0,0,0,1.85.48,4.66,4.66,0,0,0,1.82-.42,7.71,7.71,0,0,0,2.71-2.21,11.27,11.27,0,0,0,1.56-2.68,11.39,11.39,0,0,0,.84-4.41c0-1.07-.13-1.66-.09-1.67a1.67,1.67,0,0,1,.11.43,8.16,8.16,0,0,1,.15,1.24,11,11,0,0,1-.74,4.52,10.54,10.54,0,0,1-1.56,2.78,7.73,7.73,0,0,1-2.82,2.35,5,5,0,0,1-2,.48,4.2,4.2,0,0,1-2.06-.52,3.7,3.7,0,0,1-1.55-1.58,2.78,2.78,0,0,1-.09-2.28,3.54,3.54,0,0,1,3.68-2.13,4,4,0,0,1,3,2.68,4.3,4.3,0,0,1-.42,3.63,5.53,5.53,0,0,1-2.38,2.15,6.73,6.73,0,0,1-4.55.32,7.29,7.29,0,0,1-1.18-.41A1.38,1.38,0,0,1,1057.61,533.38Z" transform="translate(-924.44 -484.83)"/><path class="cls-1" d="M1121.25,515.51a11.68,11.68,0,0,0-3.06-9.12,9.86,9.86,0,0,0-9.08-2.79,11.86,11.86,0,0,0-6.17,3.22,6.42,6.42,0,0,0-1.26,1.8c0,.1-.11.2-.16.31l-.18.4,0,.07h0a11.85,11.85,0,0,0-.72,7.31,11.17,11.17,0,0,0,7.33,8,10.39,10.39,0,0,0,10.45-2.65A11.2,11.2,0,0,0,1121.25,515.51Z" transform="translate(-924.44 -484.83)"/><path class="cls-2" d="M1119.79,520.93c-.07,0-.22-.92-.79-2.31a12.67,12.67,0,0,0-8.41-7.5c-1.45-.41-2.39-.44-2.39-.52a2.36,2.36,0,0,1,.67,0,10.59,10.59,0,0,1,1.79.26,12,12,0,0,1,8.62,7.68,10,10,0,0,1,.46,1.75A1.72,1.72,0,0,1,1119.79,520.93Z" transform="translate(-924.44 -484.83)"/><path class="cls-2" d="M1116.62,514.52a6.75,6.75,0,0,1-.74,1.9,16.11,16.11,0,0,1-6.86,7,6.66,6.66,0,0,1-1.89.77,20.6,20.6,0,0,0,9.49-9.64Z" transform="translate(-924.44 -484.83)"/><path class="cls-3" d="M1107.86,511c-.12-.07.85-1.64,1.66-3.7a17.72,17.72,0,0,0,.85-3.92,2.47,2.47,0,0,1,.14,1.2,8.81,8.81,0,0,1-.6,2.87A10.91,10.91,0,0,1,1107.86,511Z" transform="translate(-924.44 -484.83)"/><path class="cls-3" d="M1177.29,605a94.42,94.42,0,0,0-165.22-35.41,80.39,80.39,0,0,0-9.1-.57,78.54,78.54,0,0,0,0,157.07h171A60.59,60.59,0,0,0,1177.29,605Z" transform="translate(-924.44 -484.83)"/><path class="cls-4" d="M1060.74,686.87c1.09-.27,2.3-1.4,3.24-2,2.3-1.48,4.58-3,6.83-4.57-8.1-2.35-15-4.21-23.07-6.51a27.35,27.35,0,0,0,.89,9.66c.75,2.5,2.18,5.17,4.71,5.84,2.3.6,4.64-.67,6.66-1.92l.57-.35" transform="translate(-924.44 -484.83)"/><path class="cls-1" d="M1062.13,682.39c-.12,0-.07-1.06-.36-2.3s-.77-2.17-.66-2.24a3.72,3.72,0,0,1,1.08,2.14A3.68,3.68,0,0,1,1062.13,682.39Z" transform="translate(-924.44 -484.83)"/><path class="cls-1" d="M1063.88,682a12.15,12.15,0,0,1-.13-1.82,11.7,11.7,0,0,1-.25-1.81,2.71,2.71,0,0,1,.67,1.77A2.58,2.58,0,0,1,1063.88,682Z" transform="translate(-924.44 -484.83)"/><path class="cls-2" d="M1053.18,675.32c.07,0-.16.84-.18,2.2a10.18,10.18,0,0,0,1.27,5,13.26,13.26,0,0,0,3.32,4.07,10.76,10.76,0,0,0,1.92,1s-.22,0-.6-.09a5.38,5.38,0,0,1-1.49-.71,12,12,0,0,1-3.52-4.1,9.61,9.61,0,0,1-1.2-5.26,8.66,8.66,0,0,1,.26-1.62C1053.06,675.51,1053.15,675.31,1053.18,675.32Z" transform="translate(-924.44 -484.83)"/><path class="cls-2" d="M1059.51,677.2a18,18,0,0,1,1.31,9.65c-.14,0,0-2.2-.41-4.86S1059.38,677.24,1059.51,677.2Z" transform="translate(-924.44 -484.83)"/><path class="cls-3" d="M1057.67,685.83a5.41,5.41,0,0,1-1.28-1,12,12,0,0,1-2.42-3.19,7,7,0,0,1-.73-3.93,2.84,2.84,0,0,1,.53-1.57c.07,0-.18.61-.23,1.6a7.56,7.56,0,0,0,.81,3.72,14.35,14.35,0,0,0,2.25,3.16A7,7,0,0,1,1057.67,685.83Z" transform="translate(-924.44 -484.83)"/><path class="cls-3" d="M1069,681.43a26.62,26.62,0,0,1-5.91,3.19,13.35,13.35,0,0,1,2.86-1.78A12.81,12.81,0,0,1,1069,681.43Z" transform="translate(-924.44 -484.83)"/><path class="cls-2" d="M1056.1,686a5.93,5.93,0,0,1-5.4,1.8c0-.13,1.31-.1,2.8-.61S1056,685.85,1056.1,686Z" transform="translate(-924.44 -484.83)"/><path class="cls-2" d="M1053.35,681.79c0,.12-1.1.27-2.32.84s-2.07,1.28-2.15,1.19a5.17,5.17,0,0,1,4.47-2Z" transform="translate(-924.44 -484.83)"/><path class="cls-2" d="M1052.82,678.09a24.89,24.89,0,0,0-2.68-.74,22.7,22.7,0,0,0-2.77,0,4.11,4.11,0,0,1,2.83-.41A4.26,4.26,0,0,1,1052.82,678.09Z" transform="translate(-924.44 -484.83)"/><path class="cls-5" d="M1115,666.36c0,.08-30.45,7.43-30.45,7.43L1080,663.27l2.06-3.17s12.89-2.91,23.38-8.85Z" transform="translate(-924.44 -484.83)"/><path class="cls-1" d="M1043.39,636.45s-1.38-2-7.31-4.93c-4.91-2.4-17.51-4.42-22.61,5.44s-1.19,25,7.31,28.23,22.61,7.65,28.4,9.52,24.82,6.64,24.82,6.64l7.82-4.6.93-14.59s-10.79-11.08-20-14.14S1043.39,636.45,1043.39,636.45Z" transform="translate(-924.44 -484.83)"/><path class="cls-1" d="M1025.78,629.58a47.88,47.88,0,0,1,14.91,2.48c2.36.88,4.66,1.83,4.66,1.83l3.46-9.85,25.92-8.64h28.69l9.34,18.49v.93s11.2.19,16.06-2.05,20-8.78,23.9-10.08,21.47-3.83,25.39,6.86,1.14,21.83-5.41,25.9c-3.09,1.92-55.27,15.41-55.27,15.41l-12.33-19.61s-18.78,9.31-25.08,8.3S1025.78,629.58,1025.78,629.58Z" transform="translate(-924.44 -484.83)"/><path class="cls-2" d="M1078.7,620.17s.06.12.13.37.18.67.29,1.11c.23,1,.54,2.35.84,4.09.64,3.48,1.27,8.32,1.76,13.69s.74,10.23.85,13.76c.06,1.77.07,3.2.07,4.18,0,.46,0,.83,0,1.14a2.12,2.12,0,0,1,0,.4,1.3,1.3,0,0,1,0-.4c0-.31,0-.68-.06-1.13-.06-1-.13-2.46-.21-4.17-.18-3.53-.49-8.39-1-13.75s-1.08-10.19-1.63-13.67c-.27-1.74-.53-3.14-.71-4.11-.08-.44-.15-.81-.21-1.12A2.22,2.22,0,0,1,1078.7,620.17Z" transform="translate(-924.44 -484.83)"/><path class="cls-2" d="M1112.47,635.28c0,.12-6.5.93-14.53,1.83s-14.57,1.52-14.58,1.4,6.49-.93,14.53-1.82S1112.46,635.16,1112.47,635.28Z" transform="translate(-924.44 -484.83)"/><path class="cls-2" d="M1108.19,635.32a4,4,0,0,1-.93-.07c-.59-.08-1.45-.19-2.51-.3a65.72,65.72,0,0,0-16.58.29c-1.06.15-1.91.28-2.5.38a3.65,3.65,0,0,1-.92.11,3.93,3.93,0,0,1,.89-.27c.58-.15,1.43-.33,2.48-.51a53.78,53.78,0,0,1,16.67-.3c1.06.16,1.91.31,2.5.44A4,4,0,0,1,1108.19,635.32Z" transform="translate(-924.44 -484.83)"/><path class="cls-2" d="M1112.15,634.2a28.89,28.89,0,0,0-5.56-2.06,29.25,29.25,0,0,0-5.91-.47,5.64,5.64,0,0,1,1.74-.28,15.4,15.4,0,0,1,8.27,1.82A5.19,5.19,0,0,1,1112.15,634.2Z" transform="translate(-924.44 -484.83)"/><path class="cls-2" d="M1088.26,650.25a9.19,9.19,0,0,1-5.65,2.26c0-.13,1.32-.42,2.86-1S1088.19,650.15,1088.26,650.25Z" transform="translate(-924.44 -484.83)"/><path class="cls-2" d="M1086.88,653.89a4.49,4.49,0,0,1-2.14.7,4.28,4.28,0,0,1-2.25-.08,10.21,10.21,0,0,1,2.19-.34A9.77,9.77,0,0,1,1086.88,653.89Z" transform="translate(-924.44 -484.83)"/><path class="cls-2" d="M1131,633.48s-.13.11-.38.27l-1.13.67-4.21,2.42-13.94,7.84-14,7.74-4.27,2.3-1.17.61c-.27.13-.42.2-.43.18a2.91,2.91,0,0,1,.39-.26l1.13-.68,4.2-2.41,13.95-7.85,14-7.73,4.27-2.3,1.18-.61A2.68,2.68,0,0,1,1131,633.48Z" transform="translate(-924.44 -484.83)"/><path class="cls-2" d="M1152.87,629.35a2.45,2.45,0,0,1-.53.14l-1.51.31c-1.31.27-3.2.7-5.51,1.35A100,100,0,0,0,1128,638c-6.54,3.29-12.2,6.74-16.3,9.24l-4.85,3-1.32.79a2.49,2.49,0,0,1-.48.25,2.72,2.72,0,0,1,.43-.32l1.28-.86c1.12-.74,2.75-1.8,4.78-3.09,4.06-2.56,9.71-6.06,16.27-9.35a92.43,92.43,0,0,1,17.48-6.8c2.33-.62,4.23-1,5.56-1.24.66-.12,1.18-.18,1.53-.23A2.68,2.68,0,0,1,1152.87,629.35Z" transform="translate(-924.44 -484.83)"/><path class="cls-2" d="M1165.72,625.66c0,.07-1,0-2.46,0a25,25,0,0,0-5.82.87,25.26,25.26,0,0,0-5.44,2.24c-1.31.75-2.08,1.3-2.12,1.24s.16-.18.49-.45a13.79,13.79,0,0,1,1.48-1,21,21,0,0,1,11.41-3.16,12.8,12.8,0,0,1,1.81.13A2.16,2.16,0,0,1,1165.72,625.66Z" transform="translate(-924.44 -484.83)"/><path class="cls-2" d="M1161.2,629.09c0,.13-2.17-.16-4.83-.06s-4.79.52-4.82.39a18.38,18.38,0,0,1,9.65-.33Z" transform="translate(-924.44 -484.83)"/><path class="cls-2" d="M1151.79,625.78c.06.11-1.81,1.1-3.89,2.66s-3.58,3-3.67,2.95a18.64,18.64,0,0,1,7.56-5.61Z" transform="translate(-924.44 -484.83)"/><path class="cls-2" d="M1179.25,635s0,.06-.08.17l-.27.49c-.25.42-.63,1-1.17,1.79a26.42,26.42,0,0,1-5.46,5.66,53.44,53.44,0,0,1-10.06,5.9c-4,1.84-8.55,3.46-13.33,5.14l-24.46,8.55-7.43,2.55-2,.67-.53.17-.19,0,.17-.08.52-.21,2-.74,7.39-2.68,24.42-8.67c4.78-1.68,9.32-3.28,13.3-5.1a54.83,54.83,0,0,0,10-5.78,27.4,27.4,0,0,0,5.51-5.52c.55-.73,1-1.33,1.22-1.74.13-.18.23-.33.31-.46A.63.63,0,0,1,1179.25,635Z" transform="translate(-924.44 -484.83)"/><path class="cls-2" d="M1081,677.27a3.32,3.32,0,0,1-.59-.2l-1.67-.68c-1.45-.59-3.53-1.48-6.09-2.6-5.12-2.25-12.14-5.47-19.81-9.21s-14.5-7.35-19.35-10.15c-2.42-1.39-4.35-2.58-5.66-3.43l-1.5-1a4.72,4.72,0,0,1-.51-.37,3.59,3.59,0,0,1,.56.3l1.53.93c1.34.81,3.29,2,5.73,3.31,4.87,2.73,11.74,6.27,19.39,10s14.66,7,19.74,9.31l6,2.73,1.64.75A3.7,3.7,0,0,1,1081,677.27Z" transform="translate(-924.44 -484.83)"/><path class="cls-2" d="M1027.8,634.69a2.74,2.74,0,0,1,.72-.45,14.13,14.13,0,0,1,2.13-.93,16.86,16.86,0,0,1,7.59-.79,20.92,20.92,0,0,1,7.35,2.09,9.68,9.68,0,0,1,1.92,1.32,2.79,2.79,0,0,1,.6.61,24.17,24.17,0,0,0-2.65-1.66,23.08,23.08,0,0,0-7.27-1.94,18.09,18.09,0,0,0-7.45.65C1028.89,634.16,1027.83,634.76,1027.8,634.69Z" transform="translate(-924.44 -484.83)"/><path class="cls-2" d="M1082.75,662.16a1.67,1.67,0,0,1-.38-.3c-.28-.23-.62-.52-1-.89-.9-.77-2.23-1.86-3.89-3.19-3.31-2.66-8-6.21-13.14-10.15-1.29-1-2.54-2-3.75-2.88s-2.47-1.69-3.67-2.41c-2.4-1.44-4.63-2.67-6.39-3.88a24.86,24.86,0,0,1-3.92-3.18,13.17,13.17,0,0,1-.93-1,2.13,2.13,0,0,1-.29-.38s.46.47,1.33,1.27a29,29,0,0,0,4,3.05c1.77,1.17,4,2.36,6.42,3.79,1.21.72,2.47,1.51,3.71,2.42s2.47,1.9,3.76,2.88c5.16,3.94,9.81,7.53,13.08,10.25,1.64,1.36,2.94,2.49,3.81,3.3.44.4.76.73,1,.95A2.23,2.23,0,0,1,1082.75,662.16Z" transform="translate(-924.44 -484.83)"/><path class="cls-2" d="M1061.35,641.92a28.81,28.81,0,0,1,2.89,1.08c1.77.69,4.23,1.6,7,2.47s5.31,1.55,7.15,2a30.41,30.41,0,0,1,3,.78,3,3,0,0,1-.83-.08c-.53-.08-1.29-.22-2.22-.41-1.87-.38-4.43-1-7.21-1.89a74.15,74.15,0,0,1-7-2.61c-.87-.38-1.57-.7-2-.94S1061.33,642,1061.35,641.92Z" transform="translate(-924.44 -484.83)"/><path class="cls-2" d="M1070.32,634.73a23,23,0,0,1-2.91.5c-1.81.27-4.3.65-7,1.14s-5.21,1-7,1.37a23.06,23.06,0,0,1-2.91.54,2.5,2.5,0,0,1,.75-.27c.49-.15,1.2-.34,2.09-.56,1.77-.45,4.24-1,7-1.5s5.25-.82,7.07-1c.91-.1,1.64-.16,2.15-.2A2.76,2.76,0,0,1,1070.32,634.73Z" transform="translate(-924.44 -484.83)"/><path class="cls-2" d="M1066.47,630c0,.07-1.11.16-2.9.43a47.2,47.2,0,0,0-6.89,1.57,46.61,46.61,0,0,0-6.57,2.61c-1.63.79-2.6,1.35-2.64,1.29a2.78,2.78,0,0,1,.64-.47c.43-.28,1.06-.66,1.87-1.09a37.66,37.66,0,0,1,6.57-2.74,38.12,38.12,0,0,1,7-1.47c.9-.09,1.64-.14,2.15-.15A3,3,0,0,1,1066.47,630Z" transform="translate(-924.44 -484.83)"/><path class="cls-4" d="M1099.09,670.94l-4.86,11.35c1.79,1.61,8.61,2.66,11,2.54s5.87-.09,8.27-.37a52.88,52.88,0,0,1,9.16.07,40.64,40.64,0,0,0,9.16-.17,14.72,14.72,0,0,0,8.15-3.88,8.42,8.42,0,0,0-2.51-14.15,14.92,14.92,0,0,0-7.77-1.06A43.87,43.87,0,0,0,1122,667c-2.7.79-5.47,1.6-8.27,1.38a16,16,0,0,1-1.7-.13c-3.67-.67-7.5-.71-10.8,1.37C1100.53,670.07,1099.78,670.44,1099.09,670.94Z" transform="translate(-924.44 -484.83)"/><path class="cls-2" d="M1099.79,672.24a3.07,3.07,0,0,1,.43-.4,9.39,9.39,0,0,1,1.4-1,10.19,10.19,0,0,1,6.05-1.31c1.31.13,2.73.4,4.25.63a19.29,19.29,0,0,0,4.85.24,29.41,29.41,0,0,0,5.26-1.21,27,27,0,0,1,5.75-1.23,16.33,16.33,0,0,1,5.86.51,13.34,13.34,0,0,1,2.61,1.06,7.52,7.52,0,0,1,2.16,1.65,9.86,9.86,0,0,1,2.33,4.38,5.23,5.23,0,0,1,.07,2.29,5.89,5.89,0,0,1-.77,2,8,8,0,0,1-2.53,2.52,16.14,16.14,0,0,1-2.39,1.23c-.68.28-1.22.47-1.59.59a3,3,0,0,1-.56.17,3.22,3.22,0,0,1,.53-.25c.36-.15.88-.36,1.55-.66a16.69,16.69,0,0,0,2.33-1.28,7.79,7.79,0,0,0,2.4-2.47,5.13,5.13,0,0,0,.62-4,9.6,9.6,0,0,0-2.27-4.2,10,10,0,0,0-4.6-2.57,16,16,0,0,0-5.72-.48c-4,.29-7.47,2.09-11,2.4a19.49,19.49,0,0,1-5-.28c-1.52-.25-2.93-.53-4.22-.68a10.3,10.3,0,0,0-5.94,1.15A22,22,0,0,0,1099.79,672.24Z" transform="translate(-924.44 -484.83)"/><path class="cls-1" d="M1133,684.34s-.18-.16-.44-.49a5.73,5.73,0,0,1-.45-.64,8.8,8.8,0,0,1-.51-.89,15.27,15.27,0,0,1-1-2.48,19.49,19.49,0,0,1-.65-3.22,19,19,0,0,1,0-3.28,15,15,0,0,1,.5-2.63,7.53,7.53,0,0,1,.32-1,4.59,4.59,0,0,1,.3-.71,2.28,2.28,0,0,1,.33-.58c.08,0-.32.88-.67,2.34a17.84,17.84,0,0,0-.39,2.59,20.5,20.5,0,0,0,0,3.21,22.61,22.61,0,0,0,.6,3.15,17.36,17.36,0,0,0,.92,2.46C1132.47,683.54,1133,684.29,1133,684.34Z" transform="translate(-924.44 -484.83)"/><path class="cls-2" d="M1102.08,669.36c.1,0,0,.48-.23,1s-.43.87-.54.84-.07-.49.15-1S1102,669.3,1102.08,669.36Z" transform="translate(-924.44 -484.83)"/><path class="cls-2" d="M1105.55,668c.1,0,0,.47-.14,1s-.34.87-.46.85-.11-.47.06-1S1105.44,668,1105.55,668Z" transform="translate(-924.44 -484.83)"/><path class="cls-2" d="M1110,667.92c.11,0,0,.52-.13,1.07s-.42,1-.53.93,0-.51.13-1.06S1109.89,667.88,1110,667.92Z" transform="translate(-924.44 -484.83)"/><path class="cls-2" d="M1114.18,668.44c.11,0,.07.52-.09,1.08s-.38,1-.49,1-.08-.51.09-1.07S1114.07,668.41,1114.18,668.44Z" transform="translate(-924.44 -484.83)"/><path class="cls-2" d="M1117.71,670.65c-.12,0-.21-.57-.21-1.26s.1-1.26.22-1.26.21.56.2,1.26S1117.82,670.65,1117.71,670.65Z" transform="translate(-924.44 -484.83)"/><path class="cls-2" d="M1121.63,669.66c-.11,0-.28-.49-.37-1.12s-.06-1.17,0-1.18.28.48.37,1.12S1121.75,669.64,1121.63,669.66Z" transform="translate(-924.44 -484.83)"/><path class="cls-2" d="M1125.24,666.1c.11,0,.3.46.41,1.07s.12,1.12,0,1.14-.3-.46-.41-1.06S1125.12,666.13,1125.24,666.1Z" transform="translate(-924.44 -484.83)"/><path class="cls-2" d="M1129.91,665.24c.12,0,.07.7-.1,1.49s-.4,1.43-.51,1.41-.07-.69.1-1.49S1129.8,665.22,1129.91,665.24Z" transform="translate(-924.44 -484.83)"/><path class="cls-2" d="M1133.92,665.36c.11,0-.18.78-.64,1.65s-.91,1.51-1,1.45a3.93,3.93,0,0,1,.64-1.65C1133.36,666,1133.81,665.31,1133.92,665.36Z" transform="translate(-924.44 -484.83)"/><path class="cls-2" d="M1138,666.43a4.4,4.4,0,0,1-.84,1.68c-.56.86-1.1,1.5-1.2,1.44a4.39,4.39,0,0,1,.84-1.67C1137.37,667,1137.91,666.37,1138,666.43Z" transform="translate(-924.44 -484.83)"/><path class="cls-2" d="M1140.63,668.9c.1.06-.26.74-.79,1.51s-1,1.34-1.15,1.27.26-.74.8-1.51S1140.54,668.83,1140.63,668.9Z" transform="translate(-924.44 -484.83)"/><path class="cls-2" d="M1142.47,672c.1.07-.27.73-.88,1.41s-1.24,1.1-1.31,1,.4-.65,1-1.31S1142.38,672,1142.47,672Z" transform="translate(-924.44 -484.83)"/><path class="cls-2" d="M1142.2,676.81c.1.07-.12.46-.59.67s-.92.1-.9,0,.35-.2.73-.37S1142.11,676.73,1142.2,676.81Z" transform="translate(-924.44 -484.83)"/><path class="cls-2" d="M1139.61,680.9c0,.11-.08.25-.26.22s-.24-.2-.16-.29a.29.29,0,0,1,.24-.13A.33.33,0,0,1,1139.61,680.9Z" transform="translate(-924.44 -484.83)"/><path class="cls-1" d="M1111.3,682.52a18.51,18.51,0,0,0,1.33-3.8,19.18,19.18,0,0,0,.08-4,6.79,6.79,0,0,1,.33,4.11A6.67,6.67,0,0,1,1111.3,682.52Z" transform="translate(-924.44 -484.83)"/><path class="cls-1" d="M1114.65,682.14a11.23,11.23,0,0,0,1.21-7.22,5.83,5.83,0,0,1,.42,3.78A5.92,5.92,0,0,1,1114.65,682.14Z" transform="translate(-924.44 -484.83)"/><path class="cls-1" d="M1118.86,682.16a10.73,10.73,0,0,0,1.44-7.81,2.48,2.48,0,0,1,.42,1.15,7.9,7.9,0,0,1-1.06,5.74C1119.25,681.88,1118.9,682.2,1118.86,682.16Z" transform="translate(-924.44 -484.83)"/><path class="cls-1" d="M1123.61,681.88a20.78,20.78,0,0,0,1.1-3.91,21.58,21.58,0,0,0-.08-4.06,8.44,8.44,0,0,1-1,8Z" transform="translate(-924.44 -484.83)"/><path class="cls-1" d="M1110.45,678.32a1.44,1.44,0,0,1-.69.09,3.74,3.74,0,0,1-1.81-.59,7.81,7.81,0,0,1-2-2,4.72,4.72,0,0,1-.88-1.45,2,2,0,0,1-.07-.95,1.49,1.49,0,0,1,.5-.88,2.05,2.05,0,0,1,1.85-.35,3.48,3.48,0,0,1,1.45.92,6.85,6.85,0,0,1,1.53,2.37,6.12,6.12,0,0,1,.39,1.84,1.7,1.7,0,0,1,0,.7,11.6,11.6,0,0,0-.63-2.43,6.82,6.82,0,0,0-1.52-2.2,3.2,3.2,0,0,0-1.29-.8,1.63,1.63,0,0,0-1.46.27,1.25,1.25,0,0,0-.31,1.39,4.7,4.7,0,0,0,.78,1.33,8.32,8.32,0,0,0,1.88,1.94A4.49,4.49,0,0,0,1110.45,678.32Z" transform="translate(-924.44 -484.83)"/><path class="cls-1" d="M1110.22,678.19a1.88,1.88,0,0,1-.15.62,10.26,10.26,0,0,1-.7,1.6,4.74,4.74,0,0,1-1.8,1.9,3.24,3.24,0,0,1-1.54.42,1.83,1.83,0,0,1-1.58-.77,1.64,1.64,0,0,1,.17-1.75,3.21,3.21,0,0,1,1.22-1,9.61,9.61,0,0,1,2.5-.71,12.67,12.67,0,0,1,2.34-.35,15.09,15.09,0,0,1-2.28.64,10.38,10.38,0,0,0-2.38.77,2.89,2.89,0,0,0-1.06.91,1.24,1.24,0,0,0-.15,1.3,1.41,1.41,0,0,0,1.22.57,2.72,2.72,0,0,0,1.35-.35,4.66,4.66,0,0,0,1.74-1.7C1109.85,679,1110.15,678.16,1110.22,678.19Z" transform="translate(-924.44 -484.83)"/><path class="cls-1" d="M1109.92,681.65c-.09-.08.37-.71.51-1.61s-.09-1.64,0-1.69.57.71.39,1.76S1110,681.74,1109.92,681.65Z" transform="translate(-924.44 -484.83)"/><path class="cls-1" d="M1111.73,676c.11,0,0,.65-.34,1.31s-.82,1.09-.91,1,.2-.59.53-1.22S1111.62,675.94,1111.73,676Z" transform="translate(-924.44 -484.83)"/><path class="cls-3" d="M1124.73,669.94a7.53,7.53,0,0,1-1.81.85,23,23,0,0,1-4.67,1.2,22.6,22.6,0,0,1-4.83.21,6.5,6.5,0,0,1-2-.29,49.74,49.74,0,0,0,6.74-.34A52.54,52.54,0,0,0,1124.73,669.94Z" transform="translate(-924.44 -484.83)"/><path class="cls-3" d="M1122.71,683.1a48.82,48.82,0,0,1-8.93.61,46.57,46.57,0,0,1,8.93-.61Z" transform="translate(-924.44 -484.83)"/><path class="cls-3" d="M1133.48,683.41a6.94,6.94,0,0,0,2.86-1.06,6.18,6.18,0,0,0,2.13-2.47,6.51,6.51,0,0,0,.44-3.93,7.35,7.35,0,0,0-1.8-3.56,8.69,8.69,0,0,0-2.69-1.92,15.18,15.18,0,0,0-3-.87,2.71,2.71,0,0,1,.84,0,8.38,8.38,0,0,1,2.24.58,8.27,8.27,0,0,1,2.85,1.93,7.45,7.45,0,0,1,1.93,3.74,6.72,6.72,0,0,1-.5,4.18,6.47,6.47,0,0,1-2.31,2.56,5.75,5.75,0,0,1-2.18.8A2.1,2.1,0,0,1,1133.48,683.41Z" transform="translate(-924.44 -484.83)"/><path class="cls-5" d="M1082.14,663.46l21.14,9.37a16.76,16.76,0,0,1-1.3,7.86c-1.55,3.16-6.23,2.53-6.23,2.53l-18.57-4.32,4.14-2.43Z" transform="translate(-924.44 -484.83)"/><path class="cls-4" d="M1101,682.35a12.92,12.92,0,0,1-2.27-2,4.34,4.34,0,0,1-1.07-2.79,5.76,5.76,0,0,1,.91-2.59,4.52,4.52,0,0,1,2.1-2.15,4.61,4.61,0,0,1,3.58.62l.22,4.71Z" transform="translate(-924.44 -484.83)"/><path class="cls-6" d="M1103.28,672.83c0,.11-4.82-1.9-10.66-4.49s-10.53-4.77-10.48-4.88,4.82,1.9,10.66,4.49S1103.32,672.73,1103.28,672.83Z" transform="translate(-924.44 -484.83)"/><path class="cls-2" d="M1127.27,587.73a1.53,1.53,0,0,0,1.59-1.47c.24-6.67-4.16-21.78-6.27-28-1.29-3.84-5.65-6.64-8.7-8.7-3.68-2.49-16.71-5.54-21-6.73h-1.45l-19.91-1.48-11,5.25s-15.2,5.76-19.61,13.78-7.76,31.55-7.76,31.55-2,6.72,0,9.75c1.26,1.89,5.94,3.53,10.16,4.34-2.28,7.59-.49,13.23-.57,14.2-.16,2-1.69,6.64,1.9,6.36s31.71-7.71,40.06-8a39.22,39.22,0,0,1,20.25,5c4.21,2.35,4.17,2.53,5.67-1.64s-3.29-8.83-3.29-8.83,4.31-15.54,6.31-25.7Z" transform="translate(-924.44 -484.83)"/><path class="cls-1" d="M1060.34,578.71a3.55,3.55,0,0,1-.63-.68l-1.62-1.92a55.34,55.34,0,0,0-5.7-6,29.3,29.3,0,0,0-3.63-2.7,20.45,20.45,0,0,0-3.31-1.63c-2-.75-3.28-.94-3.26-1a3.94,3.94,0,0,1,.92.1,7.11,7.11,0,0,1,1.06.23,11.36,11.36,0,0,1,1.38.41,18.31,18.31,0,0,1,3.41,1.58,25.38,25.38,0,0,1,3.7,2.71,45.73,45.73,0,0,1,5.67,6.08c.65.84,1.17,1.53,1.51,2A3.81,3.81,0,0,1,1060.34,578.71Z" transform="translate(-924.44 -484.83)"/><path class="cls-1" d="M1056.71,601.15a4.91,4.91,0,0,1-1,.08c-.63,0-1.54,0-2.68,0a64,64,0,0,1-8.82-.65,39.93,39.93,0,0,1-8.58-2.23,25.87,25.87,0,0,1-2.45-1.1,4.88,4.88,0,0,1-.85-.49c0-.07,1.29.55,3.41,1.31a45,45,0,0,0,8.53,2.09,83.13,83.13,0,0,0,8.77.77l2.68.11A4.34,4.34,0,0,1,1056.71,601.15Z" transform="translate(-924.44 -484.83)"/><path class="cls-1" d="M1098.86,608.77a2.46,2.46,0,0,1-.29.6,17.16,17.16,0,0,1-1,1.52,22.22,22.22,0,0,1-9.36,7.31,17.59,17.59,0,0,1-1.72.6,2,2,0,0,1-.65.13c0-.07.87-.37,2.25-1a26.47,26.47,0,0,0,5-3.07,26.19,26.19,0,0,0,4.2-4.15C1098.28,609.52,1098.8,608.73,1098.86,608.77Z" transform="translate(-924.44 -484.83)"/><path class="cls-1" d="M1099.22,615a5.45,5.45,0,0,1-1.32,1,18.36,18.36,0,0,1-3.66,1.79,18,18,0,0,1-4,.91,5.5,5.5,0,0,1-1.69,0,27.29,27.29,0,0,0,10.64-3.77Z" transform="translate(-924.44 -484.83)"/><path class="cls-1" d="M1122.59,558.21a2.3,2.3,0,0,1-.09.68c-.09.44-.25,1.07-.48,1.83a28.61,28.61,0,0,1-2.51,5.7,27.66,27.66,0,0,1-3.72,5,17.28,17.28,0,0,1-1.35,1.32c-.33.29-.53.45-.55.42s.65-.74,1.68-1.94a33.38,33.38,0,0,0,6.16-10.59C1122.27,559.14,1122.52,558.19,1122.59,558.21Z" transform="translate(-924.44 -484.83)"/><path class="cls-1" d="M1127.7,584.16a8.63,8.63,0,0,1-2,.16c-1.22,0-2.9,0-4.75,0s-3.53-.2-4.74-.33a9.79,9.79,0,0,1-2-.3,9.34,9.34,0,0,1,2,0l4.74.21,4.73.16A9.59,9.59,0,0,1,1127.7,584.16Z" transform="translate(-924.44 -484.83)"/><path class="cls-1" d="M1111.84,560.89a5.15,5.15,0,0,1,.28,1.07c.16.78.37,1.77.62,2.95.5,2.49,1.22,5.94,1.65,9.81a41.24,41.24,0,0,1-.05,10,29.23,29.23,0,0,1-.54,3,5,5,0,0,1-.31,1.06,6.25,6.25,0,0,1,.14-1.1c.13-.69.27-1.71.42-3a46.86,46.86,0,0,0-.08-9.88c-.43-3.84-1.1-7.29-1.52-9.8-.22-1.25-.39-2.26-.49-3A5.9,5.9,0,0,1,1111.84,560.89Z" transform="translate(-924.44 -484.83)"/><path class="cls-1" d="M1060.34,581.52a3.85,3.85,0,0,1,0,.93c-.06.6-.17,1.47-.31,2.53-.28,2.14-.71,5.08-1.31,8.31a72.29,72.29,0,0,1-1.91,8.2,24.67,24.67,0,0,1-.88,2.4,3.32,3.32,0,0,1-.45.82c-.06,0,.51-1.23,1-3.31s1.2-5,1.79-8.19,1.07-6.15,1.43-8.27c.17-1,.32-1.83.44-2.51A3.93,3.93,0,0,1,1060.34,581.52Z" transform="translate(-924.44 -484.83)"/><path class="cls-1" d="M1057.61,568.58a6.51,6.51,0,0,1,.81,1.6,29.68,29.68,0,0,1,2.11,8.35,6.27,6.27,0,0,1,0,1.79c-.12,0-.38-2.7-1.2-5.94S1057.49,568.63,1057.61,568.58Z" transform="translate(-924.44 -484.83)"/><path class="cls-7" d="M1080.58,597.37a3,3,0,0,1,.23-.46l.72-1.31,2.73-4.83,9.48-16.5.27.29c-2.4,1.17-5,2.32-7.7,3.39-3.27,1.3-6.48,2.39-9.48,3.28l-.64.19.42-.51L1088,567.09c1.4-1.68,2.52-3,3.33-4l.9-1.05a3.09,3.09,0,0,1,.33-.35,3,3,0,0,1-.28.4c-.21.27-.49.64-.85,1.09l-3.24,4.06-11.27,13.91-.21-.32c3-.89,6.19-2,9.44-3.28,2.7-1.07,5.29-2.21,7.68-3.37l.6-.29-.34.58-9.6,16.42-2.84,4.77-.78,1.27A2.53,2.53,0,0,1,1080.58,597.37Z" transform="translate(-924.44 -484.83)"/><g class="cls-8"><path d="M1095.14,619.58c1,.25,2.8-2.65,3.85-4.42-3.25,1.8-6.37,4-10,3.17a12.75,12.75,0,0,0,8.77-8.19,20.93,20.93,0,0,1-10.67,8.32S1093.62,619.19,1095.14,619.58Z" transform="translate(-924.44 -484.83)"/></g><path class="cls-5" d="M1093.73,550.73Z" transform="translate(-924.44 -484.83)"/><path class="cls-5" d="M1108,508.2a18.33,18.33,0,0,0-16.27-19A17.81,17.81,0,0,0,1072,505.58l-1.63,40.07a3.42,3.42,0,0,0,.65,2.16,16.35,16.35,0,0,0,10.53,6.46,17.16,17.16,0,0,0,10.51-2.39,3.4,3.4,0,0,0,1.67-3v-9a.06.06,0,0,1,.06-.06,11.71,11.71,0,0,0,2.51-.12c2.36-.62,8.35-3,10.21-12C1107.12,524.87,1107.65,516.52,1108,508.2Z" transform="translate(-924.44 -484.83)"/><path class="cls-1" d="M1095.07,521.53a10.83,10.83,0,0,1,2.59-.32c.4,0,.79-.08.87-.35a2,2,0,0,0-.22-1.19c-.33-1-.68-2-1-3.08-1.46-4.39-2.5-8-2.32-8.05s1.51,3.46,3,7.85l1,3.1a2.25,2.25,0,0,1,.13,1.57,1,1,0,0,1-.69.54,2.48,2.48,0,0,1-.69.06A10.55,10.55,0,0,1,1095.07,521.53Z" transform="translate(-924.44 -484.83)"/><path class="cls-1" d="M1093.08,487.19A5.37,5.37,0,0,0,1089,485c-7-.93-14.78,3.44-18.59,9.42s-3.87,14.78-.87,21.21l2.64.41c5.47-.43,14.4-15.86,21.92-24.43C1095,490.49,1093.82,488.39,1093.08,487.19Z" transform="translate(-924.44 -484.83)"/><path class="cls-1" d="M1106.59,491.53c-3-3.28-7.83-7.26-13.88-4.82-.86,1.72,1,3.89,2.52,5.16,2.24,1.85,4.19,3.09,5.67,4.42,3,2.68,6.69,7.15,7.07,12.17,0,.31.27.35.58.3s1.32-2.14,1.75-4.88C1111.22,498,1109.59,494.81,1106.59,491.53Z" transform="translate(-924.44 -484.83)"/><path class="cls-1" d="M1072.57,506.82a8.75,8.75,0,0,0-1.85-3.64h0a8.08,8.08,0,0,0-2-1.77,9.82,9.82,0,0,0-9.49-.14,11.62,11.62,0,0,0-5.72,7.73,11.05,11.05,0,0,0,.71,7.13,10.37,10.37,0,0,0,9.13,5.74,11.17,11.17,0,0,0,9.43-5.38C1074.11,514.2,1073.75,510.16,1072.57,506.82Z" transform="translate(-924.44 -484.83)"/><path class="cls-5" d="M1073.82,512.76c-.16-.09-6.69-2.53-7,4.29s6.62,5.7,6.64,5.5S1073.82,512.76,1073.82,512.76Z" transform="translate(-924.44 -484.83)"/><path class="cls-6" d="M1071.51,519.89s-.12.07-.32.16a1.19,1.19,0,0,1-.89,0,3,3,0,0,1-1.25-2.7,3.92,3.92,0,0,1,.4-1.68,1.4,1.4,0,0,1,.93-.88.6.6,0,0,1,.69.36c.08.19,0,.33.07.34s.15-.11.11-.39a.77.77,0,0,0-.25-.44.89.89,0,0,0-.65-.2,1.68,1.68,0,0,0-1.29,1,4.1,4.1,0,0,0-.49,1.89c0,1.37.64,2.69,1.61,3a1.28,1.28,0,0,0,1.1-.13C1071.49,520.05,1071.54,519.9,1071.51,519.89Z" transform="translate(-924.44 -484.83)"/><path class="cls-2" d="M1108,492.9a7.42,7.42,0,0,1-2,.26,28.85,28.85,0,0,1-4.84-.16,27.42,27.42,0,0,1-4.73-1,7.26,7.26,0,0,1-1.87-.72,12.63,12.63,0,0,1,1.94.44,43.08,43.08,0,0,0,4.71.86,41.42,41.42,0,0,0,4.78.28A11.06,11.06,0,0,1,1108,492.9Z" transform="translate(-924.44 -484.83)"/><path class="cls-2" d="M1110.29,497.79a3.83,3.83,0,0,1-1.48.35,11.54,11.54,0,0,1-7.11-1.55,3.94,3.94,0,0,1-1.2-.94,15.56,15.56,0,0,0,9.79,2.14Z" transform="translate(-924.44 -484.83)"/><path class="cls-2" d="M1069.5,496.69c0-.08,1.48.18,3.86.11a28.54,28.54,0,0,0,4.15-.42,39,39,0,0,0,5-1.28,41.92,41.92,0,0,0,4.72-2,37.13,37.13,0,0,0,3.62-2.08c2-1.3,3.11-2.29,3.16-2.23a4.59,4.59,0,0,1-.75.73,11.42,11.42,0,0,1-.94.78c-.37.3-.8.64-1.3,1a33.12,33.12,0,0,1-3.62,2.18,37.83,37.83,0,0,1-4.76,2,34.44,34.44,0,0,1-5,1.26,24.69,24.69,0,0,1-4.21.34,13.57,13.57,0,0,1-1.62-.06,8.79,8.79,0,0,1-1.22-.14A4.19,4.19,0,0,1,1069.5,496.69Z" transform="translate(-924.44 -484.83)"/><path class="cls-2" d="M1093.51,491.2a5.58,5.58,0,0,1-.55.95,10.58,10.58,0,0,1-.72,1.06c-.3.4-.61.88-1,1.35a27,27,0,0,1-3.07,3.19,30.14,30.14,0,0,1-4.37,3.21,29,29,0,0,1-4.92,2.29,26.74,26.74,0,0,1-4.29,1.11c-.62.13-1.19.17-1.69.23s-.92.08-1.27.09a5.49,5.49,0,0,1-1.1,0c0-.09,1.56-.12,4-.6a28.89,28.89,0,0,0,4.22-1.19,30.69,30.69,0,0,0,4.83-2.28,33,33,0,0,0,4.34-3.14,30.93,30.93,0,0,0,3.09-3.09C1092.61,492.48,1093.44,491.16,1093.51,491.2Z" transform="translate(-924.44 -484.83)"/><path class="cls-2" d="M1089,485a2.67,2.67,0,0,1,1.37.1,5.86,5.86,0,0,1,2.8,1.76,6,6,0,0,1,.57.78,4.28,4.28,0,0,1,.33.84,9.15,9.15,0,0,1,.39,1.43,2.08,2.08,0,0,1-.1,1.37c-.07,0,0-.52-.19-1.31-.1-.39-.27-.85-.46-1.36a4,4,0,0,0-.33-.76,4.85,4.85,0,0,0-.53-.71,6.58,6.58,0,0,0-2.57-1.76C1089.47,485.06,1089,485,1089,485Z" transform="translate(-924.44 -484.83)"/><path class="cls-3" d="M1071,512.17c-.07,0,.14-.71.28-1.83A11.7,11.7,0,0,0,1071,506a9,9,0,0,0-2.06-3.82c-.77-.83-1.38-1.21-1.33-1.28s.17.06.45.22a6.07,6.07,0,0,1,1.09.85,8.29,8.29,0,0,1,2.26,3.93,10.48,10.48,0,0,1,.14,4.52A5.29,5.29,0,0,1,1071,512.17Z" transform="translate(-924.44 -484.83)"/><path class="cls-2" d="M1071.47,510.66c0,.06-.88-.48-2.31-1.19a26.08,26.08,0,0,0-12.06-2.69c-1.6,0-2.59.17-2.6.1a2.23,2.23,0,0,1,.69-.17,14.53,14.53,0,0,1,1.9-.22,22.32,22.32,0,0,1,6.3.5,22.71,22.71,0,0,1,5.91,2.22,14.3,14.3,0,0,1,1.62,1C1071.29,510.48,1071.49,510.64,1071.47,510.66Z" transform="translate(-924.44 -484.83)"/><path class="cls-2" d="M1065.26,508a6.65,6.65,0,0,1-.51,2,19,19,0,0,1-5.64,8.12,7.29,7.29,0,0,1-1.69,1.17,33.68,33.68,0,0,0,4.7-5.1A32.51,32.51,0,0,0,1065.26,508Z" transform="translate(-924.44 -484.83)"/><path class="cls-2" d="M1069.75,521.2c0-.13.3-.21.7-.1a2.57,2.57,0,0,1,1.43,1.06,3.14,3.14,0,0,1,.35,2.83,3.2,3.2,0,0,1-1.09,1.48,3.3,3.3,0,0,1-1.87.62,3.35,3.35,0,0,1-1.89-.52,3.57,3.57,0,0,1-1.18-1.31,3.23,3.23,0,0,1-.39-1.54,3.13,3.13,0,0,1,.3-1.27,2.44,2.44,0,0,1,1.25-1.33c.43-.15.69,0,.72.08.05.3-.46.69-.55,1.69a2.54,2.54,0,0,0,0,.73,2,2,0,0,0,.32.66,1.59,1.59,0,0,0,1.34.7,1.34,1.34,0,0,0,1.2-.73,1.84,1.84,0,0,0,.14-1.39C1070.3,522,1069.63,521.47,1069.75,521.2Z" transform="translate(-924.44 -484.83)"/><path class="cls-1" d="M1076.66,510.41a19.79,19.79,0,0,0,4.11-.72,17.37,17.37,0,0,0,8.1-5.69,27.21,27.21,0,0,0,4.55-8.93c.39-1.24.66-2.25.83-3a6.25,6.25,0,0,1,.31-1.08,5.17,5.17,0,0,1-.15,1.12,30,30,0,0,1-.7,3,25.67,25.67,0,0,1-4.51,9.12,17,17,0,0,1-8.35,5.71,12.44,12.44,0,0,1-3,.49,6.94,6.94,0,0,1-.85,0C1076.76,510.44,1076.66,510.43,1076.66,510.41Z" transform="translate(-924.44 -484.83)"/><path class="cls-1" d="M1085,603.16a1.7,1.7,0,0,1-1.5-2.38c2.19-4.93,8.17-14.43,8.56-15,.56-.87.87-1.93,2.68-2.14.7-.09,11.66-.34,14.23-.4a1.58,1.58,0,0,1,1.14.42,2.18,2.18,0,0,1,.24,2.87c-.91,1.63-7.54,11.9-10.23,15.87a2.77,2.77,0,0,1-2.37,1.21Z" transform="translate(-924.44 -484.83)"/><path class="cls-7" d="M1101.86,586.75a.78.78,0,0,0-.88-.24,1.81,1.81,0,0,0-.77.49.7.7,0,0,0-.16.86.82.82,0,0,0,.74.25,1.42,1.42,0,0,0,.92-.41A.86.86,0,0,0,1101.86,586.75Z" transform="translate(-924.44 -484.83)"/><path class="cls-2" d="M1107.5,589a4.36,4.36,0,0,1,.42-1l.56-1.08c.11-.21.22-.44.35-.67a1.64,1.64,0,0,0,.27-.72.82.82,0,0,0-.33-.68,1.14,1.14,0,0,0-.86-.15l-2.24.09-5.12.18-5.13.15h-.57a.87.87,0,0,0-.42.17,4.41,4.41,0,0,0-.59.84l-1,1.64-1.55,2.36a5.35,5.35,0,0,1-.61.84,4.17,4.17,0,0,1,.47-.92c.39-.65.87-1.47,1.44-2.44.31-.52.65-1.07,1-1.67.1-.15.19-.3.28-.46a1.72,1.72,0,0,1,.37-.48,1.27,1.27,0,0,1,.62-.26l.6,0,5.12-.18,5.13-.15,2.24,0a1.4,1.4,0,0,1,1.07.24,1.13,1.13,0,0,1,.43,1,1.11,1.11,0,0,1-.13.48l-.21.36-.38.66-.61,1A5.19,5.19,0,0,1,1107.5,589Z" transform="translate(-924.44 -484.83)"/><path class="cls-5" d="M1125.84,587.75s-1.11,7.73-2.25,12.69c-1,4.43-2.63,19.38-6.74,21.26s-9.22.71-11.12-2.93-3.92-13.35-3.92-13.35l-8.6-3.62s-2-7.22-.85-8,12.23.41,12.23.41l3-.68s-4.73-.68-5.75-1a1.72,1.72,0,0,1-1.44-2c.24-.94.42-1.89,3-1.89s6.58-.39,7.31-.14c.9.31,1.93.84,2.13,3.12a27.4,27.4,0,0,1-.87,6.5l.23.36,1.52-11.18Z" transform="translate(-924.44 -484.83)"/><path class="cls-6" d="M1111.39,601.09a2.34,2.34,0,0,1-.69.28,19.12,19.12,0,0,1-2,.53,24.12,24.12,0,0,1-6.71.52,22.73,22.73,0,0,1-6.58-1.44,16.08,16.08,0,0,1-1.87-.83,2.19,2.19,0,0,1-.64-.39c0-.06,1,.39,2.61.94A26.22,26.22,0,0,0,1102,602a28.49,28.49,0,0,0,6.63-.39C1110.35,601.31,1111.37,601,1111.39,601.09Z" transform="translate(-924.44 -484.83)"/><path class="cls-6" d="M1109.76,598a2.15,2.15,0,0,1-.7.22c-.45.12-1.12.26-2,.4a25.4,25.4,0,0,1-6.57.24,17.59,17.59,0,0,1-6.32-1.83,11.65,11.65,0,0,1-1.69-1.06c-.38-.28-.57-.46-.55-.48s.87.57,2.38,1.27a19.6,19.6,0,0,0,6.23,1.68,29.83,29.83,0,0,0,6.48-.12C1108.73,598.11,1109.75,597.93,1109.76,598Z" transform="translate(-924.44 -484.83)"/><path class="cls-6" d="M1112.44,590s.21.38.17,1a2.39,2.39,0,0,1-.32,1.15,1.47,1.47,0,0,1-.55.5,3.79,3.79,0,0,1-.68.3,9.84,9.84,0,0,1-2.48.42,6.49,6.49,0,0,1-1,.08s.35-.26,1-.37a18.44,18.44,0,0,0,2.39-.53,2.07,2.07,0,0,0,1-.62,2.67,2.67,0,0,0,.35-1A9.36,9.36,0,0,1,1112.44,590Z" transform="translate(-924.44 -484.83)"/><path class="cls-6" d="M1108.36,603a1.68,1.68,0,0,1,0,1.4,3,3,0,0,1-.87,1.3,3.6,3.6,0,0,1-1.74.81,4.6,4.6,0,0,1-1.9-.09,6.62,6.62,0,0,1-1.42-.58,7.2,7.2,0,0,1-1.2-.68,3.49,3.49,0,0,1,1.33.41,5.44,5.44,0,0,0,3.11.52,3.32,3.32,0,0,0,1.56-.68,3.24,3.24,0,0,0,.85-1.11A5.86,5.86,0,0,0,1108.36,603Z" transform="translate(-924.44 -484.83)"/><path class="cls-6" d="M1111.94,589.24s.06,0,.15.09a1.31,1.31,0,0,1,.34.4,4.23,4.23,0,0,1,.49,1.87,23,23,0,0,1-.79,6.57v-.12a20.67,20.67,0,0,0,1.54,3.2,35.22,35.22,0,0,0,2.79,4.07,17.88,17.88,0,0,1,2.4,3.31,3.71,3.71,0,0,1,.24,2.75,2.36,2.36,0,0,1-.36.67c-.11.13-.18.19-.19.18a4.88,4.88,0,0,0,.39-.9,3.67,3.67,0,0,0-.35-2.57,18.87,18.87,0,0,0-2.44-3.19,34.31,34.31,0,0,1-2.85-4.11,19,19,0,0,1-1.55-3.28l0-.06,0-.06a25.46,25.46,0,0,0,.92-6.45,3.16,3.16,0,0,0-.72-2.37Z" transform="translate(-924.44 -484.83)"/><path class="cls-5" d="M1036,603.68s-1.26,17.25,6.77,20.14c11.06,4,23.68-7,23.72-7.21s13.43-11,13.43-11l-4.17-11.47s-1.66,0-4.37,1.93c-1,.7-16.49,8.87-16.49,8.87S1048.11,604.94,1036,603.68Z" transform="translate(-924.44 -484.83)"/><path class="cls-6" d="M1055.44,604.74c0,.13-2.87,1.31-6.4,2.89-1.76.8-3.31,1.6-4.42,2.21a11.73,11.73,0,0,1-1.83,1,8.41,8.41,0,0,1,1.67-1.21,37.06,37.06,0,0,1,4.41-2.34c1.77-.81,3.41-1.44,4.6-1.88A9.23,9.23,0,0,1,1055.44,604.74Z" transform="translate(-924.44 -484.83)"/><path class="cls-5" d="M1090.57,587.94s-2.1-3-2.93-3-5.82.82-5.82.82l-7,7.65s-.48,2.5,1,3.4c0,0-.51,3.92,1.37,5,0,0,1.4,3.69,2.72,3.76a8.64,8.64,0,0,0,1.67,0s-.29,2.22,1.72,2.36a34.15,34.15,0,0,0,5.92-.6,2.24,2.24,0,0,0,1.45-.9l1.72-2.43a2.24,2.24,0,0,0,0-2.59h0a6,6,0,0,0,1-1.81,8,8,0,0,0,0-2.32s3-2.52,3-3.18-.07-1.29-1.38-1.22c0,0-.28-2-1.95-2s-9.54,0-9.54,0l1.5-1.46s3.92,1.49,4.34.5Z" transform="translate(-924.44 -484.83)"/><path class="cls-6" d="M1079.25,596.77a11.27,11.27,0,0,1,1.28-.09c.82,0,2-.11,3.49-.29a44.29,44.29,0,0,0,5.17-.92c1-.23,2-.5,3-.83a7.44,7.44,0,0,0,2.73-1.82l0,0h.06a1.74,1.74,0,0,1,1.15.11.89.89,0,0,1,.4.53,1.75,1.75,0,0,1,.08.59,1.23,1.23,0,0,1,0,.26.78.78,0,0,1-.12.3,4.33,4.33,0,0,1-.3.41c-.21.25-.43.48-.65.7q-.67.66-1.35,1.26h0a52.73,52.73,0,0,1-4.85,3.45,12.45,12.45,0,0,1-4.51,1.61,9,9,0,0,1-3.16-.08,6.06,6.06,0,0,1-.82-.23,1,1,0,0,1-.27-.13,10.09,10.09,0,0,0,4.21.17,12.21,12.21,0,0,0,4.36-1.65,58.31,58.31,0,0,0,4.8-3.47h0c.44-.4.89-.81,1.32-1.25.22-.22.43-.44.63-.67l.26-.36s.07-.12.06-.13,0-.15,0-.21a.84.84,0,0,0-.28-.76,1.44,1.44,0,0,0-.86-.06l.11,0a12.93,12.93,0,0,1-1.36,1.11,4.57,4.57,0,0,1-1.54.78c-1,.33-2.07.6-3,.82a40,40,0,0,1-5.23.83c-1.49.14-2.69.17-3.52.17-.41,0-.73,0-1,0S1079.25,596.79,1079.25,596.77Z" transform="translate(-924.44 -484.83)"/><path class="cls-6" d="M1093.41,597.37a3.83,3.83,0,0,1,.17,1.24c0,.2,0,.41,0,.65s0,.25,0,.38a1.45,1.45,0,0,1-.12.42c-.12.26-.26.51-.41.78l-.24.4-.13.2-.09.13-.06,0s0,.06-.19,0a.18.18,0,0,1-.07-.22.12.12,0,0,1,0,0h0l0-.06.33.2a9.08,9.08,0,0,1-2.07,2.54,8.77,8.77,0,0,1-5,2.08,8.27,8.27,0,0,1-1.66-.05,2.13,2.13,0,0,1-.59-.14c0-.09.86.06,2.22-.11a9.13,9.13,0,0,0,4.79-2.1,9.62,9.62,0,0,0,2-2.41l.33.2A11,11,0,0,0,1093.41,597.37Z" transform="translate(-924.44 -484.83)"/><path class="cls-6" d="M1085.28,589.59c0,.09-.83-.2-1.21-1.14a2.08,2.08,0,0,1-.06-1.22c.08-.29.19-.45.24-.44s-.06.75.22,1.51S1085.36,589.49,1085.28,589.59Z" transform="translate(-924.44 -484.83)"/><path class="cls-6" d="M1081.75,605.74a1.34,1.34,0,0,1-.63.14,3.36,3.36,0,0,1-1.72-.32,3.65,3.65,0,0,1-1.79-1.89,4,4,0,0,1-.29-1.53.67.67,0,0,0-.27-.54,3.94,3.94,0,0,1-.64-.56,3.54,3.54,0,0,1-.78-2.07,10.8,10.8,0,0,1,.07-1.92l.09.18a3,3,0,0,1-1.36-2.58,1.64,1.64,0,0,1,.32-1.07,6.41,6.41,0,0,0-.11,1.07,2.81,2.81,0,0,0,1.34,2.26l.1.06v.12a11.26,11.26,0,0,0,0,1.85,3.26,3.26,0,0,0,.7,1.82,3.34,3.34,0,0,0,.59.51,1.12,1.12,0,0,1,.41.84,3.9,3.9,0,0,0,.24,1.41,3.38,3.38,0,0,0,1.57,1.77A4.81,4.81,0,0,0,1081.75,605.74Z" transform="translate(-924.44 -484.83)"/><path class="cls-1" d="M1024.29,620.44a2.75,2.75,0,0,1-.07-.52c0-.39-.06-.88-.1-1.48,0-.33,0-.69,0-1.07s-.1-.82-.16-1.27a30.43,30.43,0,0,0-.46-3.08l-.34-1.78c-.13-.61-.33-1.24-.49-1.89-.31-1.32-.82-2.68-1.31-4.12a52,52,0,0,0-4.38-8.87,52.55,52.55,0,0,0-6.12-7.77c-1.09-1.06-2.1-2.1-3.16-2.94-.52-.44-1-.88-1.51-1.26l-1.45-1.08c-.91-.71-1.82-1.23-2.58-1.73-.39-.25-.74-.49-1.08-.69l-.95-.51-1.29-.73a2.17,2.17,0,0,1-.44-.28,1.92,1.92,0,0,1,.48.19l1.35.64,1,.48c.35.19.71.42,1.11.65.78.49,1.71,1,2.64,1.69l1.48,1.06c.52.37,1,.81,1.54,1.24a42.56,42.56,0,0,1,3.22,2.95,46.17,46.17,0,0,1,10.61,16.79,43.46,43.46,0,0,1,1.28,4.18c.16.66.35,1.3.46,1.92s.22,1.22.32,1.8c.23,1.14.29,2.19.39,3.11,0,.46.09.88.11,1.28s0,.75,0,1.08c0,.6,0,1.09,0,1.49A1.93,1.93,0,0,1,1024.29,620.44Z" transform="translate(-924.44 -484.83)"/><path class="cls-1" d="M992.16,605.26c-.06.06-1.09-1-3-2.34a32.32,32.32,0,0,0-16.74-6.32c-2.32-.19-3.76-.1-3.77-.2a4.25,4.25,0,0,1,1-.13,21.91,21.91,0,0,1,2.78,0,29.57,29.57,0,0,1,16.94,6.39,21,21,0,0,1,2.07,1.86C992,605,992.19,605.23,992.16,605.26Z" transform="translate(-924.44 -484.83)"/><path class="cls-1" d="M1028.14,672.3a9.36,9.36,0,0,1-1.55,0c-1,0-2.45,0-4.23-.09-3.57-.13-8.5-.42-13.92-1s-10.32-1.21-13.84-1.78c-1.77-.28-3.19-.53-4.17-.73a8,8,0,0,1-1.51-.35,10.77,10.77,0,0,1,1.54.16l4.19.57c3.53.47,8.42,1.09,13.84,1.62s10.33.88,13.89,1.1l4.22.25A8.52,8.52,0,0,1,1028.14,672.3Z" transform="translate(-924.44 -484.83)"/><path class="cls-1" d="M1176.69,605.66a2.22,2.22,0,0,1-.55.07l-1.58.11c-.69,0-1.52.08-2.49.21s-2.07.18-3.28.4l-1.89.3c-.66.11-1.34.27-2,.42-1.42.26-2.9.68-4.46,1.09a72.42,72.42,0,0,0-9.84,3.67,71.57,71.57,0,0,0-9.14,5.2c-1.32.93-2.59,1.79-3.7,2.71-.56.45-1.13.86-1.63,1.3l-1.45,1.26c-.94.79-1.71,1.59-2.41,2.25s-1.29,1.27-1.76,1.78l-1.09,1.14c-.25.26-.39.39-.41.37a2.56,2.56,0,0,1,.33-.44l1-1.21c.44-.52,1-1.15,1.7-1.84s1.44-1.51,2.37-2.32l1.44-1.29c.5-.45,1.06-.87,1.61-1.33,1.11-.94,2.38-1.82,3.7-2.77a63.27,63.27,0,0,1,19.12-8.93c1.58-.4,3.07-.81,4.5-1.06.71-.13,1.4-.29,2.06-.39l1.91-.27c1.22-.19,2.33-.24,3.31-.33s1.81-.12,2.5-.12h1.58A2,2,0,0,1,1176.69,605.66Z" transform="translate(-924.44 -484.83)"/><path class="cls-1" d="M1104.13,514.18a1.45,1.45,0,0,1-1.49,1.38,1.4,1.4,0,0,1-1.45-1.38,1.45,1.45,0,0,1,1.48-1.38A1.41,1.41,0,0,1,1104.13,514.18Z" transform="translate(-924.44 -484.83)"/><path class="cls-1" d="M1105.59,509.77c-.15.16-1.32.08-2.82.59s-2.48,1.29-2.67,1.24,0-.26.45-.61a6.74,6.74,0,0,1,2.11-1.12,6.19,6.19,0,0,1,2.28-.35C1105.45,509.56,1105.66,509.69,1105.59,509.77Z" transform="translate(-924.44 -484.83)"/><path class="cls-1" d="M1088.9,513.18a1.46,1.46,0,0,1-1.48,1.39,1.41,1.41,0,0,1-1.46-1.38,1.45,1.45,0,0,1,1.48-1.39A1.41,1.41,0,0,1,1088.9,513.18Z" transform="translate(-924.44 -484.83)"/><path class="cls-1" d="M1089.42,511.07c-.23,0-1.09-.92-2.64-1.66s-2.88-.88-3-1.06.22-.17.81-.12a7.58,7.58,0,0,1,2.47.73,6.81,6.81,0,0,1,2,1.44C1089.46,510.81,1089.53,511.07,1089.42,511.07Z" transform="translate(-924.44 -484.83)"/><path class="cls-6" d="M1094.23,525.24a2.93,2.93,0,0,0-2.51-1.17,2.62,2.62,0,0,0-1.84.86,1.61,1.61,0,0,0-.21,1.85,2,2,0,0,0,2,.62,5.85,5.85,0,0,0,2.08-1.09,1.61,1.61,0,0,0,.47-.43.5.5,0,0,0,0-.58" transform="translate(-924.44 -484.83)"/><path class="cls-1" d="M1090.37,522.37c.25,0,.18,1.69,1.6,3s3.25,1.18,3.25,1.42-.42.3-1.2.28a4.32,4.32,0,0,1-2.72-1.08,3.69,3.69,0,0,1-1.23-2.48C1090,522.76,1090.25,522.36,1090.37,522.37Z" transform="translate(-924.44 -484.83)"/></svg>