<svg id="Layer_1" data-name="Layer 1" xmlns="http://www.w3.org/2000/svg" viewBox="0 0 1018 785.81"><defs><style>.cls-1{fill:#f9bb85;}.cls-2{fill:#fefefe;}</style></defs><title>logo-prep</title><path class="cls-1" d="M445.22,1184.69a24.22,24.22,0,0,0,1.61-2.33c10.46-22.57,21.3-29.35,45.38-28.39,19.47.77,34.49,11.92,41.19,32.59,7.37,22.74,7.88,45.86-1,68.5a61.69,61.69,0,0,1-57.63,39.12,125.47,125.47,0,0,1-17.77-1c-4.43-.63-5.5.65-5.44,4.91.22,14.62,0,29.26.2,43.88.07,4.4-.88,6.63-5.75,7.07a91.29,91.29,0,0,0-18.18,3.16c-7,2.11-7.73-.65-7.71-6.71q.29-63.43,0-126.86c-.07-17.52-2.56-34.62-11.2-50.26-1.52-2.74-1.06-3.84,1.9-4.88a177.52,177.52,0,0,0,17.12-6.92c3.32-1.57,5-.39,6.81,2.13C440,1166.33,442.82,1175,445.22,1184.69Zm6.41,59.29c0,5-.06,10.06,0,15.08.16,12.39-2.17,10.13,10.62,12.63,17.79,3.48,33.4-3.62,38.37-18.61,7.06-21.33,6.84-43.32,0-64.69-4.27-13.39-19-16.64-30.11-7.76a41.58,41.58,0,0,0-10.86,13.91C451.68,1210.17,451,1227,451.63,1244Z" transform="translate(-31 -567.1)"/><path class="cls-1" d="M961.73,1173.06c18.36-29.4,60.87-21.72,74.32-1.55,7.18,10.77,10.66,22.65,12.07,35.28,2.29,20.46.59,40.42-10.83,58.13-15.23,23.63-37.94,31.7-65.09,29a335.87,335.87,0,0,1-35.17-5.6c-5-1-7.06-2.88-6.82-8.46.53-12.78.18-25.6.18-38.4,0-45.28.11-90.55-.12-135.82,0-5.23,1.52-7.28,6.6-7.82a127.68,127.68,0,0,0,18.88-3.19c5.47-1.43,6.08.73,6,5.35-.16,21.26-.06,42.53-.06,63.79Zm0,69.77v16.44c0,11.06,0,11.06,10.68,12.61,18.33,2.66,33.53-4.24,38.31-19,6.8-20.92,6.35-42.46.38-63.41-4.21-14.8-20.25-18.24-31.75-7.9a45.28,45.28,0,0,0-9.78,13.09C961.68,1209.91,961.28,1226.29,961.71,1242.83Z" transform="translate(-31 -567.1)"/><path class="cls-1" d="M31.14,1199.37c0-28.83.1-57.65-.1-86.48,0-4.68,1.15-6.39,6.06-6.29,21,.45,42.08-1.6,63.07.59,32.55,3.4,50.93,22.52,51.39,53.21.48,31.33-18.95,53.57-50.44,58.19a148.84,148.84,0,0,1-30.1,1.26c-6.44-.37-7.45,2-7.35,7.7.33,19.44,0,38.9.25,58.34.07,5.13-.87,7.45-6.63,7a162.43,162.43,0,0,0-20.58,0c-4.39.2-5.75-.95-5.71-5.65C31.26,1257.93,31.13,1228.65,31.14,1199.37Zm32.66-36.7h0c0,9.61,0,19.22,0,28.83,0,3.11.51,6,4.4,4.9,7-2,14.06-.7,21.08-1.07,14.76-.79,25-9.63,27-24.18a48.38,48.38,0,0,0-1.1-20.41c-3.27-11.27-11.1-17.68-22.21-19.93-8-1.64-16.31-1.39-24.53-1.23-3.61.07-4.74,1.49-4.69,5C63.9,1143.91,63.8,1153.29,63.8,1162.67Z" transform="translate(-31 -567.1)"/><path class="cls-1" d="M780.26,1226.11c.17-12.67,1.68-25.11,6.5-36.91,10.76-26.34,36.7-40,66.23-36.13,25.29,3.34,40.54,17.21,46.71,41.53,5,19.69,4.95,39.44-1.16,58.84-9.54,30.29-37,46.53-69.18,41.41-29.37-4.66-45.83-23.41-48.29-55.06C780.71,1235.24,780.52,1230.67,780.26,1226.11Zm88.81,2.28c0-21.21-1.84-31.31-6.8-40.16-8.74-15.6-33.58-17.71-40.77-2.3-11.4,24.45-10.47,49.91,0,74.85a15.84,15.84,0,0,0,1.94,2.81c7.87,11.2,33.26,13.92,40.79-5.09C868.44,1248,868.94,1237.19,869.07,1228.39Z" transform="translate(-31 -567.1)"/><path class="cls-1" d="M593.74,1184c6-11.41,13.2-19.61,23.8-24.53a58.36,58.36,0,0,1,34.1-5c17.83,2.74,29.73,16.49,30.28,37,.88,32.46.48,65,.74,97.44,0,3.12-1.14,3.92-4,3.87-6.86-.12-13.75-.34-20.58.08-5,.3-6.6-1-6.54-6.33.29-26.76.14-53.53.07-80.3a62.15,62.15,0,0,0-.72-9.54c-2.77-17.66-16.71-23.88-31.58-13.7s-18.84,25.8-19.07,42.63c-.29,20.36-.23,40.72,0,61.08.06,4.72-1.12,6.48-6,6.15a134.67,134.67,0,0,0-18.52,0c-5.26.36-7-1.16-6.94-6.7q.36-35.34-.18-70.68c-.26-16.36-3-32.31-11-46.88-1.74-3.17-.89-4.27,2.15-5.3,4.11-1.39,8.09-3.17,12.12-4.79,9.41-3.79,9.43-3.81,14.47,5.26C589.57,1169.61,591.56,1175.92,593.74,1184Z" transform="translate(-31 -567.1)"/><path class="cls-1" d="M274.77,1216.83c-.12-33.63,27.33-62.53,60.91-64.13a37.25,37.25,0,0,1,37.17,49.08c-6.69,20.13-22,32.59-39.23,43.18-2.53,1.55-5.2,2.89-7.86,4.22-7.31,3.64-7.32,3.62-2.1,10.38,10.22,13.24,21.7,16,36.74,8.87,10.07-4.75,18.54-11.67,26.43-19.34,2.86-2.78,4.68-3.82,8.22-.4,12.08,11.63,12.27,11.48-.47,22.87-13.68,12.24-29,21.59-47.21,25.16-20,3.91-36.41-2.55-49.42-18.1C284.49,1262.53,274.84,1236.92,274.77,1216.83Zm29.33-9.65c.09,8.08,2.19,15.75,4.72,23.33.69,2.06,1.25,4.18,4.14,2.68,13-6.71,24.88-14.6,30.31-29.06,3.29-8.76.6-18.45-6-23.57-6.15-4.76-13.55-4.24-22.13,1.54C306.16,1188.14,304.14,1197.22,304.1,1207.18Z" transform="translate(-31 -567.1)"/><path class="cls-1" d="M718.45,1204.88c0-30.42.12-60.84-.11-91.26,0-5.3,1.27-7.32,6.85-6.92,7.06.5,14.18.28,21.26.09,3.37-.08,4.82.63,4.81,4.48-.21,60.84.21,121.68-.62,182.52-.32,23.49-12.75,41-33.38,52.34-14.69,8.1-14.31,7.82-23.31-6.24-4-6.28-2.67-8.54,3.3-12,13.4-7.87,21.36-19.35,21.18-35.82-.31-29-.08-58.1-.08-87.15Z" transform="translate(-31 -567.1)"/><path class="cls-1" d="M203.53,1182.62c12.15-24.12,28-32.33,50.63-27.3,4.58,1,6.15,2.45,4.37,7.33-2.42,6.62-4.08,13.53-5.9,20.36-.66,2.48-1.11,3.92-4.48,3.29-22.24-4.16-37.27,8-37.69,31-.4,22.16,0,44.33-.12,66.5,0,10.24,1.62,9-9.11,8.91-7.22-.09-16.85,3.21-20.94-1.41-3.57-4-1.13-13.46-1.2-20.51-.19-19-.07-37.94-.51-56.89-.36-15.88-3.19-31.3-11-45.45-1.39-2.53-1.35-3.87,1.76-5a178.6,178.6,0,0,0,17.13-6.9c3.39-1.59,4.92-.24,6.65,2.32C198,1166,201,1173.81,203.53,1182.62Z" transform="translate(-31 -567.1)"/><path class="cls-2" d="M466.67,924.6q0-114.95,0-229.88c0-2.58-.93-5.61,3.67-5.56,28.11.28,56.3-2.33,84.33.77,40,4.42,63,27.54,64.37,63.62,1.58,40.94-19.69,68.27-59.5,76.48-13.76,2.83-27.7,2.73-41.65,2.68-10,0-10,0-10,10.29q0,40.82-.1,81.65ZM507.91,760h0c0,12.1.16,24.21-.09,36.31-.08,4.23,1.29,5.5,5.46,5.33,8.44-.34,16.9,0,25.35-.27,20.44-.56,32.38-10.64,36.1-30.58a60.64,60.64,0,0,0,.19-18.44c-2.34-19-15.78-32.09-34.86-33.48-8.86-.64-17.8-.31-26.69-.65-4.07-.15-5.61,1.2-5.52,5.47C508.07,735.81,507.91,747.92,507.91,760Z" transform="translate(-31 -567.1)"/><path class="cls-1" d="M540.74,1025.9l-2.81.14c-10.69-4.38-21.9-1.64-32.86-2.4-20.77-1.34-40.41-7.5-59.28-15.62-32.3-13.91-60.39-34-83.52-60.7a226.68,226.68,0,0,1-53.08-112.57c-8.35-49.57-.87-97,21.86-141.79,22.86-45.08,57.17-79.1,102.49-101.27,59.91-29.3,121.81-32.84,183.93-8.36,72.6,28.6,119.7,81.37,139.58,157,17.15,65.23,5.68,126.53-30.6,183-23.82,37-56.68,64.12-96.73,82.39-20.46,9.34-41.73,16-64.26,18-6.35,0-12.7-.07-19.05,0C544.32,1023.71,541.66,1022.71,540.74,1025.9Zm-33-101.25q0-40.83.1-81.65c0-10.3,0-10.33,10-10.29,13.95,0,27.89.15,41.65-2.68,39.81-8.21,61.08-35.54,59.5-76.48-1.39-36.08-24.33-59.2-64.37-63.62-28-3.1-56.22-.49-84.33-.77-4.6,0-3.67,3-3.67,5.56q0,114.94,0,229.88c1.39,2.17,3.61,1.54,5.56,1.55q15,.08,29.93,0C504.12,926.14,506.32,926.76,507.75,924.65Z" transform="translate(-31 -567.1)"/><path class="cls-1" d="M505.07,1023.64c11,.76,22.17-2,32.86,2.4C526.9,1026.29,515.91,1026,505.07,1023.64Z" transform="translate(-31 -567.1)"/><path class="cls-1" d="M540.74,1025.9c.92-3.19,3.58-2.19,5.67-2.22,6.35-.1,12.7,0,19.05,0C557.36,1026,549,1025.48,540.74,1025.9Z" transform="translate(-31 -567.1)"/><path class="cls-1" d="M466.67,924.6l41.08,0c-1.43,2.11-3.63,1.49-5.59,1.5q-15,.08-29.93,0C470.28,926.14,468.06,926.77,466.67,924.6Z" transform="translate(-31 -567.1)"/><path class="cls-1" d="M507.91,760c0-12.11.16-24.22-.09-36.31-.09-4.27,1.45-5.62,5.52-5.47,8.89.34,17.83,0,26.69.65,19.08,1.39,32.52,14.45,34.86,33.48a60.64,60.64,0,0,1-.19,18.44c-3.72,19.94-15.66,30-36.1,30.58-8.45.23-16.91-.07-25.35.27-4.17.17-5.54-1.1-5.46-5.33.25-12.1.09-24.21.09-36.31Z" transform="translate(-31 -567.1)"/></svg>