<svg id="Layer_1" data-name="Layer 1" xmlns="http://www.w3.org/2000/svg" viewBox="0 0 1916.33 767.56"><defs><style>.cls-1{fill:#f5b268;}.cls-2{fill:#546368;}.cls-3{fill:#6c797e;}.cls-4{fill:#b8d5ab;}.cls-5{fill:#0d3a3f;}.cls-6{fill:#86a1a2;}.cls-7{fill:#eaebea;}.cls-8{fill:#eee;}.cls-9{fill:#fbfcfc;}.cls-10{fill:#eeefef;}.cls-11{fill:#bf432b;}.cls-12{fill:#f9cf71;}.cls-13{fill:#6ba0ae;}.cls-14{fill:#56bfce;}</style></defs><title>main-bg</title><path class="cls-1" d="M1.67,790.25V748.33c2.19-2,4.56-3.9,6.52-6.12,7.36-8.35,14.44-17,21.92-25.19,4.74-5.23,10.4-3.51,12.35,3.38.3,1.06-.44,2.44,1.07,3.27,4.49-2.79,7-11.52,14.4-6.23,8.88,6.36-.19,11.92-2.22,18,.76-.24,1-.24,1.11-.36,2.86-2.77,5.72-5.56,8.57-8.34.71-.7,1.45-1.37,2.13-2.1,3.37-3.65,7.08-4.24,11-1,4.22,3.44,4.8,7.74,1.33,12-3.16,3.86-7.08,7.13-9.26,11.81a2.45,2.45,0,0,0,3.12-.4q9.29-8,18.57-16c5.74-4.9,11.27-10.11,17.35-14.56,4.59-3.37,9.4-2.3,12.7,2,3.43,4.43,1.65,8.06-2,11.45q-19.2,18-38.28,36.05c-3.61,3.41-7.62,6.46-10,11-2,3.63-3.94,7.95-.48,11,3.72,3.26,7.05-.71,9.77-3,4.38-3.78,8.37-8,13.77-10.38,5-2.23,11.53-1,15,2.53,2.31,2.4,2.49,4.6-.35,6.44-9.44,6.08-17.17,14.14-25.3,21.73-6.63,6.19-13.92,9.63-23.54,9.43-14.9-.29-29.84.9-44.76,1.46-2.75-3.37-7.38-5.28-8-10.3C11.61,798.86,10.41,796,1.67,790.25Z" transform="translate(-1.67 -156.58)"/><path class="cls-2" d="M1918,838.16c-2.9.67-3-2.12-3.93-3.48-17.19-25.17-34.21-50.44-51.4-75.61-2.32-3.41-2.55-5.08,1.43-7.84,14.74-10.2,29.16-20.87,43.43-31.72,4-3,7-4.21,10.47.07V728c-1.36,1.41-4.7-.6-4.9,2.72-.24,3.75,3.57,1.71,4.9,3.27Z" transform="translate(-1.67 -156.58)"/><path class="cls-1" d="M1844.12,184.21c4.2-1.17,8.43-2.28,12.61-3.53,3.35-1,7.15-1.31,5.52-6.9-.8-2.72,2.44-4.31,4.69-5.55,4-2.2,8.38-3.79,12.13-6.34,7.76-5.28,16.33-5.58,25.18-5.19,4.57.2,9.17,0,13.75,0v59.89c-2.64.31-5.22.25-7.55-1.29.17-7.14-2.45-8.84-9-5.83-1.44.66-2.83,1.47-4.25,2.18q-14.62,7.39-29.26,14.77c-2.68,1.35-5.46,1.86-7.61-.75a7.71,7.71,0,0,1-1.21-8.37c1.08-2.55,3.11-4,5.45-5.2,3.63-1.93,7.82-2.9,10.66-6.17a11,11,0,0,0,8.54-5.8c-3.17.83-6.35,1.5-8.91,3.74-2.63.91-5.3,1.71-7.87,2.76-5.66,2.31-11.23,4.79-17.48,5.13-3.47.19-5.92-.89-6.48-4.58-.52-3.46.26-6.47,4-7.67,4-1.29,8.06-2.22,12-3.45,2.37-.74,5.29-.57,6.54-3.46,4.77,0,9-1.47,12.17-5.34-4.83.54-9.82.45-13.67,4.23-3.64-.42-7,.82-10.48,1.6C1844.1,195.21,1842.28,193.54,1844.12,184.21Z" transform="translate(-1.67 -156.58)"/><path class="cls-3" d="M1.67,420.16V359.07c3.41-.07,3.59,3.13,4.8,5,7.78,12.17,14.31,25.1,22.77,36.85v0l-.95,2.82.11.11C21,407.05,14.84,412.11,8.57,417l-2.29,1.46L4,420Zm13.74-17.72a2.68,2.68,0,0,0-2.54-2.72c-1.89-.17-3,.77-3,2.68,0,1.5.76,2.71,2.37,2.81C14.14,405.33,15,404.08,15.41,402.44Z" transform="translate(-1.67 -156.58)"/><path class="cls-4" d="M1894,399.79c3.93-7.48,5.27-15.77,7.41-23.81.56-2.1,1.48-4.11,2.24-6.16,5.09,1.31,9.09,5.23,14.4,6v35.93c-2.06.47-3.77-.28-5.65-1.15-6.1-2.81-11.49-7.16-18.26-8.51C1894,401.33,1894,400.56,1894,399.79Zm20.19-4.09c-.17-1.51-.9-2.62-2.49-2.71-1.74-.09-2.3,1.37-2.54,2.67-.32,1.68.84,2.55,2.36,2.59S1913.86,397.2,1914.14,395.7Z" transform="translate(-1.67 -156.58)"/><path class="cls-5" d="M1896.74,280.26c2.28.68,4.56,1.39,6.84,2,1.17.33,2.64.68,3.18-.67,3.5-8.65,7.44-2,11.24-.41v3.6c-3.9,7.63-4.32,16.23-6.78,24.26-1.8,5.86-3.88,7-9.4,4.57-.69-.3-1.9-.93-1.85-1.17,1.82-7.58-4.75-5.86-8.24-7.52C1891.46,296.33,1895.2,288.52,1896.74,280.26Z" transform="translate(-1.67 -156.58)"/><path class="cls-5" d="M1918,270.44c-3.74-.63-8.2.43-7.52-6.47.26-2.63-5.3-1.93-8-3.29a60.25,60.25,0,0,1,5.77-23.66c3.09,1.79,6.47.92,9.74,1.09Z" transform="translate(-1.67 -156.58)"/><path class="cls-6" d="M1918,375.84c-5.31-.79-9.31-4.71-14.4-6,1.64-6.31,3.16-12.65,5-18.92,2.21-7.76,2.31-7.74,9.45-5Z" transform="translate(-1.67 -156.58)"/><path class="cls-6" d="M16.15,816.07c-.46,1-.93,1.93-1.4,2.89-3.2,5.38-7.8,5.71-13.08,3.63v-12c3.45.13,4.26-3.26,6.43-4.84C8.77,810.79,13.4,812.7,16.15,816.07Z" transform="translate(-1.67 -156.58)"/><path class="cls-2" d="M8.1,805.77c-2.17,1.58-3,5-6.43,4.84V790.25C10.41,796,11.61,798.86,8.1,805.77Z" transform="translate(-1.67 -156.58)"/><path class="cls-2" d="M1.67,827.38c8,3.79,8,4.9,0,10.78Z" transform="translate(-1.67 -156.58)"/><path class="cls-7" d="M1918,734c-1.33-1.56-5.14.48-4.9-3.27.2-3.32,3.54-1.31,4.9-2.72Z" transform="translate(-1.67 -156.58)"/><path class="cls-2" d="M706.46,825.15c.46-2.77.92-5.55,1.37-8.32a112.84,112.84,0,0,0,3-20.61l-.2-1.2c.79-1.84-1.08-3.8.26-5.61,2.71-5.36,1.84-11.31,2.8-16.95.2-.05.56-.08.56-.14.72-9.19,6.31-6.51,11.81-5.13,8.86,2.22,17.83,4,26.76,5.92-.87,14.66-4.05,29-6.17,43.48-2.69,18.32-5.79,36.6-8,55-1,8.57-4.52,16.53-4.43,25.5.07,6.63-.51,13.86-3.71,20.31-1.66,3.34.08,4.66,3.56,4.63,10.18-.08,20.36,0,30.54,0l-.81,1.82q-31.66.06-63.34.08c-3.36,0-6.79.47-10-.94,2.67-10.91,3.63-22.09,5.2-33.17,1.51-7,2.06-14.34,3.74-21.24a202.52,202.52,0,0,0,3.86-22c.45-3.11.89-6.21,1.34-9.31a7.67,7.67,0,0,0,.92-5.07Zm16-42.16a2.66,2.66,0,0,0-2.8,2.45c-.19,2,1.12,2.94,2.85,2.95a2.5,2.5,0,0,0,2.54-2.71A2.64,2.64,0,0,0,722.46,783Zm2.67-5.09a2.65,2.65,0,0,0,2.53-2.67,2.4,2.4,0,0,0-2.31-2.78,2.44,2.44,0,0,0-2.81,2.84A2.68,2.68,0,0,0,725.13,777.9Z" transform="translate(-1.67 -156.58)"/><path class="cls-8" d="M105.88,365a3.5,3.5,0,0,1,3.59-2.33C109.33,365.11,107.61,365.08,105.88,365Z" transform="translate(-1.67 -156.58)"/><path class="cls-7" d="M2.88,423.75l1.18-1.19Z" transform="translate(-1.67 -156.58)"/><path class="cls-9" d="M1525.15,571.07c1.14-2.05,4.72-1.66,4.8-4.78,2.42-.1,3.74-1.68,4.8-3.6a12.34,12.34,0,0,0,4.78-4.78,2.51,2.51,0,0,0,2.4-1.2c1.87.09,2.86-1.45,3.78-2.53,6.61-7.78,16.79-11.55,22.57-20.22a2.53,2.53,0,0,0,2.39-1.2c7.61-4.6,13-11.92,20.36-16.79a18.31,18.31,0,0,0,6-6h0a2.48,2.48,0,0,0,2.4-1.19c5.32-2.12,7.86-7.32,12-10.78,2.6-1.4,5.68-2.31,6-6,6.42-1.1,9.36-6.46,13.16-10.77a2.5,2.5,0,0,0,2.39-1.2c4.76-.66,5.74-7,10.78-7.22l1.19-1.18a7.62,7.62,0,0,1,3.6-3.6,12.27,12.27,0,0,0,4.79-4.77c4.86-3.79,9.6-7.72,14.6-11.29,2.63-1.87,4.2,1,5.23,2.49,6.88,10,16.22,17.92,23.54,27.57,6.79,8.94,13.51,18,20.86,26.43,3.69,4.25,8.22,8.23,11.41,12.56,4.48,6.1,10.35,10.88,14.43,17.23,6.53,10.18,15.72,18.19,23,27.78,9.11,11.91,19.93,22.43,28.47,34.89,4.32,6.31,10,11.75,15.28,17.33,7.8,8.2,14.24,17.5,21.67,26a30.24,30.24,0,0,0,2.58,2.34l-8.76,16.69c-1.64.26-2.89.69-1,2.41,0,2-.46,3.76-2.28,4.9-3.89.39-2.3,3.16-2.28,5.24a13,13,0,0,1-4,9c-2.57.15-2.39,2-2.24,3.72-.48.74-1,1.49-1.42,2.23-2.46.66-5.1,1.19-3.45,4.79l-4.14,7.28a1.93,1.93,0,0,0-.72.83c-2.65,6.14,4.11,5.7,6,8.64,0,2.25-.4,4.31-3.39,3.07-4.61-1.92-8.3,0-11.43,2.92-9.15,8.45-19.32,15.78-28.45,24.12-13.6,12.41-27.92,23.94-42,35.78-10,8.46-19.54,17.62-30.27,25.27-.43.31-.59,1-.87,1.53l-4.39-.37c0-3.29,0-6.59,0-9.89s0-6.71-3.77-8.36c-.45-2.37-2.53-2-4.11-2.39-.8-2.25-1.79-4.46-2.36-6.77-1.3-5.29-4.51-7-9.64-5.66l-1.29-5.49,15-8.28a2.62,2.62,0,0,1,2.8,2.75c-4.54,5.25-6,11-3.15,17.61,1.15,2.61,2.43,3.27,4.84,1.23q13.83-11.75,27.84-23.27c2.88-2.37,1.77-3.78-.64-5.3-5.15-3.26-10.43-3.35-15.84-.7-2-1.46-.1-4.15-1.79-5.71,7-9.27,11.22-19.9,14.67-30.88a7.74,7.74,0,0,0,2.15-.86q17.3-14.21,34.49-28.53c1.33-1.11,4.2-2.39,2.11-4.6s-3.56.67-4.89,1.75c-9.75,7.87-19.37,15.91-29,23.87-1.33,1.09-2.4,2.81-4.57,2.23,1.8-15.7-2.06-30.25-9-44.15,2-1.51,4.13-3,6.13-4.55,1.17-.94,2.94-1.89,1.59-3.77s-2.79-.38-4,.42c-2.23,1.44-3.79,4.23-7.11,3.41-.83-1.21-2-2.25-2-3.88,6.39-3.36,11.46-8.42,16.87-13,1.15-1,2.9-2,1.15-3.84s-2.84.18-3.94,1.06c-5.58,4.49-11.1,9.07-16.64,13.61l-3.68-3.71c-.12-2.41,1.78-3.33,3.3-4.57,4.16-3.36,8.32-6.72,12.38-10.2,1.32-1.12,4.25-2,2.13-4.48s-3.39.31-4.86,1.35c-6.06,4.33-10.65,10.62-17.88,13.39l-2.11-1.61c-.29-1.71,1-2.39,2-3.28,5.19-4.28,10.38-8.58,15.5-13,1.1-.95,3-2,1.61-3.84s-3-.6-4.07.45c-6,5.66-13.27,10-18.74,16.33-11.66-5.91-23.54-11.12-37-11.23.62-4.8,5.5-5.68,8-8.73.92-1.11,1.95-2.13.59-3.52-1.13-1.15-2.15-.37-3.09.39-4.53,3.72-9.35,7.13-13.12,11.71a84,84,0,0,0-32.09,10c1.45-4.75-4.87-5.6-4.84-9.14,0-4.16-2.77-4.92-5.41-5.73s-4.93.35-6.17,3l-1.11.68c-5,1.06-7.6,5.73-5.41,9.92.15.81.29,1.61.43,2.42-2.3,2.23.56,2.89,1.31,4.12,1.6,2.65,5.45,3.39,6,7-7.32,7.61-11.55,17.21-16.86,26.12a3.83,3.83,0,0,1-2.71-3.72,34.7,34.7,0,0,0-8.35-8.4l-1.22-2.38a3.67,3.67,0,0,0-3.58-2.41l-2.39-3.58a3.67,3.67,0,0,0-2.4-3.6q-3.59-4.18-7.18-8.38c-.9-4.08-4.3-6-7.19-8.38h0a2.2,2.2,0,0,0-2.4-2.4h0c-1.29-4-4.45-6.65-7.2-9.58l-2.39-2.39c-.3-3-2.57-4.49-4.79-6l-4.8-6-13.16-15.57c-.76-4.91,4.13-6.29,6-9.56a8.83,8.83,0,0,0,7.19-6c2.31-.25,3.26-2.31,4.79-3.59S1525,574.15,1525.15,571.07Zm33.24,8.45c-3.67-1.62-7.16-2.47-9.45,2.11l-2.23,1.7-.8.88c-.2.39-.4.78-.61,1.17-1.25.37-2.42.79-1.11,2.37l.06,5c-.06,3-1,6.18,2.3,8.21.17.46.33.92.49,1.38l.72,1,2.55,2.7,1.07.88,2.18.59a1.21,1.21,0,0,0,1.88,0l3.29-.9c1.88.28,2.59,1.95,3.72,3.11-5.73,2.07-7.23,5.59-5.06,11.45,1.07,2.88,2.07,4,5,1.48,6.71-5.92,13.59-11.66,20.56-17.28,3.24-2.61,2.06-4.1-.77-5.67-4.26-2.37-8.45-1.3-12.65.17-.49-7.7-6.84-12.43-9.65-19Zm121.23-65.2a22.41,22.41,0,0,0-1.42-2.22c-4.33-5.21-8.76-10.35-13-15.63-2-2.49-3.73-2.27-6-.36-5.15,4.42-10.31,8.82-15.66,13-2.61,2-1.6,3.64-.09,5.45,4.21,5.05,8.52,10,12.67,15.12,1.83,2.25,3.41,2.1,5.47.3,5.27-4.57,10.66-9,16-13.51A27.66,27.66,0,0,0,1679.62,514.32Zm20.27,23a30.05,30.05,0,0,0-2.81,1.75c-5.5,4.6-10.92,9.28-16.46,13.82-2.26,1.85-2,3.3-.22,5.38,4.44,5.11,8.73,10.35,12.95,15.64,1.7,2.14,3,1.88,4.9.25,5.25-4.59,10.59-9.08,16-13.52,1.77-1.47,2.7-2.62.74-4.81-4.51-5-8.79-10.29-13.12-15.49A27.73,27.73,0,0,1,1699.89,537.34ZM1789,646.4a7.5,7.5,0,0,0-1.48.77q-8.77,7.17-17.52,14.4c-1.73,1.44-.89,2.7.25,4,4.38,5.16,8.82,10.27,13,15.56,2,2.48,3.39,2.45,5.73.37,5.07-4.47,10.39-8.65,15.67-12.88,2-1.58,2.18-3,.45-4.94-4.44-5.1-8.71-10.35-13.07-15.52A3.87,3.87,0,0,0,1789,646.4ZM1742,589a23,23,0,0,0-2.74,1.69c-5.37,4.44-10.66,9-16,13.37-2.42,2-1.47,3.85,0,5.63,4.32,5.2,8.79,10.28,13.06,15.52,1.53,1.89,2.73,1.76,4.42.31,5.42-4.68,10.82-9.39,16.43-13.84,2.44-1.94,2-3.17.17-5.19-4.36-4.89-8.48-10-12.73-15C1743.83,590.63,1742.92,589.91,1742,589Zm-117.66-60.5c-1.85-3.28-3.8-.76-5.17.36-12.28,10.08-24.45,20.3-36.66,30.46-1.25,1-2.82,2.11-1.23,3.82s2.92.23,4.12-.76q18.36-15.21,36.65-30.46C1623.07,531.08,1624.38,530.31,1624.33,528.52Zm-28.19,50.55c.79-.57,2-1.32,3-2.2,11.78-9.83,23.57-19.64,35.25-29.58,1.09-.93,4.07-1.68,2.17-4s-3.48.06-4.92,1.24q-17,14.09-34.06,28.2a28.49,28.49,0,0,0-3.49,3.27,2.69,2.69,0,0,0-.3,2.15C1594,578.92,1594.78,579.41,1596.14,579.07Zm23.37,28.81a11.89,11.89,0,0,0,1.77-1Q1640.65,591,1660,575c1.18-1,1.9-2.16.72-3.58-1.31-1.57-2.43-.51-3.54.4-6.6,5.43-13.23,10.83-19.81,16.31q-8.94,7.44-17.77,15c-1,.84-2.53,1.62-1.74,3.34C1618.1,607.12,1619,607.45,1619.51,607.88Zm144.71,87.93c-.9-2.25-2.08-2.29-4-.71q-19,15.89-38.16,31.62c-1.19,1-2.21,2-1,3.43,1.53,1.89,2.76.4,4-.6l37.21-30.89C1763.16,697.92,1764.39,697.41,1764.22,695.81ZM1632.08,623a20,20,0,0,0,2.77-1.59q18.62-15.31,37.18-30.69c1.06-.88,2.28-2,1.07-3.5s-2.56-.43-3.6.42c-4.77,3.88-9.48,7.83-14.22,11.74-7.5,6.19-15,12.34-22.51,18.56-1,.84-2.45,1.63-2.14,3.28C1630.76,621.87,1631.52,622.37,1632.08,623Zm-30.84-36.48a3.55,3.55,0,0,0,1.14-.38c4.58-3.71,9.17-7.43,13.7-11.2a1.92,1.92,0,0,0-2.5-2.9c-4.43,3.6-8.89,7.17-13.2,10.92C1598.8,584.36,1599.32,585.75,1601.24,586.54Zm127.13,151.85a5.67,5.67,0,0,0,1.39-.51q6.69-5.42,13.34-10.89a1.75,1.75,0,0,0,.19-2.63,1.72,1.72,0,0,0-2.6-.4q-6.72,5.38-13.29,10.93a2.36,2.36,0,0,0-.48,2.08C1727.11,737.58,1727.93,738,1728.37,738.39Zm-93-132.61c-.21-1.51-1.22-2.76-2.73-1.68a88.05,88.05,0,0,0-9.09,7.61c-1.61,1.54,0,2.54,1.32,3C1626.66,615.23,1635.36,607.86,1635.41,605.78Zm-5.14-70.11c-.39-.87-1.29-2.42-2.72-1.42a73.68,73.68,0,0,0-9.49,7.87c-1.18,1.17,0,2.61,1.57,3C1620.84,545.48,1630.07,537.59,1630.27,535.67Zm10.51,66.24c1.78.08,10.26-7.23,10.2-8.85-.09-2.22-1.39-2.92-3.15-1.58a80.74,80.74,0,0,0-8.18,6.93C1638.22,599.85,1638.92,601.31,1640.78,601.91Zm101,98.93c-.58-1.17-1.19-3.11-3.2-1.68a70.56,70.56,0,0,0-8.61,7.19c-1.56,1.54-.57,2.93,1.43,3.27C1732.59,709.83,1741.62,702.3,1741.77,700.84Zm-153.86-130c1.93.17,11.17-7.26,11.11-8.7a3.22,3.22,0,0,0-1-2c-.88-.79-1.79-.29-2.6.39-2.55,2.15-5.13,4.27-7.67,6.44-.74.64-1.5,1.46-1.08,2.51C1586.93,570.13,1587.64,570.58,1587.91,570.87ZM1726,714c-.33-1.4-1.2-3-2.73-1.92a71,71,0,0,0-9.12,7.67c-1.31,1.3-.23,2.62,1.41,2.95C1716.8,722.9,1725.84,715.3,1726,714ZM1604,557.67c1.41.12,10.38-7,10.5-8.37.16-1.93-1.32-2.78-2.59-1.92a70.55,70.55,0,0,0-9.17,7.36C1601.38,556,1602.62,557.17,1604,557.67Zm62.55,22.45c-.06-1.69-1.36-2.48-2.69-1.54a77.11,77.11,0,0,0-8.61,7.12c-1.28,1.21-.63,2.65,1.08,3.09C1657.81,589.17,1666.38,581.93,1666.57,580.12Zm90.76,107.77c-.28-1.35-1.21-2.36-2.46-1.69a26.65,26.65,0,0,0-9.3,8.06c-.82,1.17.26,2.23,1.64,2.4C1748.34,696.8,1757.3,688.93,1757.33,687.89Z" transform="translate(-1.67 -156.58)"/><path class="cls-5" d="M1691.54,649l3.68,3.71a3.87,3.87,0,0,0,2.56,2.21c0,1.63,1.15,2.67,2,3.88.48,2,2.14,3.09,3.41,4.49,7,13.9,10.85,28.45,9,44.15l-.24,6.14c-3.45,11-7.62,21.61-14.67,30.88l-14.06,13.39-14.94,8.28-18.59,5c-19.85,1.37-38-3-53.73-15.76A77.14,77.14,0,0,1,1580.55,738c-1-1.57-1.29-3.94-3.75-4.3a1.07,1.07,0,0,0-.19-.93c.25-.91-.3-1.28-1-1.52l-6.24-20c.91-8.85.11-17.78,1.48-26.66.41-2.64,1.75-5.18,1.35-7.95,5.31-8.91,9.54-18.51,16.86-26.12l15.19-12.28a84,84,0,0,1,32.09-10l7.58.15c13.43.11,25.31,5.32,37,11.23a6.78,6.78,0,0,0,3.65,3.3l2.11,1.61Zm-30.75,3.26c-7.81-3.55-16-4.43-24.5-3.78-30,2.33-53.08,33.64-45.33,61.55,2.42,18.66,19.81,36.6,38.36,39.58a7.77,7.77,0,0,0,4.83,1l1.19.13c11.66,1.53,22.56-.29,32.25-7.4,6.34-3.48,12.14-7.55,15.58-14.21,4.1-4.78,6.4-10.52,7.84-16.47,3.5-14.49,2.1-28.27-7.16-40.58-.91-1.46-1.11-3.51-3.24-4,0-3-2.16-4.2-4.51-5.19a3.92,3.92,0,0,0-4.08-3.36c-.74-2-2.4-2.9-4.34-3.42A16.23,16.23,0,0,0,1660.79,652.26Z" transform="translate(-1.67 -156.58)"/><path class="cls-1" d="M1825.67,663.3l8.76-16.69c8.28.09,10.18-5.12,10.75-12.14.46-5.74,2-11.2,9.78-10.86,2.53.11,3.38-2.4,4.49-4.28,1.7-2.86,3.73-4,6.78-1.51,2,1.65,4.62,2.14,7.28,2.28,7.72.39,9.9,2.26,10.68,9.75.33,3.17.82,3.47,3.91,2.17,6.37-2.7,11.69.81,11.74,7.55,0,3.67,1.12,4.75,4.83,4.65,7.62-.19,9.66,2.5,7.63,10-4.9,18-8.66,36.37-14.79,54.07-.83,2.42-2.23,5.09-.45,7.44,2.62,3.44,1.14,5-1.9,7-9.35,6-18.64,12.19-27.68,18.67-4,2.85-6.26,1.79-8.72-1.73-9.2-13.2-18.54-26.3-27.76-39.48-4.44-6.35-5.69-6.36-9.62.21-1.73,2.91-3.61,5.73-5.39,8.61-1.34,2.15-2.94,3.79-5.77,3.39-1.92-2.94-8.68-2.5-6-8.64l.72-.83,4.14-7.28c1.84-1.1,3.38-2.42,3.45-4.79.47-.74.94-1.49,1.42-2.23a4,4,0,0,0,2.24-3.72,13,13,0,0,0,3.95-9c2.42-1,2.13-3.23,2.29-5.24,1.82-1.14,2.25-2.93,2.28-4.9A2.07,2.07,0,0,0,1825.67,663.3ZM1867,632.13c-5.28,3.26-4.29,6.62-2.32,10.2C1865.32,639.45,1866,636.56,1867,632.13Z" transform="translate(-1.67 -156.58)"/><path class="cls-1" d="M1685.69,786.44c3.79,1.65,3.77,5,3.78,8.36s0,6.6,0,9.89c-.61,4.16,2.1,3.57,4.63,3.24l2.55.29,1,.92,1.56,2.6c-.31,1.94-.58,3.89-1,5.82-.16.8-1.73,1.58-.29,2.34a2.26,2.26,0,0,0,3.1-.93l3.92,0c.45,1.07,1.31,1.19,2.3,1l2.31,1.8c.1,1.89.19,3.78.28,5.67l-.23.23-.9,1c-.21.42-.42.85-.62,1.27-1.24,0-2.56.43-2.59,1.68s1.27,1.72,2.5,1.8c.2.43.4.85.59,1.28,1.51,7.29.06,9.22-7.29,9.66l-.45-1.8c-.24-.55-.48-1.09-.73-1.63l-10.45-29.66c-1.65,7.66-2.15,15.16-2.74,22.65-.52,6.62-.21,13,2.88,19.17,2.75,5.5,2.67,11.58,1.24,17.56-.31,1.31-1.28,2.64.45,3.67,0,.2,0,.41,0,.62-2.91,0-4.07,2.33-5.2,4.36a100.26,100.26,0,0,0-5.29,10.7c-.88,2.15-2,3.22-4.32,3.3-10.33.38-20.67.76-31,1.28-3.44.18-4.32-1.29-4.47-4.56-.23-5.16,1.14-10.16.67-15.39-1.38-15-4.63-29.86-4.3-45,.19-8.84,8.58-22,15.92-24.89,4.17,11.49,4.47,24,9.63,35.4a23.25,23.25,0,0,1,.46-5.6c1.56-12.71,5.28-25.08,5.49-38,0-3.74.06-8.68,5.5-10Z" transform="translate(-1.67 -156.58)"/><path class="cls-2" d="M1693.82,923.11c-2.23,1.24-4.67.78-7,.79q-29,0-57.94,0c-1.76-7.81-.43-15.72-.72-23.58,10.7-.43,21.43-.43,32.08-1.42,9.67-.9,19.44-.14,29-2,3.3-.21,3.67,1.78,3.72,4.49C1693.12,908.62,1693.52,915.86,1693.82,923.11Z" transform="translate(-1.67 -156.58)"/><path class="cls-2" d="M1515.45,673.16c.7,3.1,1.07,6-.78,9.07-1.08,1.83-.92,4.71-.56,7,1.4,8.94-1.06,16.2-8.79,21.23-8.54,5.55-17.31,6.29-26.4,1.1a24.77,24.77,0,0,1-11-12.05c-1-2.38-2.15-5.2-5.46-4.4s-2.82,3.85-2.89,6.43c-.43,15.44-7.5,24.35-21.06,26.9-10,1.88-16.9-2.52-22.1-10.59l-1.41-3.07a12.89,12.89,0,0,0-8-8.63,1.38,1.38,0,0,0-.58-1c-1.63-4.59.6-6.78,4.72-8.27,5.61-2,11.35-3.5,17.1-5,10.62-2.86,21.72-1.65,32.38-4a12,12,0,0,0,5.95-2.64l3.56-1.2c13.71-6.22,27.78-11.14,43-11.72Zm-39.61,13.29a7,7,0,0,0-4.36,5.68c-.47,10,9.69,19.15,21,18.78,11.74-.38,18-7.33,17-18.83,0-4.11,1.86-8.87-3.94-10.86a2.76,2.76,0,0,0-2.53-2.16C1493.13,678.63,1483.59,679.26,1475.84,686.45Zm-29.67,6.74c-9.73-.78-18.76,1.07-26.73,7-4.49,5.12-2.54,9.91.74,14.62,3.91,9.19,10.9,12.38,20.77,9.51,11.89-3.45,18.8-18.74,12.56-27.78A9.1,9.1,0,0,0,1446.17,693.19Z" transform="translate(-1.67 -156.58)"/><path class="cls-5" d="M1674.56,786.43c-5.44,1.31-5.45,6.25-5.5,10-.21,12.93-3.93,25.3-5.49,38a23.25,23.25,0,0,0-.46,5.6c-5.16-11.36-5.46-23.91-9.63-35.4l-.72-3.8c-1.1-5.58-2.17-11.16-3.32-16.73-.53-2.61-.88-5.09,1.63-7a90.08,90.08,0,0,0,18.52-5.52c5.13-1.37,8.34.37,9.64,5.66.57,2.31,1.56,4.52,2.36,6.77Z" transform="translate(-1.67 -156.58)"/><path class="cls-5" d="M1700.87,842.48l.45,1.8c.9,3.69,1.56,7.47,3.81,10.69,3.6,13.9,3.6,13.9-13.61,19.27-1.73-1-.76-2.36-.45-3.67,1.43-6,1.51-12.06-1.24-17.56-3.09-6.2-3.4-12.55-2.88-19.17.59-7.49,1.09-15,2.74-22.65q5.24,14.82,10.45,29.65C1700.38,841.38,1700.63,841.93,1700.87,842.48Z" transform="translate(-1.67 -156.58)"/><path class="cls-2" d="M1669.59,771.62a90.08,90.08,0,0,1-18.52,5.52l-1.35-6,18.59-5Q1668.94,768.88,1669.59,771.62Z" transform="translate(-1.67 -156.58)"/><path class="cls-10" d="M1521.56,681.26c0-2,0-4,0-6,2.93-1.78,6.17-1.2,9.31-1.14,4.1.08,4.05,3.11,3.8,6-.28,3.17-2.07,3.83-5,2.9A81.15,81.15,0,0,0,1521.56,681.26Z" transform="translate(-1.67 -156.58)"/><path class="cls-7" d="M1407,706.16a12.89,12.89,0,0,1,8,8.63c-3.15,0-5.76,1-7.42,3.87-1,1.73-2.46,2.71-4.37,1.42-1.74-1.18-1.8-3.07-1-4.76C1403.72,712.21,1405.43,709.21,1407,706.16Z" transform="translate(-1.67 -156.58)"/><path class="cls-10" d="M1470.06,680.06c0,1.33.08,2.65.11,4l-3.56,1.2C1466.4,679.14,1466.4,679.14,1470.06,680.06Z" transform="translate(-1.67 -156.58)"/><path class="cls-4" d="M1694.09,807.93c-2.53.33-5.24.92-4.63-3.24l4.4.37C1693.93,806,1694,807,1694.09,807.93Z" transform="translate(-1.67 -156.58)"/><path class="cls-10" d="M1570.67,532.76a2.53,2.53,0,0,1-2.39,1.2C1568.5,532.42,1568.75,530.92,1570.67,532.76Z" transform="translate(-1.67 -156.58)"/><path class="cls-4" d="M1697.64,809.14l-1-.92Z" transform="translate(-1.67 -156.58)"/><path class="cls-10" d="M1644.92,471.66l-1.19,1.18Z" transform="translate(-1.67 -156.58)"/><path class="cls-2" d="M1193.5,922.89c.72-2.45-.08-4.71-.83-7-7.86-24.07-15.62-48.17-23.62-72.19-1.23-3.68-1.16-5.42,3-7,11.69-4.57,23.14-9.74,34.69-14.68.14,1.37-.17,3,.51,4,4.64,6.82,5.23,15.21,9,22.42a134,134,0,0,1,6.9,15.71c6.51,17.57,13.15,35.08,20.31,52.4,2,4.77,4.61,5.62,9.25,5.61,5,0,10.28-1.84,15,1.24q-34.8.18-69.61.31A26.21,26.21,0,0,1,1193.5,922.89Z" transform="translate(-1.67 -156.58)"/><path class="cls-11" d="M92.75,923.2c3.58-19.81,7.27-39.61,10.65-59.46.66-3.86,2.25-6,6-7.1q10.56-3.27,20.91-7.2c3.1-1.17,5.05-.68,7.22,1.88,6.06,7.14,12.29,14.16,18.7,21,2.64,2.81,2.54,5.19,1.07,8.51-6.19,14-12.11,28.17-18.14,42.27-7.27,1.77-14.66.78-22,.74C109,923.79,100.84,924.88,92.75,923.2Z" transform="translate(-1.67 -156.58)"/><path class="cls-3" d="M1267.77,923.41c-4.76-3.08-10-1.25-15-1.24-4.64,0-7.27-.84-9.25-5.61-7.16-17.32-13.8-34.83-20.31-52.4a134,134,0,0,0-6.9-15.71c-3.81-7.21-4.4-15.6-9-22.42-.68-1-.37-2.68-.51-4,6.83-3.48,13.58-7.16,21.22-8.66l.93,2.23q5.24,12,10.46,24l1.24,2.33a1.08,1.08,0,0,0,.2,1.1c.5,1.21,1,2.42,1.52,3.63a21.93,21.93,0,0,0,3.58,8.4,5,5,0,0,0,1.45,3.48c-.31,1.47.52,2.53,1.26,3.62l1,1.41-.08.07c4.15,11,8.28,22,14.08,32.26a13.42,13.42,0,0,0,3.11,8.16c2.08,5.71,4,11.5,7.26,16.67l-.09,1.25c-1.11.1-2.17.31-2.7,1.49ZM1225.42,824a2.82,2.82,0,0,0-2.81-2.53,2.39,2.39,0,0,0-2.69,2.51c0,1.85,1.1,3,3,2.84A2.66,2.66,0,0,0,1225.42,824Zm5,10.73a2.54,2.54,0,0,0-2-3.08,2.5,2.5,0,0,0-3.35,2.28,2.46,2.46,0,0,0,2.31,2.83A2.48,2.48,0,0,0,1230.39,834.73Z" transform="translate(-1.67 -156.58)"/><path class="cls-2" d="M192.21,907.82l1.07-.76c11.45-.62,22.91-1.1,34.35-1.89,11.79-.81,23.56-1.92,35.33-2.9l3.37.57c.16,3.19.31,6.38.47,9.57-.15,2.44-.47,4.89.63,7.22l.09,3.44a50.65,50.65,0,0,1-5.85.68q-32.12.09-64.22,0a41.35,41.35,0,0,1-4.68-.52c-.24-3.61-.47-7.23-.71-10.84Z" transform="translate(-1.67 -156.58)"/><path class="cls-2" d="M1271.11,923.43c.53-1.18,1.59-1.39,2.7-1.49.16.43.32.87.47,1.3Z" transform="translate(-1.67 -156.58)"/><path class="cls-1" d="M134.57,331.43c-9.4,6.48-20.42,9.82-30.42,15.19,3.52.94,6.17-.94,8.94-2.12,3.91-1.67,7.15-1.27,9,2.65s-1.57,6.15-4.09,7.5c-11.48,6.17-22.41,13.34-35.63,16.06-16.28,3.35-32.36,7.78-48.44,12.06-5.09,1.35-8.22.78-11-4.29-2.64-4.72-4.63-10.11-9.16-13.64a1.92,1.92,0,0,0-.31-1c-1.26-3.26-2.44-6.57-5.69-8.49l0-.07c-.32-1.14-.37-2.47-1-3.38-3-4.26-2-6.61,1.74-10.7,6.73-7.42,11.64-16.49,17.25-24.92q10.76-16.14,21.38-32.38a10.57,10.57,0,0,1,5-4c11.32-4.89,23-9.09,32.4-17.57,2-1.86,3.34-1.13,4.83.82,3.5,4.61,3,11.74-1.37,16.38-3.33,3.53-7.55,5.84-11.68,8.22a29.64,29.64,0,0,0-7.37,6,4.7,4.7,0,0,0-.18,6.55c1.87,2.2,3.55.13,5.19-.81,16.19-9.33,32.34-18.72,48.58-27.94,6.15-3.49,6.92-3.05,8.34,3.93.62,3.1,1.78,6.16,1.1,9.42-2.16,3.56-5.88,5.21-9.16,7.33-8.58,5.53-17.31,10.83-26,16.23-1.71,1.07-3.84,1.87-3.46,5.1,4.73-2.7,9-5,13.25-7.57,8.92-5.38,18.72-9.32,26.73-16.21,4-2.1,7.92-4.39,12-6.27,4.72-2.15,9.44-.41,11.51,3.89s.48,8.44-4.26,11.33c-5,3-11.08,4.37-14.54,9.67a2.84,2.84,0,0,0-1.09.38c-1.66.07-3.26.23-3.61,2.33-3.86-.61-6.25,2.38-9,4.05-8,4.86-16.62,8.78-24.65,15.68,7.62-1,13.12-4.31,18.81-6.9,6.29-2.88,11.64-3.31,15.94,3.05l.11,2.12Z" transform="translate(-1.67 -156.58)"/><path class="cls-9" d="M137,308.8a2.84,2.84,0,0,1,1.09-.38c.42.37,1.14,1.13,1.22,1.07,5.5-4.32,12.85-5.48,17.89-10.68,3.94-4.05,4.87-8.56,2.08-13.5-2.14-3.79-8.51-6.22-13.06-4.93-.95.27-1.81,1.09-2.73,1.14-3.28.18-5.66,5.08-8.07,3.33-1.83-1.33-1.32-5.84-1.92-8.92-.69-3.52.05-7.81-4.8-9.17l-.06-4.7-2.4-12c-.55-4.79.22-8.35,6.41-7.22a3.08,3.08,0,0,0,3.18-1.15c5.35.26,10.59-.21,15.56-2.41,4-.6,7.9-1.65,12-1.21,3.22-2.5,7.61.31,10.79-2.37,6.08-.09,11.74-3.35,18-2.42,7.53-1.86,15.41-2,22.76-4.78h6c2.62-1.85,5.8-1.14,8.68-1.78,7.91-1.76,16.06-2.18,24-4,2.12-.49,6.62-2,6.62,2.43,0,8.29,3.12,15.92,4,24,.82,7.56.91,15.43,4.59,22.46l0,6c1.37,6.38,1.43,12.94,3.26,19.3,1.2,4.14,1.13,8.35-5.48,8.52-5.56.15-11.11,1.3-16.65,2.14-6.45,1-13.14,1.41-19.32,2.9-11.62,2.79-23.43,4.26-35.12,6.47-13.58,2.56-27.35,4.1-40.95,6.74-5.21,1-10.75,3.57-16.27.63,0-1.19,0-2.39,0-3.58,2.6-3.23-2.22-5.38-1.22-8.38V310C137,309.58,137,309.19,137,308.8Zm40.33-37.21c5.32-.88,9.84-1.64,14.37-2.38q18.88-3.1,37.78-6.21c2.37-.4,4.9-.63,4.29-4.26-.64-3.82-3.27-2.68-5.52-2.4-2.57.33-5.11.86-7.67,1.28q-21.26,3.53-42.51,7c-2.47.4-4.14,1.13-3.65,4.17C174.8,271.11,175.94,271.88,177.33,271.59Zm-25.44-22.72c-5.13,0-10.24,5.27-10.07,10.33.17,4.87,5.09,8.92,10.77,8.85C157.82,268,161,264.2,161,258S158,248.83,151.89,248.87Zm29,36.29c8.17-1.33,17.2-2.84,26.24-4.25,2.36-.37,2.91-1.61,2.45-3.75s-1.2-3.28-3.6-2.88c-9,1.54-18,3-27.07,4.49-2.51.42-2.4,2.2-2.1,4.09S178,285.77,180.84,285.16Zm36.91-6.08c8.53-1.37,17.53-2.8,26.53-4.26,2-.32,2.59-1.58,2.27-3.45s-.8-3.56-3.31-3.15q-13.5,2.19-27,4.36c-2.33.37-2.76,1.8-2.51,3.87C214,278.67,215,279.68,217.75,279.08Zm14,5.45,13.56-2.24c1.46-.25,2.84-.63,2.55-2.56s-1.55-2.11-3.1-1.86c-4.52.72-9.05,1.43-13.57,2.17-1.46.23-2.82.67-2.54,2.59S230.16,284.74,231.73,284.53Zm-25.39,4.18c4.77-.8,9.09-1.56,13.43-2.23,1.73-.26,3.25-.61,2.79-2.88-.4-1.92-1.83-1.77-3.28-1.54l-13,2.05c-1.67.27-3.28.66-2.77,2.93A2.1,2.1,0,0,0,206.34,288.71Zm-25,4c4.49-.73,9-1.47,13.48-2.17,1.52-.24,2.75-.75,2.47-2.59s-1.6-2.05-3.11-1.8c-4.49.74-9,1.53-13.47,2.24-1.55.24-2.74.71-2.45,2.56S179.74,293.13,181.33,292.74Z" transform="translate(-1.67 -156.58)"/><path class="cls-9" d="M109.45,790.25c0-1.52.89-2.55,1.81-3.64,5-6,3.86-11.92-3.46-14.36-6-2-12.41-3-17.93,2a38.52,38.52,0,0,1-4.28,3.21c-2.68,1.79-5.34.68-7-1.18-2.16-2.35,1-3.39,2.21-4.52,8.58-8.4,17.38-16.59,26-25,2.08-2,3.87-2,6.38-.87,12.44,5.76,25,11.34,37.46,17,2,.9,4.08,1.59,6,2.56,2.38,1.18,4,.15,4.87-1.83,1.1-2.44-1.19-3.05-2.72-3.75-12.07-5.49-24.22-10.78-36.19-16.48-2.17-1-7.13-1-5.19-5.5,1.78-4.15,5.62-4.84,9.56-2.64,11.62,6.48,24.24,10.76,36.16,16.59,1.43.7,2.84,1.48,4.32,2.06,2.05.8,4.14.74,5.1-1.53s-.72-3.91-2.56-4.72c-5.27-2.34-10.72-4.25-16-6.63q-13-5.88-25.71-12.2c-3.26-1.61-2.48-5.06-1.69-7.47,1-3.11,3.29-1.33,5.32-.37,6.82,3.23,13.79,6.16,20.58,9.45,2.49,1.21,3.49.41,4.6-1.72s.43-3.19-1.58-4.07c-14-6.16-27.91-12.41-41.9-18.54-3.46-1.52-6.24-1.37-4.84,3.62.59,2.09.07,3.77-1.42,4.76C101.2,718.54,96.46,724.18,91,729c-2.18,2-4.76,1.55-5.43-.69-1.18-4-4.77-6.81-4.89-11.16q5.42-12,10.82-24c1.76-2.07,1.54-4.8,2.39-7.17,1-.92,2.65-1.68,2.94-2.78,3.08-11.71,9.91-21.83,13.84-33.16,1.72-1.27,1-3.15,1.19-4.8a2.51,2.51,0,0,0,1.2-2.39c4.17-1.91,3.55-6.21,4.79-9.58a6.71,6.71,0,0,0,2.39-4.79c1.4-.87,1.14-2.29,1.19-3.6,3.17-2.94,4.48-6.92,6-10.78-.11-3.36,3-5.34,3.61-8.38,1.73-1.27,1-3.14,1.18-4.8.41-.79.81-1.59,1.21-2.38,8-10.86,11-24.06,16.76-36,.69-1.65,2.57-2.71,2.39-4.79,3.26-3.82,4.12-8.72,6-13.16,1.73-1.27,1-3.15,1.19-4.8,2.91-1.54,2.74-4.62,3.6-7.18,1.4-.87,1.14-2.28,1.2-3.6,4.55-5.16,7-11.31,8.39-18a2.45,2.45,0,0,0,1.18-2.38c4-1,6.78,3.37,10.76,2.39a6.72,6.72,0,0,0,4.79,2.4c2,3,5.25,3.18,8.38,3.6,13.47,8.56,28.57,13.75,43,20.33,13.87,6.33,27.68,12.82,41.72,18.81,14.69,6.27,29,13.46,43.71,19.79,13.49,5.81,26.81,12,40.15,18.19,1.71.79,5,1.39,2.92,4.5s-3,6.89-4.5,10.29c-6.33,14.14-13,28.14-19.64,42.13-10.72,22.53-20,45.72-30.93,68.15-7.92,16.21-14.31,33.13-22.17,49.41-3.14,6.5-6.92,13-8,20.39a2.19,2.19,0,0,1-.29,1c-4.78,1.15-4.72,4.83-4.46,8.6a1.61,1.61,0,0,1-.3,1c-2.52.53-3.28,2.8-4.28,4.63-6.39,11.77-13.28,23.34-18.72,35.55-3.06,6.87-7.25,8.41-13.83,7.85-5-.43-6.7-2.93-5.79-7.54.77-3.88,2.07-7.68,2.59-11.58,1-7.58,3.42-15.07,1.89-22.84a10.92,10.92,0,0,0-10.85-8.41c-6,.07-10.72,3.66-11.94,8.37-2.58,9.94-4.74,20.06-10.7,28.75ZM312.9,667.79c4,.71,5.94-1.86,7.3-4.84q11.67-25.47,23.12-51c1.66-3.72,1.06-7.2-3-9q-22.27-10.12-44.62-20c-4.65-2.07-8-.68-10.14,4-4.7,10.52-9.52,21-14.28,31.47-2.87,6.34-5.82,12.65-8.51,19.07-1.39,3.34-2.89,7.12,3,8,0,2.68,2.36,3,4,3.74,5,2.38,10.08,4.76,15.22,6.87C294.33,659.84,303.09,665.05,312.9,667.79Zm-186.31,3c-2.06-.27-2.59.83-3.19,1.89a2.18,2.18,0,0,0,.61,3.14,24.07,24.07,0,0,0,3.67,2q23.26,10.68,46.57,21.32c9.17,4.16,18.39,8.21,27.6,12.3,1.86.83,3.69,1.69,5-1s-.58-3.59-2.41-4.41c-4.17-1.85-8.5-3.34-12.56-5.39-19.41-9.82-39.34-18.49-59.32-27C130.38,672.65,128.26,671.55,126.59,670.75Zm66.09,53.81c-.76-1.84-2.89-2.23-4.59-3q-33.39-15.24-66.86-30.35c-2-.92-4.25-2.82-6,.66-1.85,3.72,1.41,4,3.29,4.86,12.29,5.66,24.64,11.18,37,16.74,10.53,4.73,21.13,9.32,31.56,14.26C190.63,729.41,191.72,727.78,192.68,724.56ZM241,764.91c0-1.41-.82-1.74-1.79-2.18Q204.48,747,169.81,731.19c-2.78-1.27-5.44-1.19-6.7,1.56-1.46,3.17,2.1,3.3,3.72,4,12.2,5.57,24.52,10.9,36.77,16.38,10.53,4.71,21.06,9.41,31.49,14.34C238.61,769.18,240.3,768.33,241,764.91ZM133.06,656.6c-1.95-.23-1.83,1.26-2.32,2.27-1,2-.53,3.42,1.47,4.4,3.73,1.83,7.32,4.06,11.2,5.5,17.55,6.52,33.94,15.64,51.24,22.7,1.46.6,3.25,3.13,4.77-.33,1.2-2.73.14-3.88-2.2-5-7.71-3.71-15.07-8.29-23.05-11.22-13.26-4.87-25.7-11.46-38.56-17.14C134.7,657.38,133.8,656.94,133.06,656.6Zm104.69-72.86c1,.48,2.25.22,3-1.31a2.68,2.68,0,0,0-1.07-3.63,15.67,15.67,0,0,0-4-2.52c-11.2-3.48-21.09-9.86-31.87-14.28-7.16-2.93-14.15-6.28-21.22-9.44-1.51-.67-3.27-1.26-4.33.35s-.39,3.56,1.16,4.75a22.46,22.46,0,0,0,4.6,2.72c10.84,4.8,21.68,9.59,32.58,14.25C223.48,577.57,229.83,581.81,237.75,583.74Zm-29.16,90.47a2.89,2.89,0,0,0-3,1.89c-.64,1.84.43,2.91,1.87,3.9,5.75,4,12.57,5.72,18.69,8.86,12,6.12,24.84,10.26,36.57,16.88,2.43,1.38,5,.85,6.2-1.59,1.62-3.25-1.9-3.34-3.48-4.09-17.66-8.31-35.38-16.47-53.11-24.63A29.32,29.32,0,0,0,208.59,674.21Zm-13.18.8c2.17.34,2.8-1,3.3-2.29.94-2.47-1.1-3.11-2.67-3.84q-18.84-8.77-37.73-17.47c-5.78-2.65-11.64-5.12-17.42-7.76-2-.93-3.37-.6-4.35,1.46s-.51,3,1.7,4c18.47,8.26,36.87,16.67,55.3,25C194.26,674.51,195,674.82,195.41,675ZM146.5,628.1c-2.57-.42-3,1.34-3.65,2.72-1,2.24.92,2.71,2.28,3.33C158,640,170.8,645.74,183.62,651.58c1.91.87,3.35,1,4.4-1.16,1.28-2.62-.41-3.55-2.35-4.43q-14.37-6.51-28.71-13C153.35,631.29,149.75,629.61,146.5,628.1Zm83.68-70.49a7.47,7.47,0,0,0-3.87-3.34c-11.58-5.17-23.09-10.47-34.62-15.74-2.44-1.12-5.31-3.6-7.05.24s2.24,4.65,4.51,5.58c11.6,4.76,22.87,10.21,34,15.89a7,7,0,0,0,2.76,1C228.25,561.32,229.5,559.87,230.18,557.61Zm-.93,149.89c3.06.19,4.88,0,5.64-2a2.6,2.6,0,0,0-1.54-3.45c-8.09-3.69-16.18-7.37-24.33-10.93a2.92,2.92,0,0,0-4,1.55c-.76,1.43-.93,2.85.6,3.59C213.8,700.23,222,704.08,229.25,707.5ZM219,663.29a2.16,2.16,0,0,0-1.2-2.81c-7.21-3.35-14.43-6.68-21.68-9.92-2-.92-3.32.05-4.17,2s.4,3.1,1.82,3.76c6.85,3.17,13.77,6.18,20.64,9.32C217.47,667.07,218.23,664.9,219,663.29Zm0,78.8c2,.35,2.7-.83,3.33-2.14.71-1.49.52-2.76-1.06-3.47-7.42-3.34-14.84-6.68-22.3-9.92-2.14-.93-2.7.93-3.37,2.36s-.22,2.65,1.33,3.34c3.45,1.53,6.88,3.09,10.33,4.62C211.31,738.66,215.3,740.42,219.07,742.09Zm-42.22,14.27c.12,1.86,1.41,2.52,2.71,3a218.51,218.51,0,0,1,21.77,9.32c1.47.73,3.81,2.53,4.94-.53.92-2.48-.35-4.24-2.74-5.13-7.43-2.77-14.72-5.77-21.49-10C178.33,750.67,178,754.36,176.85,756.36Z" transform="translate(-1.67 -156.58)"/><path class="cls-2" d="M411.39,866.44c-.16-.35-.33-.71-.5-1.06-1.31-3.13-1.81-6.78-5.41-8.45a86.12,86.12,0,0,0-9.69-18.78,3.33,3.33,0,0,0-1.11-3.62c-.23-2.28-2.45-3.15-3.45-4.88-1.44-3.45-2.59-7.07-4.36-10.35-6.54-12.13-13.28-24.16-19.95-36.23a6.21,6.21,0,0,1,1.26-8.24c14.43-6.78,28.24-14.68,42-22.73a8.06,8.06,0,0,0,4.89-2.49c8.43-2.63,9-2.3,13.12,5.51,3.45,6.57,7.11,13,10.67,19.56l1,1.51h-.06L456,807.64c.87,2.32,1.83,4.57,4.21,5.79a.59.59,0,0,0,.1.77c3.15,9.44,8.87,17.57,13.32,26.35.65,1.25,1.3,2.5,1.94,3.75.25,1.54.5,3.09.74,4.64a9.65,9.65,0,0,1-4.67,4.38c-15.32,8.17-30.58,16.46-46,24.5-3.65,1.9-6.93,1.48-9.61-2.66C414.27,872.34,414.16,868.67,411.39,866.44ZM426,764.23c-1.68-7.28-3-8-9.62-4.58-12.28,6.41-24.44,13.06-36.69,19.53-6.65,3.5-6.77,4-1.34,10-.62,2.46,1.11,4.18,2.08,6,8.23,15.65,16.5,31.28,24.95,46.81,1.33,2.44,1.36,5.88,4.65,7.08,0,3.59,2.39,6.22,3.7,9.28,1,2.34,2.46,2.52,4.75,1.45,14.71-6.85,28.69-15,43-22.74,2.15-1.16,2.94-2.47,1.56-4.72-1.72-2.82-2.28-6.45-5.69-8.08-1.78-8.7-7.14-15.69-11.17-23.31-1.21-2.74-1.49-6.12-5.09-7.16l-.67.78c2.44-1,1.24-1.82-.15-2.62C437.48,781.71,431.93,772.86,426,764.23Z" transform="translate(-1.67 -156.58)"/><path class="cls-10" d="M267.43,919.63c-1.1-2.33-.78-4.78-.63-7.22C271,914.35,271.21,916.55,267.43,919.63Z" transform="translate(-1.67 -156.58)"/><path class="cls-10" d="M113.08,642.94a2.51,2.51,0,0,1-1.2,2.39C110.05,643.42,111.53,643.16,113.08,642.94Z" transform="translate(-1.67 -156.58)"/><path class="cls-2" d="M1910.45,215.26c-3.64,7-2.75,14.37-2.19,21.76a60.25,60.25,0,0,0-5.77,23.66c-1.37,2.53-3.18,3.45-6.2,2.54-6.42-1.92-13-3.51-19.44-5.2-1.79-.47-4-1.27-2.54,2.14-2.82,2-4.1,4.53-2.92,8-1.06,3.25,1.63,3,3.34,3.4,6.14,1.46,12.32,2.75,18.47,4.21,2.27.54,5,.93,3.54,4.51-1.54,8.26-5.28,16.07-5,24.7-2.35,4.79-7.35,8.4-6.56,14.6l-1.05,1.91c-3.73,1.67-6.51-.67-9.48-2.23a3.81,3.81,0,0,1-.62-.76c.78-2.4-.32-3.27-2.6-3.16-.6-.75-1.21-1.49-1.82-2.23.19-.68.28-1.3-.78-1.08l-1.75-2.12c.23-4.54-2.49-6.65-6.41-7.76l-.63-.82c.21-.77.31-1.46-.87-1.3l-1.74-1.95c-.6-4.05-2.83-6.22-7.05-6.06l-4.63.46c-.33-.29-.86-.89-1-.82-.91.58-.81,1.45-.49,2.33l-1.59,2.54c-1.34,0-.9.64-.53,1.3l-.41,3c-3.17,4.24-6.57-1.75-9.79.22l-.87-.64.09-.4,0,.39-4.77.09c-2.84-1.78-3.56-.48-3.28,2.27-2.47,5-.34,8.15,3.85,10.85s8.41,5.2,10.62,11.16c-4.9-1.67-7.62-4.58-10.76-6.82-6.55-4.68-9.52-3.63-11.79,4.14l-6-.12a28.25,28.25,0,0,0-9.58-1.14,11.71,11.71,0,0,0-6-.7l-3.58-.42-3.7-.48c1.64-6.69,3.21-13.4,4.94-20.07,3.81-14.66,6.46-29.62,11.16-44.06,4.68.93,9.37,1.79,14,2.83,2.26.51,4.09.84,3.65-2.45,2.44-2.47,2.82-5.74,3.45-8.91-.29-3-2.83-3-4.83-3.48-4.4-1.13-8.85-2.08-13.28-3.09.83-3,1.69-6.06,2.47-9.11,4.73-18.29,8.44-36.83,13.93-54.93,7.76,2,15,5.3,22.44,8.23-1.83,9.33,0,11,9.48,8.84,3.45-.78,6.84-2,10.48-1.6l1.5,1.11c-1.25,2.89-4.17,2.72-6.54,3.46-4,1.23-8.08,2.16-12,3.45-3.71,1.2-4.49,4.21-4,7.67.56,3.69,3,4.77,6.48,4.58,6.25-.34,11.82-2.82,17.48-5.13,2.57-1.05,5.24-1.85,7.87-2.76.12.69.25,1.37.37,2.06-2.84,3.27-7,4.24-10.66,6.17-2.34,1.24-4.37,2.65-5.45,5.2a7.71,7.71,0,0,0,1.21,8.37c2.15,2.61,4.93,2.1,7.61.75q14.64-7.37,29.26-14.77c1.42-.71,2.81-1.52,4.25-2.18C1908,206.42,1910.62,208.12,1910.45,215.26Zm-60.91,52.83c1.42.44,2.79,0,3.26-2.38s-1-2.72-2.62-3.13c-4.82-1.19-9.65-2.36-14.47-3.6-1.73-.45-3.17-.5-3.74,1.61s.19,3.36,2.41,3.87C1839.23,265.55,1844.05,266.76,1849.54,268.09Zm-10.88-22c-1.91-.77-3-.07-3.56,1.84-.75,2.47.61,3.1,2.63,3.56,4.65,1.05,9.26,2.26,13.9,3.37,1.68.4,3.53,1.31,4.13-1.56.49-2.33-.58-3.23-2.63-3.71C1848.29,248.47,1843.48,247.26,1838.66,246.1Zm29.08,8.4c0-2.32.1-4-2.12-4.29s-2.67,1.22-3.07,2.82c-1.27,5-2.48,10-3.81,15-.46,1.73.16,2.79,1.69,3.23s3.22.32,3.73-1.79C1865.41,264.29,1866.65,259.07,1867.74,254.5Z" transform="translate(-1.67 -156.58)"/><path class="cls-5" d="M1802.25,255.12c-4.7,14.44-7.35,29.4-11.16,44.06-1.73,6.67-3.3,13.38-4.95,20.07l-1,2.13c-4.34-.66-9.16-.62-6.46-7.64,1-2.48-2.15-2.24-3.68-2.67-10.57-3-10.59-3-8-13.66,3.09-12.78,6.42-25.51,9.21-38.35.9-4.11,2.34-5.41,6.29-3.92,1.85.69,3.93.79,5.77,1.51,3.26,1.29,4.72.29,5.32-3.11.32-1.85,0-4.66,3.69-4C1800.68,250.13,1803,251.16,1802.25,255.12Z" transform="translate(-1.67 -156.58)"/><path class="cls-5" d="M1821.67,176c-5.49,18.1-9.2,36.64-13.93,54.93-.78,3.05-1.64,6.07-2.47,9.11-3.83.34-8.36,1.89-7.28-5.1.4-2.6-2.35-2.21-3.86-2.63-10.51-2.92-10.54-2.89-7.94-13.67,3.13-13,6.47-25.91,9.38-38.93.83-3.7,2.26-4.73,5.66-3.39.92.36,2,.42,2.88.79,5.36,2.18,9.11,1.57,9.49-5.26.08-1.39.36-3.06,2.14-3.1a5.49,5.49,0,0,1,4.7,2.12C1821.69,172.44,1820.86,174.38,1821.67,176Z" transform="translate(-1.67 -156.58)"/><path class="cls-5" d="M1823.38,246.59c-.63,3.17-1,6.44-3.45,8.91C1817.16,251.45,1818.45,248.11,1823.38,246.59Z" transform="translate(-1.67 -156.58)"/><path class="cls-7" d="M192.21,907.82l-.15,4.6c-2.83-.37-2.53-2.49-2.16-4.32S191.28,906.66,192.21,907.82Z" transform="translate(-1.67 -156.58)"/><path class="cls-12" d="M1865.57,192.56l-1.5-1.11c3.85-3.78,8.84-3.69,13.67-4.23C1874.53,191.09,1870.34,192.52,1865.57,192.56Z" transform="translate(-1.67 -156.58)"/><path class="cls-11" d="M1875.21,205.89c-.12-.69-.25-1.37-.37-2.06,2.56-2.24,5.74-2.91,8.91-3.74A11,11,0,0,1,1875.21,205.89Z" transform="translate(-1.67 -156.58)"/><path class="cls-1" d="M1841.76,300.85c.14-1,.27-2,.4-3,.18-.42.36-.86.54-1.3l1.58-2.53,1.46-1.52,4.62-.46,7.06,6.06,1.74,1.94.87,1.31.63.81a31.5,31.5,0,0,0,6.41,7.77l1.75,2.12.78,1.08,1.82,2.22a6.06,6.06,0,0,0,2.6,3.17,3.49,3.49,0,0,0,.62.75,22.94,22.94,0,0,0,2.5,4c1.45,1.51,1.88,4.92,4.35,4.31s2.4-3.73,2.63-6.08l1.05-1.91c5-1.24,7.17,1.53,8.76,5.74,3.07,8.14,4.37,17,9.76,24.22,1.31,1.75.32,3.51-.23,5.12-3.16,9.2-6.43,18.38-9.7,27.55-1.21,3.39-2.84,5.74-7,3.24-9.74-5.89-20.45-9.81-31-13.83-13.15-5-19-16.65-26.94-26.54-.76-.95-1.22-2.42-.44-3.36,4.49-5.47-.13-8.22-3.35-11.21s-6.69-5.6-10-8.38c2.27-7.77,5.24-8.82,11.79-4.14,3.14,2.24,5.86,5.15,10.76,6.82-2.21-6-6.53-8.52-10.62-11.16s-6.32-5.9-3.86-10.85l3.29-2.27,4.77-.09h-.06l.87.63c10.84,6.93,18.22,17.57,27.47,26.53.81-1.74-.15-2.38-.58-3.21C1854.43,315.61,1846.88,309.12,1841.76,300.85Z" transform="translate(-1.67 -156.58)"/><path class="cls-7" d="M15.41,402.44c-.4,1.64-1.27,2.89-3.14,2.77-1.61-.1-2.35-1.31-2.37-2.81,0-1.91,1.08-2.85,3-2.68A2.68,2.68,0,0,1,15.41,402.44Z" transform="translate(-1.67 -156.58)"/><path class="cls-7" d="M1914.13,395.7c-.27,1.5-1.08,2.59-2.66,2.55s-2.68-.91-2.36-2.59c.24-1.3.8-2.76,2.54-2.67C1913.24,393.08,1914,394.19,1914.13,395.7Z" transform="translate(-1.67 -156.58)"/><path class="cls-5" d="M1871.39,268.14c-1.18-3.45.1-6,2.92-8C1875.74,263.7,1876.31,266.92,1871.39,268.14Z" transform="translate(-1.67 -156.58)"/><path class="cls-4" d="M1071.25,647.48q20.93,32.4,41.85,64.79c1.4,2.16,2.79,4.19,2.8,7,0,2.61.94,5.1,3.83,6.12,1.14,1,2.26,2.07,3.39,3.11-.13,1.62,1.19,2.41,2,3.5,5.81,7.82,5.16,11.25-2.44,17.19-5.61,4.4-12.7,6.58-17.6,12-4.54.14-8.65.87-9.11,6.62-4.73.48-8.34,3.45-12.09,5.85-13.2,8.44-26.33,17-39.27,25.81-4.1,2.8-6.11,2.12-8.68-1.9-6.37-10-11.72-20.65-19.83-30.18-3.67,5.22-6.51,11-13.29,12.13l-6.49.23a33.14,33.14,0,0,0-3-2c-7.37-3.93-12.15-9.74-11.94-18.36.19-8.45,5.79-12.71,13.32-14.7,4.89-1.29,4.62-3.76,2.18-7.08-5-6.88-10-13.84-15.18-20.6-8.59-11.19-8.73-11.25,3-18.81,12.33-8,24.82-15.68,37.23-23.5,1-.62,2.36-1,2.3-2.47s-1.5-1.89-2.6-2c-5.09-.31-7.88-4.28-11.46-7,0-2.95.46-5.94.41-8.79-.12-6.83,5.94-10,8.06-15.31a16.77,16.77,0,0,0,8.2-2.3l4.8.06c1.66,1.86,4.43,1.12,6.28,3.06,3.66,3.84,6.69,7.67,7.07,13.34.44,6.46,1.36,6.86,7.19,3.75,5.62-3,11.07-6.3,16.6-9.47ZM1065.61,732a11.13,11.13,0,0,0,1.3-11.13c-2.36-6.21-3.74-13-9.72-17.24-2.36-1.69-2.6-4.64-2.89-7.53-.56-5.73-4.93-7.79-9.58-4.58s-9,6.46-13.28,10c-4,3.37-4.58,7.89-2.2,12.4,1.86,3.54,3.67,6.86,3.92,11.07.21,3.52,2.54,7,6,7.36,3.82.38,6,2.84,8.9,4.38,4.2,2.25,5.28,5,1.49,8.88-5.25,5.38-5.51,12.17-4.16,19,1.12,5.63,2.81,6.18,7.6,3q18-12.12,35.94-24.38c2.8-1.93,7.69-3.38,6.88-7.08-.88-4-5.24-6.14-9.51-7.32a42.15,42.15,0,0,0-5.85-.87C1075,727.19,1070.86,730.84,1065.61,732Z" transform="translate(-1.67 -156.58)"/><path class="cls-3" d="M996.32,779.75l6.49-.23c7.16,7.75,14.22,15.61,21.55,23.22,2.72,2.83,3.25,4.67.07,7.7-25,23.85-49.72,47.89-74.6,71.8-5,4.84-9.43,4.93-14.08.15Q900.31,845.9,865,809.24a10.7,10.7,0,0,1-1.25-2,11.18,11.18,0,0,1,4.77-4.39c2.65-1.47,2.92-6.15,6.15-6s4.15,4.35,6.48,6.46c7.52,6.82,17.33,6.6,23.81-.89,9-10.38,6.64-21.74-1-26.09-6.73-3.84-4.06-6.25-1-9.83,1-1.22,2.16-2.35,3.29-3.47,10.71-10.75,21.38-21.52,32.16-32.18,2.25-2.22,4-4.44,3.53-7.77l2.29,1.17c9.51,8.71,19,17.45,28.56,26.11,5.68,5.15,5.74,5.1-1.19,8.87s-10.57,10.81-9.08,17.22c1.88,8.07,10.2,15,18.48,15.35C988.91,792.16,993.61,788.46,996.32,779.75ZM948.53,834.9c.19-1.66.39-3.32.58-5,2.51-4.28,5.28-8.44,7.46-12.88,3.71-7.56,2-15.22-4-19.88s-15.3-4.67-21.19-.22-7.63,12.71-4.11,19.95c2.16,4.46,4.88,8.65,7.35,13,.18,1.64-.49,3.48,1.19,4.74-.57,4.48,2.7,6.7,5.89,6.33C944.38,840.61,949.34,840.27,948.53,834.9Zm14.69-14.77c1.45,3.89,3.4,5.82,7.3,7.07C969.13,823.31,967.15,821.43,963.22,820.13Z" transform="translate(-1.67 -156.58)"/><path class="cls-13" d="M941.94,723.09c.45,3.33-1.28,5.55-3.53,7.77C927.63,741.52,917,752.29,906.25,763c-1.13,1.12-2.27,2.25-3.29,3.47-3,3.58-5.68,6,1,9.83,7.62,4.35,10,15.71,1,26.09-6.48,7.49-16.29,7.71-23.81.89-2.33-2.11-3.2-6.3-6.48-6.46s-3.5,4.52-6.15,6a11.18,11.18,0,0,0-4.77,4.39C845.71,789.45,828,771.3,811,752.47c-3.43-6.7-.76-12.92,1.47-19.18.73-2,1.8-4.07,2-6.18.87-8.56,1.84-14.35-9.32-14.83-3.06-.13-4.38-1.7-1.51-4.57,2.14-2.15,5-4,5.06-7.59l1-1,1.41-1.21-.05,0c3.77.54,5.22-1.23,4.84-4.83l1.1-1.07c5.73-.62,8.85-3.94,9.78-9.5h0c1,0,2-.23,2.2-1.45v0l1.17-1.2,0-.14c3.86.18,5-2.21,5.13-5.49l.09-.09c1.88,0,3.6-.28,3.24-2.86l1.65-2c1.87.05,3.44-.27,3.19-2.72,5.32-8.56,14.61-13.24,20.59-21.16h0l1.23-.23c6.66,5.18,11.2,12.35,17.17,18.19,5.21,5.08,5,5.63-1.34,9.37-7.51,4.47-11.45,12.25-9.51,18.83,2.49,8.48,11.28,14.3,20.81,13.78,7.76-.43,11.95-5.1,13.76-15.29,0-.22.56-.36,1.2-.74,9.49,10,20.71,18.34,29.58,29.12l-.42.38.68.68-.11,0,1.26,1.26,0-.12c.24.88.58,1.11,1.1.17A3.76,3.76,0,0,1,941.94,723.09Zm-77.94,12c4.5,1.57,1.87,4.26.86,6.47-1.26,2.76-2,4.9,2.16,5.56a5.93,5.93,0,0,1,5.17,5.11c.64,4,2.65,4,5.42,2.27s5.42-2.27,8.18.13c3.16,2.75,5,1.55,5.55-2.23.35-2.39,1.44-4.52,3.67-5,4.87-1,6.21-2.75,2.82-7.1-2.94-3.78,3.21-7,1.44-10.33-1.59-3-7.45-1.75-7.93-6.89-.41-4.29-2.89-4.11-5.85-2.14-2.59,1.72-5.17,1.84-7.74-.11-3.28-2.48-4.75-1.39-5.67,2.42-1,4-3.73,6-8.09,4.71-.22-1.69.48-4-2-4.45-3.71-.71-5.31-2.87-5.9-6.47a2.23,2.23,0,0,0-3.72-1.44c-3.9,3.48-7.24.07-10.86-.12-4.09-.23-2.11,7.74-7.46,7.84a1.37,1.37,0,0,0-.58.12c-1.33.73-1.8,15.9-.53,16.68a1.49,1.49,0,0,0,.56.22c3.49.42,5.13,2.41,5.62,5.88a2.19,2.19,0,0,0,3.67,1.47c3.64-3,6.57-1,10.33,0,4.82,1.26,2.29-7.32,7.4-7.52C863.85,740.09,864.16,737.71,864,735.13Z" transform="translate(-1.67 -156.58)"/><path class="cls-1" d="M1096,767.81c.46-5.75,4.57-6.48,9.1-6.62,6.52-.15,10.5,3.81,14.14,8.53,2.89,3.73,5.38,7.81,9.5,10.5,7.76,5.07,12.83,3,15.66-5.67,4.8-14.67-7.22-38.13-21.25-46-1.13-1-2.25-2.08-3.39-3.11a11.94,11.94,0,0,0-1-2.7c-1.47-2.22-1.82-4.63-.25-6.68s4-2.77,6.94-2.19c12,2.37,19.87,10.45,26.58,19.71,3.93,5.42,6.73,11.64,10.34,18a9.6,9.6,0,0,0-.11-8.58c-1-2.19-2-4.32-3.12-6.46-2.12-4.24-2.36-8.21,2.41-10.71,4.34-2.28,9.63-.14,12,4.22,3.48,6.51,5.15,13.66,7.56,20.66,1.92-1.44,1-3.15.62-4.83-.71-3.3-1.78-6.52-1.67-10a6.72,6.72,0,0,1,5.49-6.86c3.37-.85,5.68.76,7.21,3.84,2.8,5.64,3.8,11.65,4,18,1.92-2.29,1.11-5,1.18-7.45.09-3.49,1.53-5.67,5.12-6.17,3.8-.53,6.24.94,6.77,4.86,1.1,8.06,2.77,16,3.1,24.21.28,6.74.81,13.48,1.22,20.22a2.84,2.84,0,0,0,1.36,2.49,7.94,7.94,0,0,0,.13,4.82q-.12,9-.23,18l-4,1.78c-2.81.31-5.65.56-7.54,3.11l-4.76,2-.23-.13,0,.32-3.14,1.6c-2.13-.16-4,.25-5.27,2.2l-1.84.7c-1.56-.7-2.08.28-2.44,1.5l-2.35.64c-1.53-.47-2.1.56-2.6,1.69-.79.08-1.79-.12-2.35.29-7.5,5.45-13.47,1.69-19.73-2.74-14.45-10.19-30.39-18.14-44.23-29.27a33.94,33.94,0,0,1-9.05-10.91C1102.85,778.82,1100,773,1096,767.81Z" transform="translate(-1.67 -156.58)"/><path class="cls-1" d="M804.33,747.09c-4.21,7.89-12.72,11.21-18.51,17.41-7.4,7.94-15.86,8.74-25.93,5.5-9-2.91-18.55-4.42-27.89-6.37-4.43-.92-5.39-3.46-4-7.34,5.57-16,10-32.35,17.52-47.59,2.64-5.35,4.91-10.89,7.08-16.45a11.26,11.26,0,0,1,8.59-7.47c13.65-3,25.7-9.28,36.76-17.68a20.73,20.73,0,0,1,5.26-2.74c5.55-2.08,9.13.54,7.59,6.1-1.11,4.06.3,4.89,3.61,5.4,3.62.56,6.5,2.86,9.71,4.42.33,1,.67,1.93,1,2.89a11.18,11.18,0,0,0-4.15,3.9c-12.12,4.34-24.46,7.91-36.88,11.27a8.08,8.08,0,0,0-5.56,5.8c-1.74,5.88-3.49,11.79-3.15,18.06.24,4.35,8.83,11.22,13.08,10.26.86-.19,1-1.13.85-2,2.43,0,3.19-2.14,4.31-3.66,1.52-2.06,2.81-4.29,4.22-6.43,2.48-3.77,5.71-4.89,10.16-3.51,4.81,1.49,4,5.37,3.23,8.26C809.33,732.57,806.68,739.79,804.33,747.09Z" transform="translate(-1.67 -156.58)"/><path class="cls-3" d="M764.61,922c-10.18,0-20.36-.07-30.54,0-3.48,0-5.22-1.29-3.56-4.63,3.2-6.45,3.78-13.68,3.71-20.31-.09-9,3.4-16.93,4.43-25.5,2.21-18.38,5.31-36.66,8-55,2.12-14.48,5.3-28.82,6.17-43.48,8.4,1.59,16.77,3.34,25.2,4.68,4,.63,3.38,3.09,3.09,5.67q-3.57,31.11-7.16,62.22-4.12,35.85-8.26,71.69A41.93,41.93,0,0,1,764.61,922Z" transform="translate(-1.67 -156.58)"/><path class="cls-6" d="M804.33,747.09c2.35-7.3,5-14.52,6.88-21.94.74-2.89,1.58-6.77-3.23-8.26-4.45-1.38-7.68-.26-10.16,3.51-1.41,2.14-2.7,4.37-4.22,6.43-1.12,1.52-1.88,3.61-4.3,3.66-3.42-3.52-4.08-7.65-.73-11.16,6.42-6.71,12.56-13.76,20.19-19.21,0,3.61-2.92,5.44-5.06,7.59-2.87,2.87-1.55,4.44,1.51,4.57,11.16.48,10.19,6.27,9.32,14.83-.22,2.11-1.29,4.14-2,6.18-2.23,6.26-4.9,12.48-1.47,19.18Z" transform="translate(-1.67 -156.58)"/><path class="cls-7" d="M1198.83,818.93l0-.32.23.13Z" transform="translate(-1.67 -156.58)"/><path class="cls-7" d="M722.47,783a2.64,2.64,0,0,1,2.58,2.69,2.5,2.5,0,0,1-2.54,2.71c-1.73,0-3-1-2.85-2.95A2.66,2.66,0,0,1,722.47,783Z" transform="translate(-1.67 -156.58)"/><path class="cls-7" d="M725.13,777.9a2.68,2.68,0,0,1-2.59-2.61,2.44,2.44,0,0,1,2.81-2.84,2.4,2.4,0,0,1,2.31,2.78A2.65,2.65,0,0,1,725.13,777.9Z" transform="translate(-1.67 -156.58)"/><path class="cls-2" d="M1699.1,750.17c5.41-2.65,10.69-2.56,15.84.7,2.41,1.52,3.52,2.93.64,5.3q-14,11.49-27.84,23.27c-2.41,2-3.69,1.38-4.84-1.23-2.9-6.6-1.39-12.36,3.15-17.61,1.84-.73,3.16.48,4.72,1.1,2.88,1.17,1.79-1.09,1.8-2.35a6.87,6.87,0,0,0,.69-.74c.9-.19,3.21.9,2.41-.88C1693.74,753.48,1697,752.22,1699.1,750.17Z" transform="translate(-1.67 -156.58)"/><path class="cls-6" d="M1679.62,514.32a27.66,27.66,0,0,1-2,2.13c-5.33,4.51-10.72,8.94-16,13.51-2.06,1.8-3.64,1.95-5.47-.3-4.15-5.1-8.46-10.07-12.67-15.12-1.51-1.81-2.52-3.42.09-5.45,5.35-4.16,10.51-8.56,15.66-13,2.23-1.91,4-2.13,6,.36,4.25,5.28,8.68,10.42,13,15.63A22.41,22.41,0,0,1,1679.62,514.32Zm-6.14-1.23c-1.66-2.1-3.44-4.48-5.35-6.76-6.18-7.36-6.2-7.35-13.45-1.08-7.73,6.66-7.73,6.66-1.44,14.45,5.72,7.08,5.72,7.09,12.55,1.58,2-1.62,4-3.27,6-5C1672.61,515.56,1673.77,514.91,1673.48,513.09Z" transform="translate(-1.67 -156.58)"/><path class="cls-6" d="M1699.89,537.34a27.73,27.73,0,0,0,1.94,3c4.33,5.2,8.61,10.45,13.12,15.49,2,2.19,1,3.34-.74,4.81-5.37,4.44-10.71,8.93-16,13.52-1.87,1.63-3.2,1.89-4.9-.25-4.22-5.29-8.51-10.53-12.95-15.64-1.82-2.08-2-3.53.22-5.38,5.54-4.54,11-9.22,16.46-13.82A30.05,30.05,0,0,1,1699.89,537.34Zm-1.83,6.39c-1.14.84-2.45,1.74-3.69,2.72-12.11,9.58-12,9.88-1.2,21.13,2.39,2.48,3.76,2.29,6.32.27,12.59-9.94,12.75-11.06,1.68-22.29C1700.34,544.72,1699.65,543.67,1698.06,543.73Z" transform="translate(-1.67 -156.58)"/><path class="cls-6" d="M1789,646.4a3.87,3.87,0,0,1,3.06,1.8c4.36,5.17,8.63,10.42,13.07,15.52,1.73,2,1.51,3.36-.45,4.94-5.28,4.23-10.6,8.41-15.67,12.88-2.34,2.08-3.76,2.11-5.73-.37-4.21-5.29-8.65-10.4-13-15.56-1.14-1.34-2-2.6-.25-4q8.74-7.22,17.52-14.4A7.5,7.5,0,0,1,1789,646.4Zm-.46,4.82c-1.71,1.48-3.47,3-5.27,4.55-9.26,7.78-9.26,7.78-1.9,17,4.82,6,4.82,6,10.87.9,9.12-7.73,9.1-7.72,1.61-17.11C1792.36,654.7,1791.08,652.69,1788.52,651.22Z" transform="translate(-1.67 -156.58)"/><path class="cls-6" d="M1742,589c.93.89,1.84,1.61,2.58,2.48,4.25,5,8.37,10.12,12.73,15,1.8,2,2.27,3.25-.17,5.19-5.61,4.45-11,9.16-16.43,13.84-1.69,1.45-2.89,1.58-4.42-.31-4.27-5.24-8.74-10.32-13.06-15.52-1.49-1.78-2.44-3.66,0-5.63,5.39-4.41,10.68-8.93,16-13.37A23,23,0,0,1,1742,589Zm-8.53,23.82a.42.42,0,0,1,.17.65c1.75,8,4.7,9.08,10.53,4,1-.9,2.17-1.71,3.25-2.56,7.3-5.7,7.33-6,1.29-12.66l-5.5-6.09c-1-3.38-2-1.48-3,0-3.91,1.27-6.59,4.28-9.47,6.92-1.46,1.33-4.92,2-3.64,4.57C1728.25,610,1729.67,613.22,1733.46,612.84Z" transform="translate(-1.67 -156.58)"/><path class="cls-6" d="M1569.49,599.87c4.2-1.47,8.39-2.54,12.65-.17,2.83,1.57,4,3.06.77,5.67-7,5.62-13.85,11.36-20.56,17.28-2.89,2.56-3.89,1.4-5-1.48-2.17-5.86-.67-9.38,5-11.45,0,0,.42-.27.42-.27,1.54,3,4.37,3,6.54,1.72,2.42-1.43,2-3.94.11-6l-1.16-3.71,1.16-1.63Z" transform="translate(-1.67 -156.58)"/><path class="cls-1" d="M1550.31,606l-2.55-2.7-.72-1c-.16-.46-.32-.92-.49-1.37a14.74,14.74,0,0,0-2.3-8.22l-.06-5a2,2,0,0,0,1.11-2.37c.21-.39.41-.78.61-1.17l.8-.88,2.23-1.7c3.2-.51,5.92-3.12,9.45-2.11l1.45,1.39c-.76,1.57,2,4.69-2.06,4.81-3.31.11-5.42,2.15-5.71,5a6.5,6.5,0,0,0,4.4,6.52c5.42,2.13,5.83,5.21,2.26,9.37l-3.29.9-1.88,0-2.18-.59Z" transform="translate(-1.67 -156.58)"/><path class="cls-4" d="M1558.73,606.61c3.57-4.16,3.16-7.24-2.26-9.37a6.5,6.5,0,0,1-4.4-6.52c.29-2.85,2.4-4.89,5.71-5,4.06-.12,1.3-3.24,2.06-4.81,2.81,6.53,9.16,11.26,9.65,19l0,0c-1.18,0-2.44-.11-1.16,1.63l1.16,3.71c-1.31,2.84-4.62,2.55-6.65,4.27,0,0-.44.27-.42.27C1561.32,608.56,1560.61,606.89,1558.73,606.61Z" transform="translate(-1.67 -156.58)"/><path class="cls-4" d="M1604.21,638.19,1589,650.47c-.56-3.59-4.41-4.33-6-7-.75-1.23-3.61-1.89-1.31-4.12a12.57,12.57,0,0,0,10.2,4.21c-.61-3.58-4.45-5.67-2.44-9.71,1.61-3.25,5.36-3.67,7.41-6.21-2.95-2.87-6.06-1.77-9.08-1.31,1.24-2.68,3.53-3.85,6.17-3s5.45,1.57,5.41,5.73C1599.34,632.59,1605.66,633.44,1604.21,638.19Z" transform="translate(-1.67 -156.58)"/><path class="cls-6" d="M1624.33,528.52c.05,1.79-1.26,2.56-2.29,3.42q-18.29,15.27-36.65,30.46c-1.2,1-2.61,2.39-4.12.76s0-2.78,1.23-3.82c12.21-10.16,24.38-20.38,36.66-30.46C1620.53,527.76,1622.48,525.24,1624.33,528.52Z" transform="translate(-1.67 -156.58)"/><path class="cls-6" d="M1596.14,579.07c-1.36.34-2.11-.15-2.32-.89a2.69,2.69,0,0,1,.3-2.15,28.49,28.49,0,0,1,3.49-3.27q17-14.12,34.06-28.2c1.44-1.18,3-3.6,4.92-1.24s-1.08,3-2.17,4c-11.68,9.94-23.47,19.75-35.25,29.58C1598.11,577.75,1596.93,578.5,1596.14,579.07Z" transform="translate(-1.67 -156.58)"/><path class="cls-6" d="M1619.51,607.88c-.56-.43-1.41-.76-1.68-1.35-.79-1.72.75-2.5,1.74-3.34q8.85-7.58,17.77-15c6.58-5.48,13.21-10.88,19.81-16.31,1.11-.91,2.23-2,3.54-.4,1.18,1.42.46,2.61-.72,3.58q-19.34,15.94-38.69,31.84A11.89,11.89,0,0,1,1619.51,607.88Z" transform="translate(-1.67 -156.58)"/><path class="cls-6" d="M1764.22,695.81c.17,1.6-1.06,2.11-2,2.85l-37.21,30.89c-1.22,1-2.45,2.49-4,.6-1.2-1.47-.18-2.45,1-3.43q19.11-15.76,38.16-31.62C1762.14,693.52,1763.32,693.56,1764.22,695.81Z" transform="translate(-1.67 -156.58)"/><path class="cls-6" d="M1632.08,623c-.56-.65-1.32-1.15-1.45-1.78-.31-1.65,1.12-2.44,2.14-3.28,7.48-6.22,15-12.37,22.51-18.56,4.74-3.91,9.45-7.86,14.22-11.74,1-.85,2.35-2,3.6-.42s0,2.62-1.07,3.5q-18.55,15.38-37.18,30.69A20,20,0,0,1,1632.08,623Z" transform="translate(-1.67 -156.58)"/><path class="cls-6" d="M1712,713.58l.24-6.14c2.17.58,3.24-1.14,4.57-2.23,9.68-8,19.3-16,29-23.87,1.33-1.08,2.88-3.89,4.89-1.75s-.78,3.49-2.11,4.6q-17.16,14.37-34.49,28.53A7.74,7.74,0,0,1,1712,713.58Z" transform="translate(-1.67 -156.58)"/><path class="cls-11" d="M1587.79,626.35c3-.46,6.13-1.56,9.08,1.31-2,2.54-5.8,3-7.41,6.21-2,4,1.83,6.13,2.44,9.71a12.57,12.57,0,0,1-10.2-4.21c-.14-.81-.28-1.61-.43-2.42,2.14-3.12,2.35-7.29,5.41-9.92Z" transform="translate(-1.67 -156.58)"/><path class="cls-6" d="M1684.5,642.88a6.78,6.78,0,0,1-3.65-3.3c5.47-6.33,12.69-10.67,18.74-16.33,1.12-1,2.7-2.3,4.07-.45s-.51,2.89-1.61,3.84c-5.12,4.38-10.31,8.68-15.5,13C1685.47,640.49,1684.21,641.17,1684.5,642.88Z" transform="translate(-1.67 -156.58)"/><path class="cls-6" d="M1691.54,649l-4.93-4.51c7.23-2.77,11.82-9.06,17.88-13.39,1.47-1,2.82-3.7,4.86-1.35s-.81,3.36-2.13,4.48c-4.06,3.48-8.22,6.84-12.38,10.2C1693.32,645.67,1691.42,646.59,1691.54,649Z" transform="translate(-1.67 -156.58)"/><path class="cls-4" d="M1692.57,759.35c0,1.26,1.08,3.52-1.8,2.35-1.56-.62-2.88-1.83-4.72-1.1a2.62,2.62,0,0,0-2.8-2.75l14.06-13.39c1.69,1.56-.22,4.25,1.79,5.71-2.11,2.05-5.36,3.31-3.43,7.56.8,1.78-1.51.69-2.41.88-.29-.15-.69-.51-.84-.42C1691.72,758.61,1692.18,759,1692.57,759.35Z" transform="translate(-1.67 -156.58)"/><path class="cls-6" d="M1697.78,654.92a3.87,3.87,0,0,1-2.56-2.21c5.54-4.54,11.06-9.12,16.64-13.61,1.1-.88,2.16-2.9,3.94-1.06s0,2.86-1.15,3.84C1709.24,646.5,1704.17,651.56,1697.78,654.92Z" transform="translate(-1.67 -156.58)"/><path class="cls-6" d="M1601.24,586.54c-1.92-.79-2.44-2.18-.86-3.56,4.31-3.75,8.77-7.32,13.2-10.92a1.92,1.92,0,0,1,2.5,2.9c-4.53,3.77-9.12,7.49-13.7,11.2A3.55,3.55,0,0,1,1601.24,586.54Z" transform="translate(-1.67 -156.58)"/><path class="cls-6" d="M1728.37,738.39c-.44-.4-1.26-.81-1.45-1.42a2.36,2.36,0,0,1,.48-2.08q6.55-5.57,13.29-10.93a1.72,1.72,0,0,1,2.6.4,1.75,1.75,0,0,1-.19,2.63q-6.63,5.49-13.34,10.89A5.67,5.67,0,0,1,1728.37,738.39Z" transform="translate(-1.67 -156.58)"/><path class="cls-6" d="M1643.88,628.35l-7.58-.15c3.77-4.58,8.59-8,13.12-11.71.94-.76,2-1.54,3.09-.39,1.36,1.39.33,2.41-.59,3.52C1649.38,622.67,1644.5,623.55,1643.88,628.35Z" transform="translate(-1.67 -156.58)"/><path class="cls-6" d="M1635.41,605.78c-.05,2.08-8.75,9.45-10.5,8.89-1.34-.42-2.93-1.42-1.32-3a88.05,88.05,0,0,1,9.09-7.61C1634.19,603,1635.2,604.27,1635.41,605.78Z" transform="translate(-1.67 -156.58)"/><path class="cls-6" d="M1630.27,535.67c-.2,1.92-9.43,9.81-10.64,9.47-1.52-.41-2.75-1.85-1.57-3a73.68,73.68,0,0,1,9.49-7.87C1629,533.25,1629.88,534.8,1630.27,535.67Z" transform="translate(-1.67 -156.58)"/><path class="cls-6" d="M1640.78,601.91c-1.86-.6-2.56-2.06-1.13-3.5a80.74,80.74,0,0,1,8.18-6.93c1.76-1.34,3.06-.64,3.15,1.58C1651,594.68,1642.56,602,1640.78,601.91Z" transform="translate(-1.67 -156.58)"/><path class="cls-6" d="M1741.77,700.84c-.15,1.46-9.18,9-10.38,8.78-2-.34-3-1.73-1.43-3.27a70.56,70.56,0,0,1,8.61-7.19C1740.58,697.73,1741.19,699.67,1741.77,700.84Z" transform="translate(-1.67 -156.58)"/><path class="cls-6" d="M1587.91,570.87c-.27-.29-1-.74-1.23-1.37-.42-1,.34-1.87,1.08-2.51,2.54-2.17,5.12-4.29,7.67-6.44.81-.68,1.72-1.18,2.6-.39a3.22,3.22,0,0,1,1,2C1599.08,563.61,1589.84,571,1587.91,570.87Z" transform="translate(-1.67 -156.58)"/><path class="cls-6" d="M1726,714c-.17,1.35-9.21,8.95-10.44,8.7-1.64-.33-2.72-1.65-1.41-2.95a71,71,0,0,1,9.12-7.67C1724.81,711,1725.68,712.55,1726,714Z" transform="translate(-1.67 -156.58)"/><path class="cls-6" d="M1604,557.67c-1.4-.5-2.64-1.63-1.26-2.93a70.55,70.55,0,0,1,9.17-7.36c1.27-.86,2.75,0,2.59,1.92C1614.4,550.66,1605.43,557.79,1604,557.67Z" transform="translate(-1.67 -156.58)"/><path class="cls-6" d="M1666.57,580.12c-.19,1.81-8.76,9-10.22,8.67-1.71-.44-2.36-1.88-1.08-3.09a77.11,77.11,0,0,1,8.61-7.12C1665.21,577.64,1666.51,578.43,1666.57,580.12Z" transform="translate(-1.67 -156.58)"/><path class="cls-6" d="M1757.32,687.9c0,1-9,8.9-10.11,8.76-1.38-.17-2.46-1.23-1.64-2.4a26.65,26.65,0,0,1,9.3-8.06C1756.12,685.53,1757.05,686.54,1757.32,687.9Z" transform="translate(-1.67 -156.58)"/><path class="cls-6" d="M1703.17,663.29c-1.27-1.4-2.93-2.5-3.41-4.49,3.32.82,4.88-2,7.11-3.41,1.23-.8,2.61-2.39,4-.42s-.42,2.83-1.59,3.77C1707.3,660.32,1705.21,661.78,1703.17,663.29Z" transform="translate(-1.67 -156.58)"/><path class="cls-4" d="M1586.68,627c-3.06,2.63-3.27,6.8-5.41,9.92C1579.08,632.76,1581.63,628.09,1586.68,627Z" transform="translate(-1.67 -156.58)"/><path class="cls-4" d="M1674.56,786.43l7-2.38c1.58.44,3.66,0,4.11,2.39Z" transform="translate(-1.67 -156.58)"/><path class="cls-4" d="M1558.39,579.52c-3.53-1-6.25,1.6-9.45,2.11C1551.23,577.05,1554.72,577.9,1558.39,579.52Z" transform="translate(-1.67 -156.58)"/><path class="cls-4" d="M1544.25,592.73a14.74,14.74,0,0,1,2.3,8.22C1543.29,598.91,1544.19,595.7,1544.25,592.73Z" transform="translate(-1.67 -156.58)"/><path class="cls-8" d="M1812.5,690.83c-.07,2.37-1.61,3.69-3.45,4.79C1807.4,692,1810,691.49,1812.5,690.83Z" transform="translate(-1.67 -156.58)"/><path class="cls-8" d="M1822.4,670.61c-.16,2,.13,4.22-2.29,5.24C1820.1,673.77,1818.51,671,1822.4,670.61Z" transform="translate(-1.67 -156.58)"/><path class="cls-8" d="M1816.16,684.88a4,4,0,0,1-2.24,3.72C1813.77,686.83,1813.59,685,1816.16,684.88Z" transform="translate(-1.67 -156.58)"/><path class="cls-8" d="M1825.67,663.3a2.07,2.07,0,0,1-1,2.41C1822.78,664,1824,663.56,1825.67,663.3Z" transform="translate(-1.67 -156.58)"/><path class="cls-4" d="M1545.3,585.38a2,2,0,0,1-1.11,2.37C1542.88,586.17,1544.05,585.75,1545.3,585.38Z" transform="translate(-1.67 -156.58)"/><path class="cls-4" d="M1547,602.32l.72,1Z" transform="translate(-1.67 -156.58)"/><path class="cls-8" d="M1804.91,702.9l-.72.83A1.93,1.93,0,0,1,1804.91,702.9Z" transform="translate(-1.67 -156.58)"/><path class="cls-4" d="M1550.31,606l1.07.88Z" transform="translate(-1.67 -156.58)"/><path class="cls-4" d="M1546.71,583.33l-.8.88Z" transform="translate(-1.67 -156.58)"/><path class="cls-4" d="M1553.56,607.47l1.88,0A1.21,1.21,0,0,1,1553.56,607.47Z" transform="translate(-1.67 -156.58)"/><path class="cls-9" d="M1683.85,672.09c9.26,12.31,10.66,26.09,7.16,40.58-1.44,6-3.74,11.69-7.84,16.47-3.19-2.67-6-2-9.46.11-5.6,3.44-6.4,8.4-6.12,14.1-9.69,7.11-20.59,8.93-32.25,7.4-.33-.69-.72-.8-1.19-.13a7.77,7.77,0,0,1-4.83-1c2.79-3.26-.37-5.33-1.87-7.22-9-11.33-19.69-21.17-28-33-1.7-2.42-3.38-4.76-6.33-6-1.76,2,.22,5.08-2.14,6.67-7.75-27.91,15.31-59.22,45.33-61.55,8.46-.65,16.69.23,24.5,3.78-.1.59,0,1.31-.32,1.73-1.57,2.09-3.6,4.09-.57,6.53,3.19,2.56,3.74-1.7,5.73-2.34.81-.26,1.37-1.32,2-2,1.94.52,3.6,1.38,4.34,3.42-2.58,1.52-6,3.17-3.4,6.67,2.94,4,4.27-1.42,6.57-1.87.38-.07.61-.94.91-1.44,2.35,1,4.46,2.19,4.51,5.19-1.62-.2-2.53.94-3.47,1.91-1.32,1.37-3.31,2.65-1.61,5s3.72,1.38,5.65.11A5.49,5.49,0,0,0,1683.85,672.09Zm-45.92-1.63c.58-4,1.18-8-3.57-9.92-3.83-1.55-5.67,1.14-7.39,3.85-4.3,3.78-8.71,7.44-12.86,11.38-2.75,2.61-3,6-1.38,9.34,1.71,3.57,3.61,7.06,7,9.39.69,5.16,3.21,8,8.55,9.79,4.37,1.5,11.08,1.23,12.06,8.27-5.61,7.44-7,15.36-2.77,24,1.28,2.6,2.53,3.73,5.25,1.28,5.89-5.3,12-10.35,18-15.5,7.07-5.81,14.07-11.69,21.22-17.4,3.29-2.63,2.29-4.31-.64-6.3-8.77-5.94-17.25-4.82-25.66.7-1.09-.78-1.18-1.93-1.24-3.14-.4-8.76-4.19-16-10.24-22.11C1642.53,672.25,1641,670,1637.93,670.46Z" transform="translate(-1.67 -156.58)"/><path class="cls-7" d="M1591,710c2.36-1.59.38-4.62,2.14-6.67,3,1.23,4.63,3.57,6.33,6,8.33,11.87,19.06,21.71,28,33,1.5,1.89,4.66,4,1.87,7.22C1610.77,746.63,1593.38,728.69,1591,710Z" transform="translate(-1.67 -156.58)"/><path class="cls-4" d="M1667.59,743.35c-.28-5.7.52-10.66,6.12-14.1,3.49-2.14,6.27-2.78,9.46-.11C1679.73,735.8,1673.93,739.87,1667.59,743.35Z" transform="translate(-1.67 -156.58)"/><path class="cls-6" d="M1667.68,656.16c-.68.7-1.24,1.76-2,2-2,.64-2.54,4.9-5.73,2.34-3-2.44-1-4.44.57-6.53.31-.42.22-1.14.32-1.73A16.23,16.23,0,0,1,1667.68,656.16Z" transform="translate(-1.67 -156.58)"/><path class="cls-6" d="M1676.1,662.94c-.3.5-.53,1.37-.91,1.44-2.3.45-3.63,5.9-6.57,1.87-2.56-3.5.82-5.15,3.4-6.67A3.92,3.92,0,0,1,1676.1,662.94Z" transform="translate(-1.67 -156.58)"/><path class="cls-4" d="M1683.85,672.09a5.49,5.49,0,0,1-2.67,3c-1.93,1.27-3.86,2.32-5.65-.11s.29-3.59,1.61-5c.94-1,1.85-2.11,3.47-1.91C1682.74,668.58,1682.94,670.63,1683.85,672.09Z" transform="translate(-1.67 -156.58)"/><path class="cls-8" d="M1576.61,732.75l-1-1.52C1576.31,731.47,1576.86,731.84,1576.61,732.75Z" transform="translate(-1.67 -156.58)"/><path class="cls-7" d="M1634.15,750.62c.47-.67.86-.56,1.19.13Z" transform="translate(-1.67 -156.58)"/><path class="cls-12" d="M1867,632.13c-1,4.43-1.66,7.32-2.32,10.2C1862.69,638.75,1861.7,635.39,1867,632.13Z" transform="translate(-1.67 -156.58)"/><path class="cls-4" d="M1700.87,842.48c-.24-.55-.49-1.1-.73-1.64C1700.39,841.39,1700.63,841.93,1700.87,842.48Z" transform="translate(-1.67 -156.58)"/><path class="cls-4" d="M1453.51,696.54c-5.33,1.34-10.6,3.05-16,3.94-6.47,1.07-10.55,4.73-13.38,10.28-.89,1.74-1.58,3.72-3.93,4-3.29-4.71-5.24-9.5-.75-14.62,6.92,1.19,13-2.44,19.44-3.74,2.34-.47,6.34,1,7.29-3.26A9.1,9.1,0,0,1,1453.51,696.54Z" transform="translate(-1.67 -156.58)"/><path class="cls-4" d="M1509.42,692.08c-2.09-.52-4.64-.44-6.18-1.65-9.06-7.15-17.84-1.36-26.71.22a45.47,45.47,0,0,0-5,1.48,7,7,0,0,1,4.35-5.69c10.07-.7,19.4-5.59,29.65-5.22C1511.28,683.21,1509.47,688,1509.42,692.08Z" transform="translate(-1.67 -156.58)"/><path class="cls-7" d="M1225.42,824a2.66,2.66,0,0,1-2.51,2.82c-1.89.19-3-1-3-2.84a2.39,2.39,0,0,1,2.69-2.51A2.82,2.82,0,0,1,1225.42,824Z" transform="translate(-1.67 -156.58)"/><path class="cls-7" d="M1230.39,834.74a2.48,2.48,0,0,1-3,2,2.46,2.46,0,0,1-2.31-2.83,2.5,2.5,0,0,1,3.35-2.28A2.55,2.55,0,0,1,1230.39,834.74Z" transform="translate(-1.67 -156.58)"/><path class="cls-7" d="M1240.57,841.89l1,.59-.8.5A1.06,1.06,0,0,1,1240.57,841.89Z" transform="translate(-1.67 -156.58)"/><path class="cls-7" d="M1248.58,862.12l1,1.41Z" transform="translate(-1.67 -156.58)"/><path class="cls-3" d="M177.33,271.59c-1.39.29-2.53-.48-2.91-2.79-.49-3,1.18-3.77,3.65-4.17q21.27-3.45,42.51-7c2.56-.42,5.1-.95,7.67-1.28,2.25-.28,4.88-1.42,5.52,2.4.61,3.63-1.92,3.86-4.29,4.26q-18.89,3.13-37.78,6.21C187.17,270,182.65,270.71,177.33,271.59Z" transform="translate(-1.67 -156.58)"/><path class="cls-7" d="M151.89,248.87c6.13,0,9.13,3,9.11,9.11s-3.18,10-8.41,10.07c-5.68.07-10.6-4-10.77-8.85C141.65,254.14,146.76,248.9,151.89,248.87Z" transform="translate(-1.67 -156.58)"/><path class="cls-3" d="M180.84,285.16c-2.89.61-3.79-.43-4.08-2.3s-.41-3.67,2.1-4.09c9-1.5,18.06-2.95,27.07-4.49,2.4-.4,3.17.88,3.6,2.88s-.09,3.38-2.45,3.75C198,282.32,189,283.83,180.84,285.16Z" transform="translate(-1.67 -156.58)"/><path class="cls-3" d="M217.75,279.08c-2.75.6-3.76-.41-4-2.63-.25-2.07.18-3.5,2.51-3.87q13.52-2.15,27-4.36c2.51-.41,3,1.27,3.31,3.15s-.29,3.13-2.27,3.45C235.28,276.28,226.28,277.71,217.75,279.08Z" transform="translate(-1.67 -156.58)"/><path class="cls-3" d="M231.73,284.53c-1.57.21-2.84-.08-3.1-1.9s1.08-2.36,2.54-2.59c4.52-.74,9.05-1.45,13.57-2.17,1.55-.25,2.83,0,3.1,1.86s-1.09,2.31-2.55,2.56Z" transform="translate(-1.67 -156.58)"/><path class="cls-3" d="M206.34,288.71A2.1,2.1,0,0,1,203.5,287c-.51-2.27,1.1-2.66,2.77-2.93l13-2.05c1.45-.23,2.88-.38,3.28,1.54.46,2.27-1.06,2.62-2.79,2.88C215.43,287.15,211.11,287.91,206.34,288.71Z" transform="translate(-1.67 -156.58)"/><path class="cls-3" d="M181.33,292.73c-1.59.4-2.79,0-3.08-1.75s.9-2.32,2.45-2.56c4.49-.71,9-1.5,13.47-2.24,1.51-.25,2.84,0,3.11,1.8s-.95,2.35-2.47,2.59C190.31,291.27,185.82,292,181.33,292.73Z" transform="translate(-1.67 -156.58)"/><path class="cls-1" d="M284.36,789.19c2.84,7.21,1.62,14.88,2.09,22.27.91,14.32.39,28.72.51,43.08a9.14,9.14,0,0,1-2,6.6c-10.25,11.9-19.73,24.56-30.8,35.63-5.35,5.34-14.14,4.35-21.87,4.91-7.19.53-14.57-.24-21.64,1.8-4,1.14-6.23-.11-6.49-4.33-1.11-18.43-3.15-36.71,4.76-54.64,5.19-11.77,8-24.57,11.88-36.93,1.63-5.24,5-7.26,11-6.65,5.62.56,7.36,4.09,7.18,9.05-.39,10.78-3.34,21.19-5.17,31.75-.76,4.38-.64,6.95,4.39,7.52,1.74.2,3.38,1.19,5.11,1.63,7.12,1.81,10.53.76,13.85-5.69,7.71-15,16.34-29.51,22.19-45.4a1.55,1.55,0,0,0,.29-1c3.13-2,3.69-5.36,4.47-8.6A2.19,2.19,0,0,0,284.36,789.19Z" transform="translate(-1.67 -156.58)"/><path class="cls-4" d="M265.72,645.38c-5.84-.85-4.34-4.63-3-8,2.69-6.42,5.64-12.73,8.51-19.07,4.76-10.49,9.58-21,14.28-31.47,2.11-4.73,5.49-6.12,10.14-4q22.35,9.95,44.62,20c4.06,1.85,4.66,5.33,3,9q-11.43,25.58-23.12,51c-1.36,3-3.33,5.55-7.3,4.84,2.91-9.43.46-17.66-6.52-22.07-2.7-1.71-5.43-2.7-8.09-.09-4.42,4.35-6.66,2.64-8.48-2.51-2.57-7.29-5.44-8.43-13-6.16A19.51,19.51,0,0,0,265.72,645.38Zm39.49-43.91a8.21,8.21,0,0,0-6.56,2.64c-4.18,3.91-5.15,8-1.64,13,.43.6-.93,2.43.82,2.82s1.63-1.24,2.14-2.25c3.23-6.43,4.51-6.87,11-3.7,2.84,1.38,5.49,3.23,8.68,3.77,2.91.48,5.17-.62,6.1-3.48.7-2.18.62-4.56-1.91-5.59C317.63,606.13,311.31,603.8,305.21,601.47Zm7,18.08A2.3,2.3,0,0,0,310,622.4a2.47,2.47,0,0,0,2.89,2.27,2.42,2.42,0,0,0,2.3-2.84C315,620.17,313.6,619.8,312.17,619.55Z" transform="translate(-1.67 -156.58)"/><path class="cls-2" d="M265.72,645.38a19.51,19.51,0,0,1,11.1-8.42c7.55-2.27,10.42-1.13,13,6.16,1.82,5.15,4.06,6.86,8.48,2.51,2.66-2.61,5.39-1.62,8.09.09,7,4.41,9.43,12.64,6.52,22.07-9.81-2.74-18.57-7.95-27.92-11.8-5.14-2.11-10.19-4.49-15.22-6.87C268.08,648.33,265.72,648.06,265.72,645.38Z" transform="translate(-1.67 -156.58)"/><path class="cls-7" d="M126.59,670.75c1.67.8,3.79,1.9,6,2.83,20,8.56,39.91,17.23,59.32,27,4.06,2,8.39,3.54,12.56,5.39,1.83.82,3.76,1.67,2.41,4.41s-3.14,1.79-5,1c-9.21-4.09-18.43-8.14-27.6-12.3q-23.33-10.61-46.57-21.32a24.07,24.07,0,0,1-3.67-2,2.18,2.18,0,0,1-.61-3.14C124,671.58,124.53,670.48,126.59,670.75Z" transform="translate(-1.67 -156.58)"/><path class="cls-6" d="M192.68,724.56c-1,3.22-2.05,4.85-5.62,3.17-10.43-4.94-21-9.53-31.56-14.26-12.33-5.56-24.68-11.08-37-16.74-1.88-.86-5.14-1.14-3.29-4.86,1.74-3.48,3.94-1.58,6-.66q33.45,15.13,66.86,30.35C189.79,722.33,191.92,722.72,192.68,724.56Z" transform="translate(-1.67 -156.58)"/><path class="cls-7" d="M241,764.91c-.69,3.42-2.38,4.27-5.9,2.6-10.43-4.93-21-9.63-31.49-14.34-12.25-5.48-24.57-10.81-36.77-16.38-1.62-.74-5.18-.87-3.72-4,1.26-2.75,3.92-2.83,6.7-1.56Q204.47,747,239.2,762.73C240.17,763.17,241,763.5,241,764.91Z" transform="translate(-1.67 -156.58)"/><path class="cls-7" d="M133.06,656.6c.74.34,1.64.78,2.55,1.18,12.86,5.68,25.3,12.27,38.56,17.14,8,2.93,15.34,7.51,23.05,11.22,2.34,1.12,3.4,2.27,2.2,5-1.52,3.46-3.31.93-4.77.33-17.3-7.06-33.69-16.18-51.24-22.7-3.88-1.44-7.47-3.67-11.2-5.5-2-1-2.46-2.39-1.47-4.4C131.23,657.86,131.11,656.37,133.06,656.6Z" transform="translate(-1.67 -156.58)"/><path class="cls-7" d="M237.75,583.74c-7.92-1.93-14.27-6.17-21.17-9.11-10.9-4.66-21.74-9.45-32.58-14.25a22.46,22.46,0,0,1-4.6-2.72c-1.55-1.19-2.29-3-1.16-4.75s2.82-1,4.33-.35c7.07,3.16,14.06,6.51,21.22,9.44,10.78,4.42,20.67,10.8,31.87,14.28a15.67,15.67,0,0,1,4,2.52,2.68,2.68,0,0,1,1.07,3.63C240,584,238.76,584.22,237.75,583.74Z" transform="translate(-1.67 -156.58)"/><path class="cls-7" d="M208.59,674.21a29.32,29.32,0,0,1,3.77,1.22c17.73,8.16,35.45,16.32,53.11,24.63,1.58.75,5.1.84,3.48,4.09-1.22,2.44-3.77,3-6.2,1.59-11.73-6.62-24.6-10.76-36.57-16.88-6.12-3.14-12.94-4.86-18.69-8.86-1.44-1-2.51-2.06-1.87-3.9A2.89,2.89,0,0,1,208.59,674.21Z" transform="translate(-1.67 -156.58)"/><path class="cls-7" d="M195.41,675c-.43-.19-1.15-.5-1.87-.83-18.43-8.37-36.83-16.78-55.3-25-2.21-1-2.69-2-1.7-4s2.32-2.39,4.35-1.46c5.78,2.64,11.64,5.11,17.42,7.76q18.9,8.67,37.73,17.47c1.57.73,3.61,1.37,2.67,3.84C198.21,674,197.58,675.35,195.41,675Z" transform="translate(-1.67 -156.58)"/><path class="cls-6" d="M146.5,628.1c3.25,1.51,6.85,3.19,10.46,4.84q14.34,6.54,28.71,13c1.94.88,3.63,1.81,2.35,4.43-1.05,2.17-2.49,2-4.4,1.16C170.8,645.74,158,640,145.13,634.15c-1.36-.62-3.31-1.09-2.28-3.33C143.48,629.44,143.93,627.68,146.5,628.1Z" transform="translate(-1.67 -156.58)"/><path class="cls-7" d="M230.18,557.61c-.68,2.26-1.93,3.71-4.23,3.66a7,7,0,0,1-2.76-1c-11.17-5.68-22.44-11.13-34-15.89-2.27-.93-6.25-1.75-4.51-5.58s4.61-1.36,7.05-.24c11.53,5.27,23,10.57,34.62,15.74A7.47,7.47,0,0,1,230.18,557.61Z" transform="translate(-1.67 -156.58)"/><path class="cls-7" d="M229.25,707.5c-7.21-3.42-15.45-7.27-23.63-11.26-1.53-.74-1.36-2.16-.6-3.59a2.92,2.92,0,0,1,4-1.55c8.15,3.56,16.24,7.24,24.33,10.93a2.6,2.6,0,0,1,1.54,3.45C234.13,707.54,232.31,707.69,229.25,707.5Z" transform="translate(-1.67 -156.58)"/><path class="cls-6" d="M219,663.29c-.79,1.61-1.55,3.78-4.59,2.39-6.87-3.14-13.79-6.15-20.64-9.32-1.42-.66-2.71-1.67-1.82-3.76s2.12-3,4.17-2c7.25,3.24,14.47,6.57,21.68,9.92A2.16,2.16,0,0,1,219,663.29Z" transform="translate(-1.67 -156.58)"/><path class="cls-6" d="M219.07,742.09c-3.77-1.67-7.76-3.43-11.74-5.21-3.45-1.53-6.88-3.09-10.33-4.62-1.55-.69-2.06-1.77-1.33-3.34s1.23-3.29,3.37-2.36c7.46,3.24,14.88,6.58,22.3,9.92,1.58.71,1.77,2,1.06,3.47C221.77,741.26,221.08,742.44,219.07,742.09Z" transform="translate(-1.67 -156.58)"/><path class="cls-7" d="M176.85,756.36c1.1-2,1.48-5.69,5.19-3.36,6.77,4.25,14.06,7.25,21.49,10,2.39.89,3.66,2.65,2.74,5.13-1.13,3.06-3.47,1.26-4.94.53a218.51,218.51,0,0,0-21.77-9.32C178.26,758.88,177,758.22,176.85,756.36Z" transform="translate(-1.67 -156.58)"/><path class="cls-7" d="M284.07,790.15c-.78,3.24-1.34,6.58-4.47,8.6C279.35,795,279.29,791.3,284.07,790.15Z" transform="translate(-1.67 -156.58)"/><path class="cls-9" d="M446.1,801c4,7.62,9.39,14.61,11.17,23.31-6.79,1.53-12.34,5.55-18.24,8.91-9.59,5.45-19.36,10.61-29,15.9-3.29-1.2-3.32-4.64-4.65-7.08-8.45-15.53-16.72-31.16-24.95-46.81-1-1.85-2.7-3.57-2.08-6l9-3.56c-.42,3.32.9,5.62,3.89,7.16,2.78,1.42,5.78,2.69,8.06,4.73,3.87,3.47,7.24,4.51,10.78-.14,1.36.74,2.17,1.6,1.38,3.32s-1.06,3.7.63,4.89,3.37-.48,4.94-1.11c2.57-1,5-2.29,7.54-3.46,1.74,2.16,4.7,3.07,5.89,5.79-5.2,2.85-10.42,5.65-15.57,8.58-1.36.77-4,1.13-2.56,3.67,1.3,2.21,3.13.79,4.68,0,7.23-3.76,14.43-7.57,21.68-11.3,1.75-.91,3-2,2.46-4.14C441.53,800.36,444.08,801.2,446.1,801Zm-2.36,18a2.33,2.33,0,0,0,2.27-1.26c1.68-4.41-.7-4.51-3.62-3.08-7.3,3.6-14.5,7.4-21.66,11.29-1.31.71-4,1.27-2.43,3.79,1.37,2.17,3.18.74,4.72,0C429.94,826.18,436.83,822.59,443.74,819Zm-31.68,13.52a2.79,2.79,0,0,0-2.72-2.64,2.31,2.31,0,0,0-2.61,2.55,2.63,2.63,0,0,0,2.64,2.68C411,835.18,411.83,834.11,412.06,832.55Zm-9.62-18.32a2.72,2.72,0,0,0-2.88-2.42,2.18,2.18,0,0,0-2.53,2.51c.05,1.47.63,2.89,2.31,2.85A3.17,3.17,0,0,0,402.44,814.23Zm-7.38-11.69a2.57,2.57,0,0,0-2.67,2.59,2.46,2.46,0,0,0,2.48,2.75c1.56.09,2.82-.71,2.66-2.41A2.94,2.94,0,0,0,395.06,802.54Z" transform="translate(-1.67 -156.58)"/><path class="cls-7" d="M410.05,797.41c-3.54,4.65-6.91,3.61-10.78.14-2.28-2-5.28-3.31-8.06-4.73-3-1.54-4.31-3.84-3.89-7.16,2.2-1.34,4.36-2.78,6.62-4q16-8.75,32-17.41c6,8.63,11.52,17.48,14.23,27.8l.15,2.61c.22-.26.45-.52.65-.77-4.76,5.68-8.35,6.11-13.87,2.2-3.13-2.22-6.65-3.91-10-5.84a.44.44,0,0,1,0-.58q.27-3.12-2.85-2.85C407.1,788.57,407,788.88,410.05,797.41Z" transform="translate(-1.67 -156.58)"/><path class="cls-13" d="M410,849.14c9.68-5.29,19.45-10.45,29-15.9,5.9-3.36,11.45-7.38,18.24-8.91,3.41,1.63,4,5.26,5.69,8.08,1.38,2.25.59,3.56-1.56,4.72-14.27,7.69-28.25,15.89-43,22.74-2.29,1.07-3.76.89-4.75-1.45C412.38,855.36,410,852.73,410,849.14Zm25.3-3.81c2.11-.52,4.92-.76,5.41-3.48.33-1.82-.74-4.36-3-4.34a5.72,5.72,0,0,0-5.7,4.38C431.44,844.07,433,845.07,435.29,845.33Z" transform="translate(-1.67 -156.58)"/><path class="cls-13" d="M426,764.23q-16,8.7-32,17.41c-2.26,1.24-4.42,2.68-6.62,4l-9,3.56c-5.43-6-5.31-6.54,1.34-10,12.25-6.47,24.41-13.12,36.69-19.53C422.94,756.2,424.28,757,426,764.23Z" transform="translate(-1.67 -156.58)"/><path class="cls-10" d="M417.12,790.23c3.35,1.93,6.87,3.62,10,5.84,5.52,3.91,9.11,3.48,13.87-2.2,3.62,1,3.9,4.41,5.11,7.15-2,.18-4.57-.66-5,2.61-4.27-1.28-7.11,2.2-10.69,3.21-1.19-2.72-4.15-3.63-5.89-5.79.3-1.95-.17-4.17-2.08-4.34C418.15,796.34,417.86,793.24,417.12,790.23Z" transform="translate(-1.67 -156.58)"/><path class="cls-10" d="M440.34,794.64l-.15-2.61C441.58,792.82,442.78,793.62,440.34,794.64Z" transform="translate(-1.67 -156.58)"/><path class="cls-7" d="M438.84,774.68l1,1.51Z" transform="translate(-1.67 -156.58)"/><path class="cls-11" d="M1841.76,300.85c5.12,8.27,12.67,14.76,17.1,23.53.43.83,1.39,1.47.58,3.21-9.25-9-16.63-19.6-27.47-26.53C1835.19,299.1,1838.59,305.09,1841.76,300.85Z" transform="translate(-1.67 -156.58)"/><path class="cls-5" d="M1867.74,254.5c-1.09,4.57-2.33,9.79-3.58,15-.51,2.11-2.07,2.27-3.73,1.79s-2.15-1.5-1.69-3.23c1.33-5,2.54-10,3.81-15,.4-1.6.87-3.16,3.07-2.82S1867.77,252.18,1867.74,254.5Z" transform="translate(-1.67 -156.58)"/><path class="cls-11" d="M1884.12,321.47c-.23,2.35-.14,5.45-2.63,6.08s-2.9-2.8-4.35-4.31a22.94,22.94,0,0,1-2.5-4C1877.61,320.8,1880.39,323.14,1884.12,321.47Z" transform="translate(-1.67 -156.58)"/><path class="cls-11" d="M1867.07,309.89a31.5,31.5,0,0,1-6.41-7.77C1864.58,303.24,1867.3,305.35,1867.07,309.89Z" transform="translate(-1.67 -156.58)"/><path class="cls-11" d="M1857.42,298.06l-7.06-6.06C1854.59,291.84,1856.82,294,1857.42,298.06Z" transform="translate(-1.67 -156.58)"/><path class="cls-11" d="M1826.39,300.51l-3.29,2.27C1822.83,300,1823.55,298.73,1826.39,300.51Z" transform="translate(-1.67 -156.58)"/><path class="cls-11" d="M1874,318.48a6.06,6.06,0,0,1-2.6-3.17C1873.7,315.21,1874.8,316.08,1874,318.48Z" transform="translate(-1.67 -156.58)"/><path class="cls-11" d="M1845.74,292.46l-1.46,1.52c-.31-.89-.41-1.76.5-2.34C1844.88,291.57,1845.41,292.17,1845.74,292.46Z" transform="translate(-1.67 -156.58)"/><path class="cls-11" d="M1860,301.31l-.87-1.31C1860.34,299.85,1860.24,300.54,1860,301.31Z" transform="translate(-1.67 -156.58)"/><path class="cls-11" d="M1842.7,296.51c-.18.44-.36.88-.54,1.3C1841.8,297.15,1841.36,296.47,1842.7,296.51Z" transform="translate(-1.67 -156.58)"/><path class="cls-11" d="M1869.6,313.09l-.78-1.08C1869.88,311.79,1869.79,312.41,1869.6,313.09Z" transform="translate(-1.67 -156.58)"/><polygon class="cls-11" points="1829.43 143.85 1829.48 143.84 1829.51 143.44 1829.43 143.85"/><path class="cls-12" d="M865.32,645.18c9.79-9.58,19.54-19.2,29.36-28.74Q918,593.79,941.4,571.23c4-3.85,10-3.11,14.31,1.39,13.13,13.54,26.79,26.6,39.32,40.67,7.78,8.74,17.36,15.85,23.66,25.92-2.12,5.35-8.18,8.47-8.06,15.3,0,2.85-.45,5.84-.41,8.79-4,2.38-4.86-.84-5.82-3.38-1.42-3.76-3.08-7.27-6.32-9.87-10.3-8.28-22.57-1.74-27.61,11-3,7.68,2.53,17.27,10.63,18.86,2.3.45,4.6.67,7,2.24-4.5,5.29-9.78,9.45-14.65,14-9.82,9.27-19.49,18.7-29.23,28.07l-2.28-1.17a3.76,3.76,0,0,0-2.47-2.32,1.2,1.2,0,0,0-1.1-.17l0,.12a1.26,1.26,0,0,0-1.26-1.26l.11,0a1.07,1.07,0,0,0-.26-1.06c-8.87-10.78-20.09-19.13-29.58-29.12-.64.38-1.16.52-1.2.74-1.81,10.19-6,14.86-13.76,15.29-9.53.52-18.32-5.3-20.81-13.78-1.94-6.58,2-14.36,9.51-18.83,6.3-3.74,6.55-4.29,1.34-9.37C876.52,657.53,872,650.36,865.32,645.18Zm71.85,23.34c0,3.39.19,5.61,0,7.78-.56,5.42,3.1,4.78,6.56,5,3.82.23,5.53-1,5.21-5-.58-7.34-.49-14.75-1.48-22-.48-3.52.7-4.4,3.45-5.52,10.39-4.2,15.11-15.64,11-26.23-3.73-9.71-16.61-15.63-26.25-11.74-7.3,2.94-12,8.16-12.91,16.4-1,9.87,2.59,17.28,11.64,21.35,3.52,1.58,4.6,3.29,4,7C937.59,660.16,936.68,664.9,937.17,668.52Z" transform="translate(-1.67 -156.58)"/><path class="cls-6" d="M949,811.78c3.64.36,1.87,2.61,1.36,4.22-1.11,3.52-2.33,7-3.64,10.47-.91,2.42-.57,3.75,2.35,3.45-.19,1.66-.39,3.32-.58,5l-12.68-.31c-1.68-1.26-1-3.1-1.19-4.74,2,0,4.36.35,2.93-3.06-1.15-2.73-2.13-5.54-3.21-8.31-2.59-6.62-1.91-8,5.17-10.4,5.82-2,8.64-.86,9.53,3.75a5.94,5.94,0,0,1-3.76-.87c-3.58-1.91-6.22-.88-8.88,1.5-3.39,3,.47,5.32.92,7.9s1.75,4.82,2.73,7.2c.45,1.09.91,2.3,2.44,2.14,1.16-.12,1.59-1,1.87-2C945.88,822.36,948.55,817.39,949,811.78Z" transform="translate(-1.67 -156.58)"/><path class="cls-4" d="M935.85,834.59l12.68.31c.81,5.37-4.15,5.71-6.79,6C938.55,841.29,935.28,839.07,935.85,834.59Z" transform="translate(-1.67 -156.58)"/><path class="cls-4" d="M963.22,820.13c3.93,1.3,5.91,3.18,7.3,7.07C966.62,826,964.67,824,963.22,820.13Z" transform="translate(-1.67 -156.58)"/><path class="cls-7" d="M864,728c4.36,1.29,7.12-.69,8.09-4.71.92-3.81,2.39-4.9,5.67-2.42,2.57,2,5.15,1.83,7.74.11,3-2,5.44-2.15,5.85,2.14.48,5.14,6.34,3.88,7.93,6.89,1.77,3.32-4.38,6.55-1.44,10.33,3.39,4.35,2,6.07-2.82,7.1-2.23.48-3.32,2.61-3.67,5-.55,3.78-2.39,5-5.55,2.23-2.76-2.4-5.38-1.88-8.18-.13s-4.78,1.71-5.42-2.27a5.93,5.93,0,0,0-5.17-5.11c-4.13-.66-3.42-2.8-2.16-5.56,1-2.21,3.64-4.9-.86-6.47l0,0c.12-.94-.22-1.42-1.23-1.24l0,0c.41-2,.81-4,1.22-6Zm25.34,9.66c0-4.75-2.94-7.57-7.91-7.53s-7.23,2.87-7.56,7.36c-.3,4.09,3.73,8.09,7.78,8.21C885.93,745.82,889.31,742.29,889.33,737.66Z" transform="translate(-1.67 -156.58)"/><path class="cls-7" d="M864,735.13c.16,2.58-.15,5-3.43,5.08-5.11.2-2.58,8.78-7.4,7.52-3.76-1-6.69-3-10.33,0a2.19,2.19,0,0,1-3.67-1.47c-.49-3.47-2.13-5.46-5.62-5.88a1.49,1.49,0,0,1-.56-.22c-1.27-.78-.8-15.95.53-16.68a1.37,1.37,0,0,1,.58-.12c5.35-.1,3.37-8.07,7.46-7.84,3.62.19,7,3.6,10.86.12a2.23,2.23,0,0,1,3.72,1.44c.59,3.6,2.19,5.76,5.9,6.47,2.43.47,1.73,2.76,2,4.45l.06-.07c-2.71,1.55-3.83,3.42-1.22,6l0,0c-.06.88.42,1.23,1.23,1.24Zm-8.13-3c.09-5.28-3.36-9-8.32-8.94-4.37,0-8.6,4.13-8.63,8.35s4.09,8.45,8.37,8.52C852.27,740.13,855.78,736.89,855.87,732.13Z" transform="translate(-1.67 -156.58)"/><path class="cls-6" d="M817.1,691.94l3.85-4.86a11.12,11.12,0,0,1,4.15-3.91l1.78-.73C826,688,822.83,691.32,817.1,691.94Z" transform="translate(-1.67 -156.58)"/><path class="cls-6" d="M830.2,679.7c.49-3,1.83-5.14,5.13-5.49C835.17,677.49,834.06,679.88,830.2,679.7Z" transform="translate(-1.67 -156.58)"/><path class="cls-6" d="M811.16,697.84A15.29,15.29,0,0,1,816,693C816.38,696.61,814.93,698.38,811.16,697.84Z" transform="translate(-1.67 -156.58)"/><path class="cls-6" d="M835.42,674.12c-.14-2.33,1.82-2.29,3.24-2.86C839,673.84,837.3,674.08,835.42,674.12Z" transform="translate(-1.67 -156.58)"/><path class="cls-6" d="M840.31,669.28a4.64,4.64,0,0,1,3.19-2.72C843.75,669,842.18,669.33,840.31,669.28Z" transform="translate(-1.67 -156.58)"/><path class="cls-6" d="M826.88,682.44a2.24,2.24,0,0,1,2.2-1.45C828.83,682.21,827.9,682.4,826.88,682.44Z" transform="translate(-1.67 -156.58)"/><path class="cls-3" d="M937,718.44a1.07,1.07,0,0,1,.26,1.06l-.68-.68Z" transform="translate(-1.67 -156.58)"/><path class="cls-3" d="M937.14,719.46a1.26,1.26,0,0,1,1.26,1.26Z" transform="translate(-1.67 -156.58)"/><path class="cls-3" d="M938.37,720.6a1.2,1.2,0,0,1,1.1.17C939,721.71,938.61,721.48,938.37,720.6Z" transform="translate(-1.67 -156.58)"/><path class="cls-6" d="M809.8,699.08l1.41-1.21Z" transform="translate(-1.67 -156.58)"/><path class="cls-6" d="M829.07,681l1.18-1.2Z" transform="translate(-1.67 -156.58)"/><path class="cls-9" d="M1673.48,513.09c.29,1.82-.87,2.47-1.73,3.22-2,1.7-4,3.35-6,5-6.83,5.51-6.83,5.5-12.55-1.58-6.29-7.79-6.29-7.79,1.44-14.45,7.25-6.27,7.27-6.28,13.45,1.08C1670,508.61,1671.82,511,1673.48,513.09Z" transform="translate(-1.67 -156.58)"/><path class="cls-9" d="M1698.06,543.73c1.59-.06,2.28,1,3.11,1.83,11.07,11.23,10.91,12.35-1.68,22.29-2.56,2-3.93,2.21-6.32-.27-10.84-11.25-10.91-11.55,1.2-21.13C1695.61,545.47,1696.92,544.57,1698.06,543.73Z" transform="translate(-1.67 -156.58)"/><path class="cls-9" d="M1788.52,651.22c2.56,1.47,3.84,3.48,5.31,5.33,7.49,9.39,7.51,9.38-1.61,17.11-6,5.12-6,5.12-10.87-.9-7.36-9.21-7.36-9.21,1.9-17C1785.05,654.26,1786.81,652.7,1788.52,651.22Z" transform="translate(-1.67 -156.58)"/><path class="cls-7" d="M1743.2,596.22l5.5,6.09c6,6.67,6,7-1.29,12.66-1.08.85-2.2,1.66-3.25,2.56-5.83,5-8.78,3.91-10.53-4,1.74-.13,3.49-.38,5.23-.36,5,0,6.37-2.28,5.45-7C1743.69,602.87,1742.63,599.61,1743.2,596.22Z" transform="translate(-1.67 -156.58)"/><path class="cls-11" d="M1743.2,596.22c-.57,3.39.49,6.65,1.11,9.88.92,4.75-.49,7.06-5.45,7-1.74,0-3.49.23-5.23.36a.42.42,0,0,0-.17-.65q3.36-8.33,6.74-16.65C1741.22,594.74,1742.24,592.84,1743.2,596.22Z" transform="translate(-1.67 -156.58)"/><path class="cls-8" d="M1740.2,596.19q-3.37,8.32-6.74,16.65c-3.79.38-5.21-2.81-6.37-5.16-1.28-2.6,2.18-3.24,3.64-4.57C1733.61,600.47,1736.29,597.46,1740.2,596.19Z" transform="translate(-1.67 -156.58)"/><path class="cls-9" d="M1562.86,609.45c2-1.72,5.34-1.43,6.65-4.27,1.89,2.05,2.31,4.56-.11,6C1567.23,612.44,1564.4,612.46,1562.86,609.45Z" transform="translate(-1.67 -156.58)"/><path class="cls-9" d="M1568.35,601.47c-1.28-1.74,0-1.66,1.16-1.63Z" transform="translate(-1.67 -156.58)"/><path class="cls-2" d="M1692.57,759.35c-.39-.35-.85-.74-.15-1.16.15-.09.55.27.84.42A6.87,6.87,0,0,1,1692.57,759.35Z" transform="translate(-1.67 -156.58)"/><path class="cls-4" d="M1640.35,712.56c-1-7-7.69-6.77-12.06-8.27-5.34-1.84-7.86-4.63-8.55-9.79,1.41-2.25,3-3.85,5.56-1.42.91.86,1.81,1.58,3,.49s.28-2.05-.4-3c-6-8.08-5.92-8.24,2.46-14.31,1.53,2.32,3.56-.47,5.22.51-.58,2.87-.41,5.29,3.33,5.59,3.51,6.64,9.87,11.32,12.64,18.49.39,1,1.74.64,2.71.53q.8,4.35,1.57,8.7c-.25,2.75-2,3.29-4.45,3.61C1647.55,714.21,1644.13,711.91,1640.35,712.56Z" transform="translate(-1.67 -156.58)"/><path class="cls-6" d="M1655.84,710.1l-1.56-8.7,1.49-2.11c8.41-5.52,16.89-6.64,25.66-.7,2.93,2,3.93,3.67.64,6.3-7.15,5.71-14.15,11.59-21.22,17.4C1659.83,718,1659.39,713.39,1655.84,710.1Z" transform="translate(-1.67 -156.58)"/><path class="cls-2" d="M1655.84,710.1c3.55,3.29,4,7.86,5,12.19-6,5.15-12.13,10.2-18,15.5-2.72,2.45-4,1.32-5.25-1.28-4.25-8.59-2.84-16.51,2.77-24,3.78-.65,7.2,1.65,11,1.15C1653.88,713.39,1655.59,712.85,1655.84,710.1Z" transform="translate(-1.67 -156.58)"/><path class="cls-2" d="M1630.37,676.28c-8.38,6.07-8.41,6.23-2.46,14.31.68.93,1.7,1.8.4,3s-2.1.37-3-.49c-2.58-2.43-4.15-.83-5.56,1.42-3.4-2.33-5.3-5.82-7-9.39-1.59-3.34-1.37-6.73,1.38-9.34,4.15-3.94,8.56-7.6,12.86-11.38.45,4.05,4.39,6.24,5.33,10Z" transform="translate(-1.67 -156.58)"/><path class="cls-7" d="M1630.37,676.28l1.93-1.86,5.63-4c3-.46,4.6,1.79,6.36,3.58,6,6.14,9.84,13.35,10.24,22.11.06,1.21.15,2.36,1.24,3.14l-1.49,2.11c-1,.11-2.33.48-2.72-.53-2.77-7.17-9.13-11.85-12.64-18.49,1.07-1.26,3.08-2.18,1.83-4.34s-3.2-1.8-5.16-1.25C1633.93,675.81,1631.9,678.6,1630.37,676.28Z" transform="translate(-1.67 -156.58)"/><path class="cls-6" d="M1637.93,670.46l-5.63,4c-.94-3.79-4.88-6-5.33-10,1.72-2.71,3.56-5.4,7.39-3.85C1639.11,662.47,1638.51,666.51,1637.93,670.46Z" transform="translate(-1.67 -156.58)"/><path class="cls-2" d="M305.21,601.47c6.1,2.33,12.42,4.66,18.67,7.18,2.53,1,2.61,3.41,1.91,5.59-.93,2.86-3.19,4-6.1,3.48-3.19-.54-5.84-2.39-8.68-3.77-6.53-3.17-7.81-2.73-11,3.7-.51,1-.54,2.61-2.14,2.25s-.39-2.22-.82-2.82c-3.51-4.92-2.54-9.06,1.64-13A8.21,8.21,0,0,1,305.21,601.47Z" transform="translate(-1.67 -156.58)"/><path class="cls-3" d="M312.17,619.55c1.43.25,2.84.62,3,2.28a2.42,2.42,0,0,1-2.3,2.84A2.47,2.47,0,0,1,310,622.4,2.3,2.3,0,0,1,312.17,619.55Z" transform="translate(-1.67 -156.58)"/><path class="cls-6" d="M417.12,790.23c.74,3,1,6.11,5.34,6.48,1.91.17,2.38,2.39,2.08,4.34-2.51,1.17-5,2.44-7.54,3.46-1.57.63-3.19,2.34-4.94,1.11s-1.41-3.19-.63-4.89,0-2.58-1.38-3.32c-3.07-8.53-2.95-8.84,4.23-10.61l2.85,2.85A.44.44,0,0,0,417.12,790.23Z" transform="translate(-1.67 -156.58)"/><path class="cls-6" d="M430.43,806.84c3.58-1,6.42-4.49,10.69-3.21.53,2.18-.71,3.23-2.46,4.14-7.25,3.73-14.45,7.54-21.68,11.3-1.55.81-3.38,2.23-4.68,0-1.48-2.54,1.2-2.9,2.56-3.67C420,812.49,425.23,809.69,430.43,806.84Z" transform="translate(-1.67 -156.58)"/><path class="cls-6" d="M443.74,819c-6.91,3.56-13.8,7.15-20.72,10.69-1.54.79-3.35,2.22-4.72,0-1.58-2.52,1.12-3.08,2.43-3.79,7.16-3.89,14.36-7.69,21.66-11.29,2.92-1.43,5.3-1.33,3.62,3.08A2.24,2.24,0,0,0,443.74,819Z" transform="translate(-1.67 -156.58)"/><path class="cls-6" d="M412.06,832.55c-.23,1.56-1.07,2.63-2.69,2.59a2.63,2.63,0,0,1-2.64-2.68,2.31,2.31,0,0,1,2.61-2.55A2.79,2.79,0,0,1,412.06,832.55Z" transform="translate(-1.67 -156.58)"/><path class="cls-4" d="M402.44,814.23a3.17,3.17,0,0,1-3.1,2.94c-1.68,0-2.26-1.38-2.31-2.85a2.18,2.18,0,0,1,2.53-2.51A2.72,2.72,0,0,1,402.44,814.23Z" transform="translate(-1.67 -156.58)"/><path class="cls-4" d="M395.07,802.54a2.94,2.94,0,0,1,2.46,2.93c.16,1.7-1.1,2.5-2.66,2.41a2.46,2.46,0,0,1-2.48-2.75A2.57,2.57,0,0,1,395.07,802.54Z" transform="translate(-1.67 -156.58)"/><path class="cls-10" d="M443.74,819a2.24,2.24,0,0,1,2.27-1.26A2.33,2.33,0,0,1,443.74,819Z" transform="translate(-1.67 -156.58)"/><path class="cls-10" d="M417.13,789.65l-2.85-2.85Q417.4,786.53,417.13,789.65Z" transform="translate(-1.67 -156.58)"/><path class="cls-14" d="M435.29,845.33c-2.25-.26-3.85-1.26-3.32-3.44a5.72,5.72,0,0,1,5.7-4.38c2.29,0,3.36,2.52,3,4.34C440.21,844.57,437.4,844.81,435.29,845.33Z" transform="translate(-1.67 -156.58)"/><path class="cls-7" d="M937.17,668.52c-.49-3.62.42-8.36,1.21-13,.62-3.69-.46-5.4-4-7-9-4.07-12.69-11.48-11.64-21.35.88-8.24,5.61-13.46,12.91-16.4,9.64-3.89,22.52,2,26.25,11.74,4.07,10.59-.65,22-11,26.23-2.75,1.12-3.93,2-3.45,5.52,1,7.27.9,14.68,1.48,22,.32,4.06-1.39,5.27-5.21,5-3.46-.21-7.12.43-6.56-5C937.36,674.13,937.17,671.91,937.17,668.52Zm-7.3-38.64A12.91,12.91,0,0,0,943.13,643c6.9-.05,12.4-5.26,12.5-11.84.1-7.26-6-14.44-12.19-14.39C936.65,616.8,929.87,623.37,929.87,629.88Z" transform="translate(-1.67 -156.58)"/><path class="cls-4" d="M1070.15,747.47c-.27,1.8.29,3.47-1.17,3.73-1.73.32-3.81-.1-4.68-1.75a104.69,104.69,0,0,1-4.5-10.23,2.25,2.25,0,0,1,.76-2c.48-.34,1.83-.37,2.08,0C1065.21,740.78,1069.4,743.29,1070.15,747.47Z" transform="translate(-1.67 -156.58)"/><path class="cls-4" d="M1052.59,706.61c1.84.3,2.82,1.22,2.79,2.82a2.72,2.72,0,1,1-5.42-.36A2.71,2.71,0,0,1,1052.59,706.61Z" transform="translate(-1.67 -156.58)"/><path class="cls-8" d="M949,811.78c-.49,5.61-3.16,10.58-4.64,15.9-.28,1-.71,1.9-1.87,2-1.53.16-2-1.05-2.44-2.14-1-2.38-2.3-4.72-2.73-7.2s-4.31-4.86-.92-7.9c2.66-2.38,5.3-3.41,8.88-1.5a5.94,5.94,0,0,0,3.76.87Z" transform="translate(-1.67 -156.58)"/><path class="cls-13" d="M889.33,737.66c0,4.63-3.4,8.16-7.69,8-4-.12-8.08-4.12-7.78-8.21.33-4.49,2.69-7.31,7.56-7.36S889.36,732.91,889.33,737.66Z" transform="translate(-1.67 -156.58)"/><path class="cls-13" d="M862.83,734c-2.61-2.62-1.49-4.49,1.22-6C863.64,729.94,863.24,732,862.83,734Z" transform="translate(-1.67 -156.58)"/><path class="cls-13" d="M864,735.18c-.81,0-1.29-.36-1.23-1.24C863.82,733.76,864.16,734.24,864,735.18Z" transform="translate(-1.67 -156.58)"/><path class="cls-6" d="M855.87,732.13c-.09,4.76-3.6,8-8.58,7.93-4.28-.07-8.41-4.26-8.37-8.52s4.26-8.31,8.63-8.35C852.51,723.14,856,726.85,855.87,732.13Zm-5.2-.55c-.51-1.5-1.08-3.13-3-3.1-2.16,0-3.06,1.55-2.86,3.59.18,1.77,1.22,2.93,3.1,2.74S850.61,733.4,850.67,731.58Z" transform="translate(-1.67 -156.58)"/><path class="cls-6" d="M1635.59,676.79c2-.55,3.92-.91,5.16,1.25s-.76,3.08-1.83,4.34C1635.18,682.08,1635,679.66,1635.59,676.79Z" transform="translate(-1.67 -156.58)"/><path class="cls-12" d="M929.87,629.88c0-6.51,6.78-13.08,13.57-13.13,6.2,0,12.29,7.13,12.19,14.39-.1,6.58-5.6,11.79-12.5,11.84A12.91,12.91,0,0,1,929.87,629.88Z" transform="translate(-1.67 -156.58)"/><path class="cls-7" d="M850.67,731.58c-.06,1.82-.91,3-2.73,3.23s-2.92-1-3.1-2.74c-.2-2,.7-3.54,2.86-3.59C849.59,728.45,850.16,730.08,850.67,731.58Z" transform="translate(-1.67 -156.58)"/></svg>