<svg xmlns="http://www.w3.org/2000/svg" viewBox="0 0 265.73 212.24"><defs><style>.cls-1{isolation:isolate;}.cls-2{fill:#cecdde;}.cls-3{fill:#ff9d6d;}.cls-4{fill:#ffae80;}.cls-5{fill:#456f96;opacity:0.3;mix-blend-mode:multiply;}.cls-6{fill:#131313;}.cls-7{fill:#1d1d1b;}.cls-8{fill:#575756;}.cls-9{fill:#fff;}</style></defs><title>who-3</title><g class="cls-1"><g id="Layer_1" data-name="Layer 1"><path class="cls-2" d="M632.64,847.35h77.19l15.31-51.24c-3.48-22.61-12.27-47.43-30.54-65.94-12.67-5.21-30.51-13-33.24-15.59-5.31,2.06-28.74,80-28.74,80C631.62,809.23,632.64,847.35,632.64,847.35Z" transform="translate(-542.27 -635.3)"/><path class="cls-3" d="M653.76,699.24l-28.15-17.88c-5.13,21-4.8,16.15-9.24,38.26,12.08,18.38,23.14,21.93,35.88,7.24Z" transform="translate(-542.27 -635.3)"/><path class="cls-2" d="M634.36,847.35l-58.46.19v-18.9L542.29,826c-.62-31.16,14.55-63.63,27.28-87.27a23.72,23.72,0,0,1,11.76-10.62c12.13-5.07,26.59-11.35,28.82-13.48,4.2,6.87,42.34,28.08,43.61,22.58C654.76,751.83,634.36,847.35,634.36,847.35Z" transform="translate(-542.27 -635.3)"/><path class="cls-4" d="M672.07,691.18c-1.25,7.25-8.28,24.06-13.88,26.29a17.25,17.25,0,0,1-13.11.16c-4.53-1.67-8.18-5.14-11.13-9s-5.38-5.15-6.5-9.68c-1.05-4.25-1-8.69-.93-13.08.08-5-4.93-3.48-4.85-8.51.05-3.78-1.68-14.27,0-17.66s9.53-14.18,13.18-15.53,27.85-6.52,38.12,11.36C677.17,662.88,676.38,666.1,672.07,691.18Z" transform="translate(-542.27 -635.3)"/><polygon class="cls-5" points="132.75 114.71 137.3 148.85 98.24 181.21 52.59 156.12 54.92 115.3 29.52 168.21 69.53 196.38 119.24 196.38 172.19 188.26 132.75 114.71"/><path class="cls-2" d="M734.2,808.46a15.64,15.64,0,0,1-9.29,14.84l-.3.15a15.67,15.67,0,0,1-20.66-8c-.63-1.12-1.27-2.25-1.9-3.39s-1.4-2.52-2.08-3.77c-4-7.36-7.81-14.77-11.24-22.24q-2.57-5.54-4.82-11.09a225.55,225.55,0,0,1-8.26-23.31,15.63,15.63,0,0,1,8-20.64l.3-.15a15.64,15.64,0,0,1,20.63,8l7.86,17.68.78,1.76,1.14,2.58,1.06,2.37.32.72.29.7,1.61,3.62.62,1.35.76,1.74,1.93,4.34,12,26.94A15.79,15.79,0,0,1,734.2,808.46Z" transform="translate(-542.27 -635.3)"/><path class="cls-4" d="M597.28,814.38a39.32,39.32,0,0,0,12.25-.09c2.72-.45,5.4-1.18,8.16-1.38,7.34-.51,14.33,2.82,20.93,6.07l14.9,7.34a2.66,2.66,0,0,1,1.32,1.07,2.31,2.31,0,0,1-1.8,3.33c-5.23.6-12.93.85-18.13,0-2.61-.43-4.07-2-6.71-1.74a37.21,37.21,0,0,0-6,1.39A39.76,39.76,0,0,1,597,828.68,77.64,77.64,0,0,0,597.28,814.38Z" transform="translate(-542.27 -635.3)"/><path class="cls-2" d="M608.43,814.45l-3.62,21.09c-5,1.31-56.4,6.85-60.95-3-8.85-19.1,22.46-30,27.93-31.31C585,808,586,808,608.43,814.45Z" transform="translate(-542.27 -635.3)"/><path class="cls-6" d="M674.06,651.41c.37,8.65-9.1,8.27-14.88,6.11-5.06-1.88-12.5-6.75-19-5.37-8.23,1.76-8,12.39-6.87,24.79l-7-1.51L622.17,695s-3.91-9.35-4.45-14.62c-.77-7.45-1.66-26.36,6.52-37.13,6.5-8.55,19.66-9.52,30.72-6C667.45,641.26,673.85,646.58,674.06,651.41Z" transform="translate(-542.27 -635.3)"/><path class="cls-7" d="M667.1,817.12l17.37-79.34a9.16,9.16,0,0,1,8.49-7h105.7c3.85,0,6.28,3.12,5.44,7l-17.38,79.34a9.15,9.15,0,0,1-8.48,7H672.53C668.69,824.08,666.25,821,667.1,817.12Z" transform="translate(-542.27 -635.3)"/><path class="cls-8" d="M676.26,824.08H782a9.15,9.15,0,0,0,8.48-7l17.38-79.34c.85-3.84-1.59-7-5.43-7H696.69a9.15,9.15,0,0,0-8.48,7l-17.38,79.34C670,821,672.42,824.08,676.26,824.08Z" transform="translate(-542.27 -635.3)"/><path class="cls-9" d="M734.78,777.45c-.87,3.94,1.63,7.13,5.56,7.13a9.38,9.38,0,0,0,8.7-7.13c.86-3.94-1.63-7.13-5.57-7.13A9.36,9.36,0,0,0,734.78,777.45Z" transform="translate(-542.27 -635.3)"/><polygon class="cls-8" points="58.56 195.68 87.25 195.68 233.08 195.68 233.08 188.78 58.56 188.78 58.56 195.68"/><rect class="cls-7" x="125.11" y="188.78" width="107.97" height="6.9"/></g></g></svg>