<svg id="Layer_1" data-name="Layer 1" xmlns="http://www.w3.org/2000/svg" viewBox="0 0 248.42 375.9"><defs><style>.cls-1{fill:#184655;}.cls-2{fill:#f7cc7f;}.cls-3{fill:#f7a491;}.cls-4{fill:#3c8f7c;}.cls-5{fill:#355389;}.cls-6{fill:#466eb6;}.cls-7{fill:#13375b;}.cls-8{fill:#50bfa5;}.cls-9{fill:#f47458;}.cls-10{fill:#96d9c9;}</style></defs><title>who-2</title><path class="cls-1" d="M1416.71,671.33l11-2.9-7.45,99.37-13.19.44,6.65-93.3A4,4,0,0,1,1416.71,671.33Z" transform="translate(-1183.7 -588.77)"/><path class="cls-2" d="M1421.24,770.63a3.77,3.77,0,0,1-.75,0,4.41,4.41,0,0,1-3.61-4.85l7.31-93.43a4,4,0,0,1,4.3-3.92,4.41,4.41,0,0,1,3.61,4.85l-7.32,93.43A4.09,4.09,0,0,1,1421.24,770.63Z" transform="translate(-1183.7 -588.77)"/><path class="cls-2" d="M1320.08,775.61c0,.06,0,.13,0,.2h0c.34,3.8,3.29,6.65,6.57,6.35l92.83-8.31c3.29-.29,5.67-3.61,5.33-7.41l-.06-.48Z" transform="translate(-1183.7 -588.77)"/><path class="cls-3" d="M1384.72,876c-6.08,3.37-24.66-2.54-24.66-3.07-.26,5.08-20.8,54.77-20.8,54.77l0,15.29s42.31,2,41.71-1.72-2.89-1.3-11.33-8.37c-.75-.62-12.6-3.38-9.4-10.39C1366.72,908.34,1380.44,884.78,1384.72,876Z" transform="translate(-1183.7 -588.77)"/><path class="cls-4" d="M1337.88,943.5h46.33c1.67-.17,2.06-1.53,1.47-2.35-1.22-1.71-10.09-5.72-16.06-8.38-10.4,1.21-28.67-2.79-30.34-5.16C1334.88,933.52,1337,943.31,1337.88,943.5Z" transform="translate(-1183.7 -588.77)"/><path class="cls-5" d="M1327.72,840.28c-.62-1.88,39.89-19.07,41.7-17.11,3.21,3.48-21.92,68.69-21.92,68.69l28.87,8.82s30-75.34,28.76-89.12-16.29-29.45-48.87-19.42S1327.72,840.28,1327.72,840.28Z" transform="translate(-1183.7 -588.77)"/><path class="cls-3" d="M1411.6,884.53c-6.84-1.24-15.71-1.6-22.8-1.72.84,6.32,4.9,38.71,4.15,40.7a24.25,24.25,0,0,1-9.67,11.84s31.45,28.38,33.35,25.1-1.4-2.83-3.46-13.65c-.18-1-4.73-16-5-24.19C1407.62,907.08,1411.36,893.15,1411.6,884.53Z" transform="translate(-1183.7 -588.77)"/><path class="cls-6" d="M1401.5,778.55c-4.38-2.34-15.78-2.42-28.3-1.61A287.55,287.55,0,0,0,1301.44,791l-15.55,5.15,0-15.94s-49.45-8.28-51.17,4c-2.59,18.46.62,55.93,17.1,64.29,51.18,26,122.9-41.38,123.16-32.57.35,11.84,10.33,55.88,12.88,75.17,7.1.12,19.29.12,24.57-1.1C1413.51,852.23,1414,785.22,1401.5,778.55Z" transform="translate(-1183.7 -588.77)"/><path class="cls-4" d="M1382.32,936l35.36,28.24c1.4.93,2.56.13,2.63-.89.14-2.09-4.18-10.82-7.11-16.66-8.81-5.65-20.43-20.38-20.22-23.27C1389.25,926.58,1381.72,935.27,1382.32,936Z" transform="translate(-1183.7 -588.77)"/><path class="cls-7" d="M1302.28,624.49c-1.19-10.85-2.44-21.75-11.44-29.71-7.28-6.44-16.54-7.53-25.7-4.09-26,9.77-12.58,32.81-45.66,56-10.28,7.22-21.61,12.16-29.35,21.88-10.84,13.61-6.75,30,3.13,40.91,47.24,52.28,100-18.33,103.77-35.28C1299.85,661.63,1303.05,631.48,1302.28,624.49Z" transform="translate(-1183.7 -588.77)"/><path class="cls-8" d="M1292.69,685.55a144.42,144.42,0,0,0-7.84-12.76c-4-7.12-14.34-10.71-14.34-10.71s-3.46.07-7.43.26a3.22,3.22,0,0,1-.75,1.32c-1.49,1.12-10-.33-15.57,3.43-18.53,15.87-13.4,92.82-12,117.13l56.41.53s-7.11-52.29,4.35-65.73C1303.55,709.66,1298.41,696.1,1292.69,685.55Z" transform="translate(-1183.7 -588.77)"/><path class="cls-3" d="M1267.26,636s-3.1,22.14-5.26,27.53,11.9,16.88,23.61,20.38-3.57-11.89-3.09-17.64,2.61-33,2.61-33Z" transform="translate(-1183.7 -588.77)"/><path class="cls-9" d="M1284.54,641.13l.59-7.81L1267.26,636s-.45,2.6-1,6.28C1273.56,646.52,1280.07,645.2,1284.54,641.13Z" transform="translate(-1183.7 -588.77)"/><path class="cls-3" d="M1272.87,595.6a20.27,20.27,0,0,0-11.4,8.22c-4.34,6.64-7.33,26.18,7,35.3s25.46-3.78,25.64-16.37S1291.6,593.38,1272.87,595.6Z" transform="translate(-1183.7 -588.77)"/><path class="cls-3" d="M1297.39,618.82c-1.22,3-3.64,4.92-5.41,4.2s-2.21-3.75-1-6.78,3.64-4.92,5.41-4.21S1298.62,615.78,1297.39,618.82Z" transform="translate(-1183.7 -588.77)"/><path class="cls-7" d="M1275,595.18s-9,20.15-16.87,22-7.77,11.93-7.77,11.93.17-23.41,7.57-28.77S1275,595.18,1275,595.18Z" transform="translate(-1183.7 -588.77)"/><path class="cls-3" d="M1261.25,621.31c1,3.27.08,6.49-2.13,7.2s-4.84-1.39-5.88-4.66-.09-6.49,2.12-7.19S1260.21,618,1261.25,621.31Z" transform="translate(-1183.7 -588.77)"/><path class="cls-3" d="M1362.14,766.73c-3.39-1.23-8.42-1.38-8.34-1.82.34-1.81,15.29,4,13.27,1.35-1.12-1.47-12.31-6.68-15-5.82s-20,5.7-20,5.7L1284.71,755s-12-27.16-13.12-50.5c-9.88,1.34-16.61,3.78-25.19,8.55,4.14,22.31,14.2,58.49,25.33,65.28,4.68,2.85,60.57-3.42,60.57-3.42s12.32-.87,14.33-1.64c1.53-.59,5.46-2.81,7.6-3.41,4.86-1.38,13.52,2.08,13.54,1.13C1367.79,770.33,1365.6,768,1362.14,766.73Z" transform="translate(-1183.7 -588.77)"/><path class="cls-10" d="M1271.88,679.61c-.45-7.18-3.17-14.12-10.81-16.35a15.5,15.5,0,0,0-13.84,3c-4.5,3.68-5.75,9.58-5.73,15.16a216.52,216.52,0,0,0,3.22,38.3c8.59-4.77,18.62-7.63,28.5-9C1273.21,710.71,1272.49,689.1,1271.88,679.61Z" transform="translate(-1183.7 -588.77)"/></svg>