<svg id="Layer_1" data-name="Layer 1" xmlns="http://www.w3.org/2000/svg" viewBox="0 0 216.98 534.08"><defs><style>.cls-1{fill:#ffb27d;}.cls-2{fill:#233862;}.cls-3{fill:#2b478b;}.cls-4{fill:#e8945b;}.cls-5{fill:#ee9849;}.cls-6{fill:#e58638;}.cls-7{fill:#c65447;}.cls-8{fill:#ba4c43;}</style></defs><title>who-1</title><path class="cls-1" d="M1688.35,414.89s13.56-14.8,17.75-15.29,21.46,7.77,22.45,11-19-3.27-20.1,0-2.35,5.48-8,5.73a23.84,23.84,0,0,0-10.6,3.45Z" transform="translate(-1613.71 -399.58)"/><path class="cls-2" d="M1672.07,933.66c4.31-2.63,1.86-22.26,1.86-22.26s-20.08-16.07-22.84-3.76S1632,925.46,1622.72,927c-6.41,1-8.4,4.59-9,6.69Z" transform="translate(-1613.71 -399.58)"/><path class="cls-3" d="M1675.67,921.18c5.15-1.94,33.8-70.73,32.61-93.06-.14-2.65.38-24.39,1.19-28.89.64-3.51,1.49-7.6,2.52-12.13,1.56-6.9,3.52-14.85,5.69-23.37,6.1-24,13.86-52.43,19.21-75.1-9.61-21.54-21.92-40.4-33.21-46.84-8.06,1-15.83,2.47-21.58,3.72a100.76,100.76,0,0,0-10.56,7c-.89,4.47-2.19,11.92-3.25,21.51-.68,6.28-1.25,13.48-1.52,21.36-1.91,55.87,7.86,116.59-17,215.7C1649,913.8,1667.7,924.19,1675.67,921.18Z" transform="translate(-1613.71 -399.58)"/><path class="cls-2" d="M1668.29,674c4.15,20.78,14.14,65.18,49.39,89.75,6.1-24,13.86-52.43,19.21-75.1-9.61-21.54-21.92-40.4-33.21-46.84-8.06,1-15.83,2.47-21.58,3.72a100.76,100.76,0,0,0-10.56,7C1670.65,656.94,1669.35,664.39,1668.29,674Z" transform="translate(-1613.71 -399.58)"/><path class="cls-1" d="M1711.63,478.53l0,3.48s-1,10.9,12.47,12.49,23.59-4.25,23.23-12.66c-1.21-6.51-2.54-11-2.63-16.37a37.45,37.45,0,0,1,.48-6.52l-26-.52-7.66,1.25Z" transform="translate(-1613.71 -399.58)"/><path class="cls-4" d="M1711.53,459.68l.1,18.85a22.06,22.06,0,0,0,9.38,2.07c12,0,19.67-8.77,23.71-15.13a37.45,37.45,0,0,1,.48-6.52l-26-.52Z" transform="translate(-1613.71 -399.58)"/><path class="cls-1" d="M1710,468.84s33.3,6.73,37.17-14.08,10.78-33.95-10.32-39.13-26.73,2-29.71,8.63S1701.45,466.55,1710,468.84Z" transform="translate(-1613.71 -399.58)"/><path class="cls-2" d="M1734,933.66s1.82-10,4.71-15.73,21.22-2.09,21.22-2.09,3.67,3.14,4.46,17.82Z" transform="translate(-1613.71 -399.58)"/><path class="cls-3" d="M1698.05,652.8s18.26,81.35,24.11,118.06c2.19,13.74,6.75,57.76,7.47,71.65,1,19.07,7.26,77.42,7.26,77.42s10.61-6.7,26.34-.45c0,0,4-26.15,6.5-80.94.74-16.06-2.36-40.18-2-48,1.85-38.52,14.16-138.14,4.37-144.53S1698.05,652.8,1698.05,652.8Z" transform="translate(-1613.71 -399.58)"/><path class="cls-2" d="M1700.69,408.8a69.55,69.55,0,0,0,20.24-5.48c8.89-3.86,20.11.39,23.75,2.31a5.41,5.41,0,0,0-.89-2.19,4.89,4.89,0,0,1,1.88,2.78c.17.13.24.21.2.24a6.21,6.21,0,0,1,3,.2s-.83-.12-1.13.41a.47.47,0,0,1-.13.15c13.87,6.7,15.15,28.62,10.69,33.69-5.37,6.11-11.81,19.85-11.81,19.85a11.81,11.81,0,0,1-1.38-8.62c1-5.37-3.66-5.37-9.51-7.81s-1-9.27-6.11-13.42-23.92-1.71-23.67-4.88C1698.88,423.48,1700.69,409.51,1700.69,408.8Z" transform="translate(-1613.71 -399.58)"/><path class="cls-5" d="M1691.8,407.69a9.47,9.47,0,0,1,4.49,5.1c2.15,5.08.4,7.85.4,7.85s-35.25,32-33,37.79c1.2,3,28.51,19.05,39.85,25.6,4.67-.39,8.28-.36,8.4-.36h0s7.72,23.52,35.36-1.83c4.86,7.06,42.5,24.41,36,54.34-1.53,7-2.86,13.67-4,19.93-7.76,42.42-7.16,67.44-5.64,81.24,1.18,10.77,5.64,11.85,1.65,14.72,0,0-7.78,3.48-22.32,6.5a220.26,220.26,0,0,1-43.24,4.34c-28.43.18-39.2-9.62-39.2-9.62-7.53-7.36,7.37-36.33,6.17-57.25-.61-10.73.06-47.46.17-64.33h0l0,0c-1.37-1.49-43-47.26-51.16-73.24h0a34.38,34.38,0,0,1-1-3.77C1622.23,441.87,1691.8,407.69,1691.8,407.69Z" transform="translate(-1613.71 -399.58)"/><path class="cls-6" d="M1773.65,637.36c-1.52-13.8-2.12-38.82,5.64-81.24q-.8-2.54-1.58-4.86a7.42,7.42,0,0,0-14.21.51C1757.76,574,1752.59,611.69,1773.65,637.36Z" transform="translate(-1613.71 -399.58)"/><path class="cls-1" d="M1782.14,614.17s-17.29-10.45-22.65-9.13-17,6.38-16.26,9.47,14.22,5.2,16.57,4.83,6.15.07,7.69,1.4,13.79,1.82,15.28-1.77S1782.14,614.17,1782.14,614.17Z" transform="translate(-1613.71 -399.58)"/><path class="cls-5" d="M1747.35,481.84s21.19,1.54,32.71,8.29c7.45,4.37,50.63,73.16,50.63,83.29s-45.35,46.05-45.35,46.05-8.41,2.79-8.71-10.61c0,0,22.62-33.43,21.43-37.31-.75-2.43-34.08-29.17-34.08-29.17Z" transform="translate(-1613.71 -399.58)"/><path class="cls-6" d="M1625.69,458.44c8.19,26,49.79,71.75,51.16,73.24l0,0h0c.12-.46,3.55-13.55-4.64-22.92C1663.91,499.26,1635.13,475.38,1625.69,458.44Z" transform="translate(-1613.71 -399.58)"/><path class="cls-6" d="M1755.34,485.76c.09-1.83-8.61-4.37-8.61-4.37s-10,13.8-26.36,14c0,0,4.67,9.1,10.18,11.45C1730.55,506.88,1754.8,496.67,1755.34,485.76Z" transform="translate(-1613.71 -399.58)"/><path class="cls-6" d="M1720.37,495.11s-8.69-5.15-8.72-10.74c0,0-5.61-.7-8.06,2,0,0-2.06,9.57.67,15.13C1704.26,501.52,1716.77,499.62,1720.37,495.11Z" transform="translate(-1613.71 -399.58)"/><path class="cls-7" d="M1690.16,624.78a18.12,18.12,0,0,0,5.16,12l5,5.07a3.06,3.06,0,0,0,4.49-.12l6.88-7.87a10.85,10.85,0,0,0,2.69-7.64c-.28-6.24-.78-18.25-1.08-29.84-.24-9.39-.35-18.5-.11-24,.78-17.65,7.22-73.72,7.22-73.72h-4.24a226.65,226.65,0,0,0-18.7,50.71,197,197,0,0,0-4.13,23S1689.41,604.4,1690.16,624.78Z" transform="translate(-1613.71 -399.58)"/><path class="cls-8" d="M1726.27,494.28l-11.78-2.82a1.78,1.78,0,0,0-1.5,2.05c0,1.92,3.32,7.53,4.77,8S1729.06,498.16,1726.27,494.28Z" transform="translate(-1613.71 -399.58)"/><path class="cls-5" d="M1755.34,483.08c.09-1.84-8.61-4.37-8.61-4.37s-10,13.8-26.36,14c0,0,4.67,9.1,10.18,11.45C1730.55,504.2,1754.8,494,1755.34,483.08Z" transform="translate(-1613.71 -399.58)"/><path class="cls-5" d="M1720.37,492.75s-8.69-5.15-8.72-10.74c0,0-5.61-.7-8.06,2,0,0-2.06,9.57.67,15.13C1704.26,499.16,1716.77,497.26,1720.37,492.75Z" transform="translate(-1613.71 -399.58)"/><path class="cls-8" d="M1690.16,624.78a18.12,18.12,0,0,0,5.16,12l5,5.07a3.06,3.06,0,0,0,4.49-.12l6.88-7.87a10.85,10.85,0,0,0,2.69-7.64c-.28-6.24-.78-18.25-1.08-29.84-11-13.74-14.79-32.13-15.83-47a197,197,0,0,0-4.13,23S1689.41,604.4,1690.16,624.78Z" transform="translate(-1613.71 -399.58)"/></svg>